SplineFontDB: 3.0
FontName: NeutonCursive-Regular
FullName: Neuton Cursive
FamilyName: Neuton Cursive
Weight: Book
Copyright: Copyright (c) 2010, 2011 Brian M Zick (http://21326.info/), \nwith Reserved Font Name 'Neuton Cursive'.\n\nThis Font Software is licensed under the SIL Open Font License, Version 1.1.\nThis license is available with a FAQ at: http://scripts.sil.org/OFL\n   WITHOUT WARRANTIES OR CONDITIONS OF ANY KIND, either express or implied.\n   See the License for the specific language governing permissions and\n   limitations under the License.
Version: 1.46
ItalicAngle: 0
UnderlinePosition: -361
UnderlineWidth: 0
Ascent: 1638
Descent: 410
LayerCount: 2
Layer: 0 0 "Back"  1
Layer: 1 0 "Fore"  0
XUID: [1021 467 2011608612 8622985]
FSType: 1
OS2Version: 1
OS2_WeightWidthSlopeOnly: 0
OS2_UseTypoMetrics: 0
CreationTime: 1300472668
ModificationTime: 1335394136
PfmFamily: 17
TTFWeight: 500
TTFWidth: 5
LineGap: 0
VLineGap: 0
OS2TypoAscent: 2106
OS2TypoAOffset: 0
OS2TypoDescent: -485
OS2TypoDOffset: 0
OS2TypoLinegap: 0
OS2WinAscent: 2106
OS2WinAOffset: 0
OS2WinDescent: 485
OS2WinDOffset: 0
HheadAscent: 2106
HheadAOffset: 0
HheadDescent: -485
HheadDOffset: 0
OS2SubXSize: 1095
OS2SubYSize: 1179
OS2SubXOff: 0
OS2SubYOff: 235
OS2SupXSize: 1095
OS2SupYSize: 1179
OS2SupXOff: 0
OS2SupYOff: 809
OS2StrikeYSize: 84
OS2StrikeYPos: 436
OS2Vendor: 'PfEd'
OS2CodePages: 20000093.00000000
OS2UnicodeRanges: a00000ef.0000204a.00000000.00000000
Lookup: 1 0 0 "'onum' Oldstyle Figures lookup 1"  {"'onum' Oldstyle Figures lookup 1-1" ("osf" ) } ['onum' ('DFLT' <'dflt' > 'hebr' <'dflt' > 'latn' <'dflt' > ) ]
MarkAttachClasses: 1
DEI: 91125
ShortTable: maxp 16
  1
  0
  367
  132
  7
  0
  0
  2
  0
  1
  1
  0
  64
  0
  0
  0
EndShort

StartChar: exclam
Encoding: 2 33 1
Width: 347
VWidth: 1655
GlyphClass: 2
Flags: HMW
LayerCount: 2
Fore
SplineSet
62.4004 1257 m 1
 93.4004 1279 129.4 1290 170.4 1290 c 128
 211.4 1290 245.4 1278 271.4 1254 c 128
 297.4 1230 313.4 1196 321.4 1152 c 1
 325.4 1136 327.4 1114 326.4 1085 c 0
 324.4 1000 307.4 872 272.4 699 c 5
 197.4 338 l 1
 126.4 325 l 1
 138.4 495 l 2
 143.4 561 145.4 666 145.4 811 c 2
 145.4 874 l 1
 140.4 1022 113.4 1150 62.4004 1257 c 1
191.4 206 m 128
 203.4 200 213.4 192 223.4 178 c 128
 233.4 164 238.4 154 241.4 143 c 128
 244.4 132 245.4 125 245.4 120 c 128
 245.4 115 243.4 100 237.4 73 c 128
 231.4 46 217.4 22 194.4 -1 c 128
 171.4 -24 144.4 -35 114.4 -35 c 1
 87.4004 -33 67.4004 -24 51.4004 -8 c 128
 35.4004 8 27.4004 24 24.4004 42 c 128
 21.4004 60 20.4004 68 20.4004 71 c 128
 20.4004 74 22.4004 86 27.4004 108 c 128
 32.4004 130 44.4004 153 67.4004 176 c 128
 90.4004 199 113.4 211 137.4 212 c 128
 161.4 213 179.4 212 191.4 206 c 128
EndSplineSet
Colour: ffffff
EndChar

StartChar: quotedbl
Encoding: 3 34 2
Width: 452
VWidth: 1655
GlyphClass: 2
Flags: HMW
LayerCount: 2
Fore
SplineSet
33.5996 1308 m 1
 39.5996 1310 57.5996 1311 91.5996 1310 c 128
 125.6 1309 167.6 1304 216.6 1292 c 1
 131.6 906 l 1
 108.6 898 83.5996 894 56.5996 895 c 2
 35.5996 895 l 1
 33.5996 1308 l 1
242.6 1308 m 1
 248.6 1310 267.6 1311 301.6 1310 c 128
 335.6 1309 376.6 1304 425.6 1292 c 1
 340.6 906 l 1
 317.6 898 292.6 894 265.6 895 c 2
 245.6 895 l 1
 242.6 1308 l 1
EndSplineSet
Colour: ffffff
EndChar

StartChar: numbersign
Encoding: 4 35 3
Width: 901
VWidth: 1655
GlyphClass: 2
Flags: HMW
LayerCount: 2
Fore
SplineSet
287.4 355 m 1
 236.4 174 l 1
 131.4 167 l 1
 186.4 355 l 1
 20.4004 355 l 1
 61.4004 455 l 1
 219.4 455 l 1
 282.4 662 l 1
 124.4 662 l 1
 163.4 760 l 1
 315.4 760 l 1
 372.4 931 l 1
 473.4 941 l 1
 416.4 760 l 1
 616.4 760 l 1
 670.4 931 l 1
 773.4 940 l 1
 716.4 760 l 1
 881.4 760 l 1
 842.4 662 l 1
 684.4 662 l 1
 622.4 455 l 1
 778.4 455 l 1
 739.4 355 l 1
 587.4 355 l 1
 536.4 174 l 1
 431.4 167 l 1
 487.4 355 l 1
 287.4 355 l 1
320.4 455 m 1
 519.4 455 l 1
 584.4 662 l 1
 383.4 662 l 1
 320.4 455 l 1
EndSplineSet
Colour: ffffff
EndChar

StartChar: dollar
Encoding: 5 36 4
Width: 883
VWidth: 1655
GlyphClass: 2
Flags: HMW
LayerCount: 2
Fore
SplineSet
548 1184 m 1
 544 1184 l 2
 499 1184 459 1168 421 1138 c 128
 383 1108 363 1067 359 1016 c 1
 359 1003 l 2
 359 945 379 894 419 850 c 1
 435 833 456 813 482 788 c 1
 548 1184 l 1
428 80 m 1
 469 83 507 94 540 116 c 0
 594 151 621 200 621 262 c 128
 621 324 599 378 556 423 c 1
 542 440 522 458 496 479 c 1
 428 80 l 1
245 401 m 1
 225 346 215 297 217 256 c 0
 217 193 249.154 146 312 113 c 1
 326 104 343 96 365 88 c 1
 439 525 l 1
 358 591 295 650 252 702 c 1
 196 773 168 841 168 906 c 2
 168 928 l 1
 172 966 183 1004 203 1043 c 1
 237 1108 283 1161 342 1200 c 128
 401 1239 463 1263 530 1273 c 1
 555 1417 l 1
 688 1426 l 1
 663 1271 l 1
 744 1256 811 1225 865 1178 c 1
 800 832 l 1
 712 851 l 1
 705 1101 l 1
 682 1134 651 1157 612 1171 c 1
 539 741 l 1
 626 668 680 621 703 600 c 0
 772 532 811 457 822 376 c 0
 824 371 824 362 823 346 c 0
 823 261 792 185 729 120 c 1
 678 66 613 26 534 0 c 0
 505 -10 475 -15 444 -19 c 1
 421 -157 l 1
 292 -167 l 1
 317 -19 l 1
 244 -11 180 12 123 49 c 0
 93 70 69 94 51 123 c 128
 33 152 23 180 20 207 c 1
 18 211 18 218 18 232 c 128
 18 246 20 264 26 286 c 1
 44 339 78 375 130 395 c 1
 153 406 177 411 203 411 c 128
 218.167 411 232.75 408 245 401 c 1
EndSplineSet
Colour: ffffff
EndChar

StartChar: percent
Encoding: 6 37 5
Width: 1070
VWidth: 1655
GlyphClass: 2
Flags: HMW
LayerCount: 2
Fore
SplineSet
862.6 962 m 1
 998.6 971 l 1
 189.6 -23 l 1
 47.5996 -31 l 1
 862.6 962 l 1
507.6 770 m 0
 507.6 768 507.6 754 505.6 727 c 1
 495.6 649 466.6 587 416.6 541 c 128
 366.6 495 305.6 471 234.6 471 c 128
 163.6 471 109.6 491 74.5996 530 c 128
 39.5996 569 21.5996 621 21.5996 686 c 0
 21.5996 769 49.5996 838 105.6 893 c 128
 161.6 948 224.6 975 296.6 975 c 128
 368.6 975 422.6 957 456.6 920 c 128
 490.6 883 507.6 833 507.6 770 c 0
277.6 883 m 0
 184.6 883 138.6 821 139.6 699 c 0
 139.6 608 176.6 563 250.6 562 c 0
 332.6 562 378.6 619 390.6 733 c 0
 392.6 745 392.6 752 392.6 754 c 0
 392.6 794 383.6 825 362.6 848 c 128
 341.6 871 313.6 883 277.6 883 c 0
1049.6 274 m 0
 1049.6 270 1048.6 257 1045.6 233 c 1
 1036.6 156 1007.6 94 956.6 47 c 128
 905.6 0 844.6 -24 773.6 -24 c 128
 702.6 -24 649.6 -3 614.6 37 c 128
 579.6 77 561.6 128 561.6 191 c 0
 561.6 272 590.6 339 649.6 394 c 128
 708.6 449 773.6 476 843.6 476 c 128
 913.6 476 965.6 458 999.6 421 c 128
 1033.6 384 1049.6 335 1049.6 274 c 0
679.6 202 m 0
 679.6 113 716.6 68 791.6 68 c 0
 872.6 68 918.6 119 930.6 220 c 0
 932.6 226 932.6 236 932.6 254 c 0
 932.6 295 922.6 327 901.6 350 c 128
 880.6 373 853.6 385 817.6 385 c 0
 738.6 385 693.6 337 681.6 240 c 0
 679.6 234 679.6 222 679.6 202 c 0
EndSplineSet
Colour: ffffff
EndChar

StartChar: ampersand
Encoding: 7 38 6
Width: 1137
VWidth: 1655
GlyphClass: 2
Flags: HMW
LayerCount: 2
Fore
SplineSet
240.4 872 m 0
 240.4 1050.9 406.562 1220 616.4 1220 c 128
 767.236 1220 874.4 1126.06 874.4 985 c 0
 874.4 793 675.4 673 520.4 627 c 1
 538.889 601.527 490.4 695 490.4 695 c 17
 603.4 725 691.4 849 691.4 933 c 128
 691.4 1062.33 627.382 1127 547.4 1127 c 128
 465.874 1127 413.4 1046.18 413.4 971 c 0
 413.4 842.781 450.4 778 531.4 645 c 2
 838.857 141 l 2
 877.643 69.1885 916.4 0 916.4 -79 c 0
 916.4 -272.492 659.594 -363 497.4 -301 c 1
 490.4 -265 l 1
 607.473 -243.917 725.4 -212.549 725.4 -112 c 0
 725.4 -56 712.068 -35.1377 661.689 61 c 2
 346.011 585 l 2
 272.4 707 240.4 798.101 240.4 872 c 0
766.4 617 m 1
 803.059 671.037 851.77 701 922.4 701 c 0
 1033.06 701 1115.4 586.288 1115.4 460 c 0
 1115.4 113.594 694.591 -52 383.4 -52 c 0
 196.372 -52 20.4004 29.7617 20.4004 270 c 0
 20.4004 436 183.4 560 357.861 643.428 c 1
 358.068 635.17 399.4 572 399.4 572 c 1
 257.4 488.655 232.4 408.621 232.4 309 c 0
 232.4 151.666 361.036 72 515.4 72 c 0
 710.665 72 931.4 158.641 931.4 400 c 0
 931.4 488.279 876.668 578.565 766.4 617 c 1
EndSplineSet
Colour: ffffff
EndChar

StartChar: quotesingle
Encoding: 8 39 7
Width: 243
VWidth: 1655
GlyphClass: 2
Flags: HMW
LayerCount: 2
Fore
SplineSet
33.5996 1308 m 5
 39.5996 1310 57.5996 1311 91.5996 1310 c 128
 125.6 1309 167.6 1304 216.6 1292 c 1
 131.6 906 l 1
 108.6 898 83.5996 894 56.5996 895 c 2
 35.5996 895 l 1
 33.5996 1308 l 5
EndSplineSet
Colour: ffffff
EndChar

StartChar: parenleft
Encoding: 9 40 8
Width: 532
VWidth: 1655
GlyphClass: 2
Flags: HMW
LayerCount: 2
Fore
SplineSet
263.4 -378 m 1
 102.4 -195 21.4004 27 20.4004 287 c 0
 20.4004 338 24.4004 402 33.4004 477 c 128
 42.4004 552 61.4004 635 91.4004 724 c 128
 121.4 813 153.4 885 185.4 940 c 128
 217.4 995 255.4 1047 298.4 1098 c 128
 341.4 1149 376.4 1187 405.4 1212 c 128
 434.4 1237 455.4 1254 470.4 1266 c 1
 512.4 1199 l 1
 351.4 1020 251.4 774 212.4 460 c 0
 204.4 401 201.4 341 200.4 282 c 1
 202.4 72 249.4 -129 340.4 -320 c 1
 263.4 -378 l 1
EndSplineSet
Colour: ffffff
EndChar

StartChar: parenright
Encoding: 10 41 9
Width: 550
VWidth: 1655
GlyphClass: 2
Flags: HMW
LayerCount: 2
Fore
SplineSet
20.4004 -320 m 1
 243.4 -16 354.4 319 355.4 685 c 0
 355.4 886 311.4 1057 223.4 1199 c 1
 281.4 1266 l 1
 447.4 1111 530.4 897 529.4 621 c 0
 529.4 467 503.4 317 452.4 170 c 0
 421.4 84 390.4 12 358.4 -45 c 128
 326.4 -102 291.4 -152 254.4 -197 c 128
 217.4 -242 189.4 -276 169.4 -298 c 0
 145.4 -325 116.4 -351 82.4004 -378 c 1
 20.4004 -320 l 1
EndSplineSet
Colour: ffffff
EndChar

StartChar: asterisk
Encoding: 11 42 10
Width: 758
VWidth: 0
GlyphClass: 2
Flags: HMW
LayerCount: 2
Fore
SplineSet
307.8 1292 m 1
 443.8 1279 l 1
 417.8 988 l 1
 706.8 1119 l 1
 735.8 989 l 1
 450.8 921 l 1
 669.8 692 l 1
 551.8 623 l 1
 398.8 870 l 1
 243.8 593 l 1
 141.8 685 l 1
 334.8 904 l 1
 22.7998 964 l 1
 77.7998 1091 l 1
 344.8 977 l 1
 307.8 1292 l 1
EndSplineSet
Colour: ffffff
EndChar

StartChar: plus
Encoding: 12 43 11
Width: 616
VWidth: 1655
GlyphClass: 2
Flags: HMW
LayerCount: 2
Fore
SplineSet
357 413 m 1
 329 174 l 1
 220 186 l 1
 248 413 l 1
 24 413 l 1
 49 514 l 1
 258 514 l 1
 288 747 l 1
 394 734 l 1
 369 514 l 1
 592 514 l 1
 566 413 l 1
 357 413 l 1
EndSplineSet
Colour: ffffff
EndChar

StartChar: comma
Encoding: 13 44 12
Width: 387
VWidth: 1655
GlyphClass: 2
Flags: HMW
LayerCount: 2
Fore
SplineSet
216.6 227 m 2
 231.6 227 l 1
 283.6 221 320.6 188 342.6 127 c 0
 352.6 103 356.6 80 357.6 57 c 0
 357.6 -44 307.6 -132 208.6 -209 c 1
 164.6 -245 114.6 -276 59.5996 -303 c 1
 27.5996 -251 l 1
 86.5996 -220 128.6 -187 153.6 -149 c 128
 178.6 -111 190.6 -74 190.6 -39 c 0
 190.6 -37 188.6 -26 184.6 -4 c 128
 180.6 18 169.6 42 149.6 64 c 128
 129.6 86 107.6 103 82.5996 116 c 1
 92.5996 152 109.6 179 136.6 198 c 128
 163.6 217 189.6 227 216.6 227 c 2
EndSplineSet
Colour: ffffff
EndChar

StartChar: hyphen
Encoding: 14 45 13
Width: 469
VWidth: 1655
GlyphClass: 2
Flags: HMW
LayerCount: 2
Fore
SplineSet
39.7998 489 m 1
 439.8 507 l 1
 427.8 408 l 1
 28.7998 390 l 1
 39.7998 489 l 1
EndSplineSet
Colour: ffffff
EndChar

StartChar: period
Encoding: 15 46 14
Width: 283
VWidth: 1655
GlyphClass: 2
Flags: HMW
LayerCount: 2
Fore
SplineSet
199.8 206 m 128
 211.8 200 221.8 192 231.8 178 c 128
 241.8 164 246.8 154 249.8 143 c 128
 252.8 132 253.8 125 253.8 120 c 128
 253.8 115 251.8 100 245.8 73 c 128
 239.8 46 225.8 22 202.8 -1 c 128
 179.8 -24 152.8 -35 122.8 -35 c 1
 95.7998 -33 75.7998 -24 59.7998 -8 c 128
 43.7998 8 35.7998 24 32.7998 42 c 128
 29.7998 60 28.7998 68 28.7998 71 c 128
 28.7998 74 30.7998 86 35.7998 108 c 128
 40.7998 130 52.7998 153 75.7998 176 c 128
 98.7998 199 121.8 211 145.8 212 c 128
 169.8 213 187.8 212 199.8 206 c 128
EndSplineSet
Colour: ffffff
EndChar

StartChar: slash
Encoding: 16 47 15
Width: 640
VWidth: 1655
GlyphClass: 2
Flags: HMW
LayerCount: 2
Fore
SplineSet
486.4 1245 m 1
 620.4 1252 l 1
 151.4 -357 l 1
 20.4004 -367 l 1
 486.4 1245 l 1
EndSplineSet
Colour: ffffff
EndChar

StartChar: zero
Encoding: 17 48 16
Width: 880
VWidth: 1655
GlyphClass: 2
Flags: HMW
LayerCount: 2
Fore
SplineSet
501.6 1158 m 1
 566.6 1154 623.6 1133 672.6 1092 c 128
 721.6 1051 762.6 997 793.6 931 c 0
 836.6 840 858.6 736 858.6 618 c 0
 858.6 611 857.6 586 854.6 543 c 1
 842.6 402 803.6 282 734.6 181 c 0
 696.6 126 652.6 81 603.6 45 c 128
 554.6 9 510.6 -11 470.6 -16 c 128
 430.6 -21 410.6 -23 406.6 -23 c 0
 343.6 -23 283.6 -5 227.6 30 c 128
 171.6 65 125.6 119 90.5996 191 c 128
 55.5996 263 34.5996 345 26.5996 437 c 1
 22.5996 466 21.5996 503 21.5996 548 c 128
 21.5996 593 27.5996 644 41.5996 702 c 0
 68.5996 818 119.6 921 196.6 1011 c 1
 241.6 1063 287.6 1100 333.6 1123 c 128
 379.6 1146 429.6 1158 484.6 1158 c 2
 501.6 1158 l 1
210.6 864 m 1
 190.6 801 180.6 731 181.6 653 c 0
 181.6 509 213.6 375 276.6 251 c 1
 328.6 151 395.6 101 476.6 101 c 0
 538.6 101 585.6 125 618.6 173 c 0
 639.6 204 658.6 252 675.6 317 c 128
 692.6 382 699.6 448 699.6 517 c 0
 699.6 624 676.6 728 632.6 829 c 128
 588.6 930 533.6 995 466.6 1022 c 1
 442.6 1031 425.6 1035 414.6 1036 c 128
 403.6 1037 388.6 1035 368.6 1032 c 1
 290.6 1015 237.6 959 210.6 864 c 1
EndSplineSet
Substitution2: "'onum' Oldstyle Figures lookup 1-1" zero.osf
Colour: ffffff
EndChar

StartChar: one
Encoding: 18 49 17
Width: 558
VWidth: 1655
GlyphClass: 2
Flags: HMW
LayerCount: 2
Fore
SplineSet
217.4 -14 m 1
 265.4 261 294.4 438 305.4 516 c 128
 316.4 594 323.4 658 331.4 707 c 128
 339.4 756 345.4 806 352.4 857 c 128
 359.4 908 366.4 968 376.4 1036 c 1
 367.4 1032 l 1
 341.4 959 313.4 907 284.4 879 c 128
 255.4 851 228.4 834 203.4 826 c 128
 178.4 818 157.4 815 140.4 815 c 128
 123.4 815 105.4 820 84.4004 830 c 0
 42.4004 850 21.4004 885 20.4004 935 c 0
 20.4004 937 21.4004 944 24.4004 959 c 1
 128.4 966 222.4 997 307.4 1053 c 1
 345.4 1078 379.4 1107 410.4 1138 c 1
 536.4 1154 l 1
 437.4 -8 l 1
 217.4 -14 l 1
EndSplineSet
Substitution2: "'onum' Oldstyle Figures lookup 1-1" one.osf
Colour: ffffff
EndChar

StartChar: two
Encoding: 19 50 18
Width: 877
VWidth: 1655
GlyphClass: 2
Flags: HMW
LayerCount: 2
Fore
SplineSet
393.4 664 m 1
 362.4 626 328.4 607 291.4 607 c 0
 219.4 607 169.4 639 141.4 702 c 1
 130.4 725 125.4 758 125.4 802 c 128
 125.4 846 144.4 899 181.4 961 c 128
 218.4 1023 267.4 1074 328.4 1114 c 128
 389.4 1154 458.4 1176 534.4 1178 c 1
 548.4 1178 l 2
 637.4 1178 708.4 1150 762.4 1094 c 1
 825.4 1031 856.4 948 857.4 845 c 0
 856.4 698 785.4 558 641.4 424 c 0
 578.4 365 480.4 291 348.4 200 c 2
 235.4 123 l 1
 235.4 113 l 1
 436.4 121 l 1
 452.4 121 471.4 121 495.4 123 c 128
 519.4 125 534.4 125 542.4 125 c 0
 611.4 131 663.4 159 698.4 212 c 0
 714.4 234 727.4 262 741.4 296 c 2
 774.4 376 l 1
 848.4 349 l 1
 847.4 343 841.4 297 827.4 210 c 0
 813.4 123 797.4 48 778.4 -16 c 1
 623.4 -16 l 1
 461.4 -14 315.4 -10 183.4 -3 c 2
 20.4004 5 l 1
 31.4004 101 l 1
 212.4 211 l 2
 327.4 281 410.4 337 459.4 381 c 128
 508.4 425 544.4 464 568.4 499 c 128
 592.4 534 613.4 574 632.4 621 c 128
 651.4 668 661.4 723 663.4 786 c 1
 663.4 797 l 2
 663.4 863 649.4 922 621.4 974 c 128
 593.4 1026 554.4 1061 505.4 1078 c 1
 485.4 1084 463.4 1086 439.4 1086 c 128
 415.4 1086 388.4 1075 358.4 1054 c 128
 328.4 1033 309.4 1005 296.4 973 c 128
 283.4 941 277.4 912 277.4 885 c 0
 277.4 797 316.4 723 393.4 664 c 1
EndSplineSet
Substitution2: "'onum' Oldstyle Figures lookup 1-1" two.osf
Colour: ffffff
EndChar

StartChar: three
Encoding: 20 51 19
Width: 811
VWidth: 1655
GlyphClass: 2
Flags: HMW
LayerCount: 2
Fore
SplineSet
325.4 589 m 1
 450.978 651.167 616.4 735.159 616.4 915 c 0
 616.4 1023.03 561.354 1099 464.4 1099 c 128
 379.154 1099 310.4 1049.26 310.4 969 c 128
 310.4 892.109 346.4 848 384.4 815 c 1
 366.464 781.121 334.879 757 291.4 757 c 1
 289.4 755 288.4 755 284.4 755 c 0
 216.062 755 163.4 817.086 163.4 888 c 0
 163.4 1059.7 376.826 1179 546.4 1179 c 0
 699.059 1179 789.4 1105.01 789.4 961 c 128
 789.4 779.168 626.4 676 524.4 625 c 1
 524.4 621 l 1
 657.969 621 776.4 522.215 776.4 372 c 0
 776.4 122.151 530.598 -28 289.4 -28 c 128
 154.774 -28 22.5059 44.8994 20.4004 167 c 1
 20.4004 272.75 104.28 333.335 200.4 332 c 1
 169.128 188.148 238.577 63 369.4 63 c 0
 488.941 63 593.4 134.941 593.4 283 c 0
 593.4 459.429 454.4 553.422 319.4 530 c 1
 325.4 589 l 1
EndSplineSet
Substitution2: "'onum' Oldstyle Figures lookup 1-1" three.osf
Colour: ffffff
EndChar

StartChar: four
Encoding: 21 52 20
Width: 873
VWidth: 1655
GlyphClass: 2
Flags: HMW
LayerCount: 2
Fore
SplineSet
355.4 532 m 2
 165.4 353 l 1
 511.4 360 l 1
 532.4 585 l 1
 702.4 702 l 1
 658.4 365 l 1
 853.4 369 l 1
 820.4 233 l 1
 649.4 241 l 1
 630.4 14 l 1
 472.4 -12 l 1
 503.4 246 l 1
 35.4004 267 l 1
 20.4004 323 l 1
 209.4 510 l 2
 385.794 684.527 578.851 859.043 574.4 1184 c 1
 675.447 1202.37 748.4 1137.75 748.4 1046 c 128
 748.4 908 538.737 706.425 355.4 532 c 2
EndSplineSet
Substitution2: "'onum' Oldstyle Figures lookup 1-1" four.osf
Colour: ffffff
EndChar

StartChar: five
Encoding: 22 53 21
Width: 841
VWidth: 1655
GlyphClass: 2
Flags: HMW
LayerCount: 2
Fore
SplineSet
821.4 1092 m 1
 812.4 998 745.4 951 620.4 951 c 0
 563.4 951 505.4 954 448.4 962 c 0
 391.4 970 360.4 973 355.4 973 c 1
 302.4 750 l 1
 310.4 747 l 1
 316.4 747 319.4 747 323.4 748 c 1
 339.4 748 l 2
 455.4 748 552.4 712 630.4 641 c 1
 706.4 567 744.4 480 745.4 380 c 0
 745.4 281 713.4 192 650.4 114 c 0
 603.4 57 544.4 17 472.4 -5 c 1
 425.4 -23 381.4 -31 342.4 -31 c 128
 303.4 -31 282.4 -31 276.4 -30 c 1
 214.4 -26 160.4 -11 115.4 18 c 1
 52.4004 57 21.4004 112 20.4004 184 c 0
 20.4004 188 21.4004 198 24.4004 216 c 1
 32.4004 247 47.4004 277 71.4004 303 c 128
 95.4004 329 127.4 343 167.4 346 c 1
 169.4 336 173.4 310 183.4 269 c 1
 216.4 161 275.4 99 361.4 81 c 1
 384.4 79 396.4 78 398.4 78 c 0
 438.4 78 475.4 89 511.4 111 c 128
 547.4 133 569.4 160 578.4 193 c 128
 587.4 226 591.4 250 591.4 267 c 128
 591.4 284 591.4 298 589.4 311 c 128
 587.4 324 580.4 348 565.4 383 c 1
 542.4 441 508.4 488 463.4 524 c 128
 418.4 560 367.4 582 310.4 592 c 1
 277.4 599 244.4 602 211.4 602 c 1
 188.4 620 l 1
 323.4 1115 l 1
 339.4 1113 375.4 1113 430.4 1113 c 0
 581.4 1113 708.4 1129 811.4 1160 c 1
 818.4 1140 821.4 1121 821.4 1104 c 2
 821.4 1092 l 1
EndSplineSet
Substitution2: "'onum' Oldstyle Figures lookup 1-1" five.osf
Colour: ffffff
EndChar

StartChar: six
Encoding: 23 54 22
Width: 805
VWidth: 1655
GlyphClass: 2
Flags: HMW
LayerCount: 2
Fore
SplineSet
192.6 423 m 2
 192.6 388 l 1
 198.6 264 222.6 178 266.6 129 c 1
 300.6 89 337.6 69 378.6 70 c 0
 380.6 70 383.6 70 387.6 72 c 1
 394.6 72 l 1
 421.6 76 446.6 86 469.6 104 c 0
 513.6 144 540.6 213 550.6 310 c 0
 554.6 334 555.6 359 554.6 385 c 0
 554.6 434 545.6 477 527.6 514 c 1
 518.6 534 504.6 551 484.6 566 c 1
 453.6 589 418.6 600 379.6 601 c 128
 340.6 602 303.6 596 269.6 584 c 128
 235.6 572 211.6 556 197.6 534 c 1
 193.6 498 192.6 461 192.6 423 c 2
78.5996 675 m 0
 147.6 866 257.6 1009 408.6 1104 c 1
 475.6 1145 537.6 1165 592.6 1164 c 0
 644.6 1164 686.6 1151 719.6 1124 c 0
 762.6 1087 784.6 1044 783.6 995 c 0
 783.6 966 776.6 938 760.6 912 c 128
 744.6 886 721.6 866 689.6 853 c 1
 662.6 922 623.6 972 574.6 1003 c 0
 551.6 1017 529.6 1025 506.6 1029 c 1
 490.6 1029 l 2
 431.6 1029 381.6 1001 339.6 945 c 128
 297.6 889 266.6 825 245.6 752 c 0
 224.6 679 212.6 630 208.6 604 c 1
 237.6 642 274.6 670 321.6 690 c 128
 368.6 710 416.6 718 466.6 717 c 128
 516.6 716 560.6 705 598.6 682 c 128
 636.6 659 666.6 630 687.6 594 c 128
 708.6 558 719.6 523 723.6 487 c 128
 727.6 451 729.6 432 729.6 427 c 0
 729.6 372 716.6 312 690.6 249 c 128
 664.6 186 628.6 134 582.6 91 c 1
 503.6 20 419.6 -15 330.6 -16 c 0
 314.6 -16 304.6 -16 299.6 -14 c 1
 192.6 -5 112.6 52 59.5996 158 c 1
 34.5996 213 22.5996 275 21.5996 344 c 0
 21.5996 372 21.5996 390 23.5996 398 c 1
 29.5996 497 47.5996 590 78.5996 675 c 0
EndSplineSet
Substitution2: "'onum' Oldstyle Figures lookup 1-1" six.osf
Colour: ffffff
EndChar

StartChar: seven
Encoding: 24 55 23
Width: 864
VWidth: 1655
GlyphClass: 2
Flags: HMW
LayerCount: 2
Fore
SplineSet
423.4 537 m 4
 384.4 454 365.4 369 365.4 282 c 132
 365.4 195 396.4 117 458.4 49 c 5
 440.4 26 415.4 9 381.4 -3 c 5
 371.4 -8 358.4 -10 342.4 -10 c 132
 326.4 -10 306.4 -6 280.4 2 c 132
 254.4 10 229.4 28 206.4 58 c 132
 183.4 88 171.4 120 167.4 153 c 132
 163.4 186 161.4 210 161.4 228 c 4
 161.4 269 183.4 335 226.4 427 c 5
 272.4 515 341.4 619 433.4 738 c 6
 653.4 1022 l 5
 537.4 1018 430.4 1013 331.4 1005 c 132
 232.4 997 176.4 993 161.4 990 c 5
 95.4004 830 l 5
 20.4004 851 l 5
 54.4004 1142 l 5
 70.4004 1144 127.4 1147 229.4 1153 c 132
 331.4 1159 418.4 1161 489.4 1161 c 5
 844.4 1148 l 5
 841.4 1090 l 5
 607.4 812 l 6
 523.4 711 462.4 619 423.4 537 c 4
EndSplineSet
Substitution2: "'onum' Oldstyle Figures lookup 1-1" seven.osf
Colour: ffffff
EndChar

StartChar: eight
Encoding: 25 56 24
Width: 756
VWidth: 1655
GlyphClass: 2
Flags: HMW
LayerCount: 2
Fore
SplineSet
483.4 653 m 1
 544.4 707 574.4 783 573.4 882 c 0
 573.4 935 565.4 978 547.4 1012 c 128
 529.4 1046 509.4 1068 487.4 1077 c 128
 465.4 1086 447.4 1090 431.4 1090 c 1
 410.4 1089 l 1
 387.4 1085 367.4 1076 349.4 1059 c 128
 331.4 1042 320.4 1021 313.4 997 c 128
 306.4 973 303.4 955 303.4 941 c 2
 303.4 931 l 1
 307.4 878 329.4 826 371.4 775 c 0
 405.4 733 442.4 692 483.4 653 c 1
258.4 618 m 1
 185.4 701 149.4 783 148.4 864 c 0
 148.4 878 148.4 886 149.4 890 c 1
 160.4 981 211.4 1056 303.4 1117 c 1
 365.4 1156 429.4 1175 496.4 1175 c 128
 563.4 1175 620.4 1152 666.4 1106 c 128
 712.4 1060 734.4 1005 734.4 941 c 0
 734.4 925 734.4 915 733.4 911 c 1
 727.4 852 705.4 795 665.4 740 c 128
 625.4 685 580.4 641 529.4 608 c 1
 590.4 547 634.4 492 659.4 443 c 128
 684.4 394 697.4 345 697.4 296 c 0
 697.4 280 697.4 270 695.4 265 c 1
 691.4 229 681.4 194 661.4 160 c 128
 641.4 126 616.4 98 585.4 75 c 1
 530.4 30 462.4 -1 381.4 -18 c 0
 354.4 -24 325.4 -26 294.4 -26 c 0
 182.4 -26 101.4 16 51.4004 99 c 1
 30.4004 132 20.4004 171 20.4004 216 c 0
 20.4004 232 20.4004 240 22.4004 242 c 1
 26.4004 287 38.4004 327 59.4004 363 c 0
 80.4004 398 113.4 441 158.4 492 c 1
 201.4 535 240.4 570 276.4 599 c 1
 258.4 618 l 1
319.4 557 m 1
 237.4 465 195.4 375 193.4 286 c 1
 193.4 269 l 2
 193.4 186 222.4 126 281.4 89 c 0
 307.4 72 334.4 63 363.4 61 c 1
 367.4 61 l 2
 414.4 61 452.4 77 483.4 110 c 128
 514.4 143 529.4 189 529.4 246 c 128
 529.4 303 498.4 367 437.4 437 c 0
 421.4 458 382.4 498 319.4 557 c 1
EndSplineSet
Substitution2: "'onum' Oldstyle Figures lookup 1-1" eight.osf
Colour: ffffff
EndChar

StartChar: nine
Encoding: 26 57 25
Width: 748
VWidth: 1655
GlyphClass: 2
Flags: HMW
LayerCount: 2
Fore
SplineSet
361.4 1090 m 0
 262.4 1090 207.4 1003 193.4 830 c 1
 193.4 812 l 1
 191.4 806 191.4 801 191.4 794 c 0
 191.4 682 224.4 609 291.4 574 c 0
 316.4 561 343.4 555 372.4 555 c 0
 376.4 555 391.4 557 418.4 561 c 128
 445.4 565 469.4 571 492.4 583 c 128
 515.4 595 530.4 602 538.4 609 c 128
 546.4 616 553.4 624 562.4 636 c 1
 562.4 681 l 2
 562.4 782 551.4 866 529.4 933 c 0
 496.4 1038 440.4 1090 361.4 1090 c 0
726.4 739 m 2
 726.4 632 714.4 534 689.4 445 c 128
 664.4 356 620.4 270 558.4 188 c 1
 453.4 53 341.4 -14 223.4 -14 c 2
 216.4 -14 l 2
 182.4 -14 150.4 -7 120.4 6 c 128
 90.4004 19 67.4004 38 48.4004 64 c 128
 29.4004 90 20.4004 120 20.4004 153 c 0
 20.4004 157 21.4004 166 24.4004 184 c 1
 36.4004 229 62.4004 263 103.4 284 c 1
 123.4 248 149.4 217 180.4 191 c 1
 230.4 157 273.4 140 310.4 141 c 0
 324.4 141 332.4 141 335.4 142 c 1
 396.4 148 445.4 181 484.4 242 c 1
 512.4 289 532.4 357 546.4 448 c 0
 547.4 452 550.4 488 557.4 557 c 1
 532.4 522 499.4 494 457.4 472 c 128
 415.4 450 372.4 438 329.4 434 c 1
 324.4 432 309.4 432 281.4 432 c 128
 253.4 432 220.4 441 182.4 460 c 128
 144.4 479 114.4 503 93.4004 534 c 1
 57.4004 583 39.4004 647 40.4004 726 c 0
 40.4004 827 67.4004 920 121.4 1005 c 0
 155.4 1057 196.4 1098 245.4 1130 c 128
 294.4 1162 347.4 1178 404.4 1180 c 1
 413.4 1180 l 2
 465.4 1180 513.4 1167 556.4 1143 c 128
 599.4 1119 634.4 1084 661.4 1039 c 1
 700.4 975 721.4 891 726.4 788 c 1
 726.4 739 l 2
EndSplineSet
Substitution2: "'onum' Oldstyle Figures lookup 1-1" nine.osf
Colour: ffffff
EndChar

StartChar: colon
Encoding: 27 58 26
Width: 336
VWidth: 1655
GlyphClass: 2
Flags: HMW
LayerCount: 2
Fore
SplineSet
313.251 755 m 0
 313.251 753 312.251 744 310.251 726 c 1
 302.251 695 288.251 672 268.251 653 c 128
 248.251 634 225.251 625 199.251 625 c 128
 173.251 625 152.251 632 139.251 646 c 128
 126.251 660 119.251 676 115.251 696 c 1
 113.251 698 113.251 701 113.251 708 c 128
 113.251 715 114.251 728 118.251 750 c 128
 122.251 772 135.251 794 156.251 815 c 128
 177.251 836 202.251 846 229.251 847 c 128
 256.251 848 277.251 839 292.251 820 c 128
 307.251 801 313.251 779 313.251 755 c 0
206.251 165 m 1
 219.251 147 224.251 132 225.251 120 c 128
 226.251 108 225.251 95 222.251 77 c 1
 215.251 50 202.251 27 181.251 5 c 128
 160.251 -17 135.251 -28 108.251 -28 c 1
 85.251 -26 66.251 -18 52.251 -3 c 1
 32.251 17 22.251 41 24.251 68 c 0
 24.251 104 37.251 134 62.251 159 c 128
 87.251 184 109.251 195 129.251 196 c 128
 149.251 197 164.251 196 174.251 191 c 128
 184.251 186 194.251 178 206.251 165 c 1
EndSplineSet
Colour: ffffff
EndChar

StartChar: semicolon
Encoding: 28 59 27
Width: 417
VWidth: 1655
GlyphClass: 2
Flags: HMW
LayerCount: 2
Fore
SplineSet
130.8 181 m 1
 153.8 194 174.8 200 195.8 200 c 2
 205.8 200 l 1
 252.8 194 285.8 164 305.8 109 c 1
 314.8 82 318.8 63 319.8 51 c 128
 320.8 39 317.8 18 313.8 -11 c 128
 309.8 -40 295.8 -70 272.8 -103 c 0
 224.8 -172 150.8 -231 51.7998 -280 c 1
 22.7998 -230 l 1
 55.7998 -210 77.7998 -196 89.7998 -187 c 128
 101.8 -178 116.8 -160 137.8 -134 c 128
 158.8 -108 169.8 -76 169.8 -40 c 0
 169.8 -38 167.8 -28 163.8 -9 c 128
 159.8 10 148.8 30 130.8 50 c 128
 112.8 70 93.7998 87 72.7998 101 c 1
 80.7998 133 99.7998 160 130.8 181 c 1
374.8 815 m 1
 387.8 797 392.8 782 393.8 770 c 128
 394.8 758 393.8 744 391.8 726 c 1
 383.8 695 370.8 672 350.8 653 c 128
 330.8 634 308.8 625 281.8 625 c 128
 254.8 625 235.8 632 221.8 646 c 0
 201.8 667 191.8 691 192.8 719 c 0
 192.8 754 204.8 785 229.8 810 c 128
 254.8 835 277.8 846 297.8 847 c 128
 317.8 848 331.8 846 341.8 841 c 128
 351.8 836 362.8 829 374.8 815 c 1
EndSplineSet
Colour: ffffff
EndChar

StartChar: less
Encoding: 29 60 28
Width: 699
VWidth: 1655
GlyphClass: 2
Flags: HMW
LayerCount: 2
Fore
SplineSet
20.4004 419 m 1
 27.4004 446 l 1
 635.4 952 l 1
 679.4 883 l 1
 255.4 446 l 1
 558.4 -13 l 1
 485.4 -81 l 1
 20.4004 419 l 1
EndSplineSet
Colour: ffffff
EndChar

StartChar: equal
Encoding: 30 61 29
Width: 718
VWidth: 1655
GlyphClass: 2
Flags: HMW
LayerCount: 2
Fore
SplineSet
51 416 m 1
 654 416 l 1
 626 311 l 1
 24 311 l 1
 51 416 l 1
92 651 m 1
 693 651 l 1
 665 546 l 1
 64 546 l 1
 92 651 l 1
EndSplineSet
Colour: ffffff
EndChar

StartChar: greater
Encoding: 31 62 30
Width: 718
VWidth: 1655
GlyphClass: 2
Flags: HMW
LayerCount: 2
Fore
SplineSet
694.4 419 m 1
 70.4004 -81 l 1
 20.4004 -13 l 1
 465.4 446 l 1
 180.4 883 l 1
 246.4 952 l 1
 696.4 446 l 1
 694.4 419 l 1
EndSplineSet
Colour: ffffff
EndChar

StartChar: question
Encoding: 32 63 31
Width: 592
VWidth: 1655
GlyphClass: 2
Flags: HMW
LayerCount: 2
Fore
SplineSet
191.4 206 m 128
 203.4 200 213.4 192 223.4 178 c 128
 233.4 164 238.4 154 241.4 143 c 128
 244.4 132 245.4 125 245.4 120 c 128
 245.4 115 243.4 100 237.4 73 c 128
 231.4 46 217.4 22 194.4 -1 c 128
 171.4 -24 144.4 -35 114.4 -35 c 1
 87.4004 -33 67.4004 -24 51.4004 -8 c 128
 35.4004 8 27.4004 24 24.4004 42 c 128
 21.4004 60 20.4004 68 20.4004 71 c 128
 20.4004 74 22.4004 86 27.4004 108 c 128
 32.4004 130 44.4004 153 67.4004 176 c 128
 90.4004 199 113.4 211 137.4 212 c 128
 161.4 213 179.4 212 191.4 206 c 128
99.4004 504 m 1
 94.4004 555 l 1
 94.4004 595 105.4 631 128.4 662 c 128
 151.4 693 174.4 715 197.4 730 c 128
 220.4 745 250.4 759 288.4 775 c 128
 326.4 791 354.4 804 373.4 816 c 128
 392.4 828 410.4 844 430.4 866 c 128
 450.4 888 460.4 913 463.4 941 c 0
 463.4 945 463.4 947 464.4 951 c 1
 464.4 959 l 2
 464.4 1012 440.4 1057 391.4 1092 c 1
 371.4 1105 355.4 1112 341.4 1114 c 128
 327.4 1116 321.4 1117 320.4 1118 c 1
 311.4 1118 l 2
 276.4 1118 240.4 1110 203.4 1093 c 128
 166.4 1076 139.4 1061 122.4 1045 c 1
 111.4 1050 102.4 1057 93.4004 1069 c 1
 75.4004 1089 67.4004 1107 67.4004 1125 c 128
 67.4004 1143 67.4004 1153 69.4004 1156 c 1
 77.4004 1204 108.4 1242 162.4 1269 c 0
 194.4 1285 228.4 1292 264.4 1292 c 2
 285.4 1292 l 1
 344.4 1288 396.4 1269 440.4 1234 c 128
 484.4 1199 517.4 1154 538.4 1101 c 128
 559.4 1048 570.4 1000 570.4 957 c 128
 570.4 914 568.4 884 563.4 864 c 0
 550.4 801 517.4 746 463.4 699 c 1
 428.4 669 385.4 646 336.4 628 c 1
 301.4 614 280.4 604 270.4 594 c 128
 260.4 584 250.4 574 240.4 562 c 0
 222.4 543 214.4 513 213.4 472 c 0
 213.4 464 213.4 457 215.4 451 c 1
 215.4 430 l 2
 215.4 428 216.4 414 220.4 385 c 1
 142.4 369 l 1
 119.4 428 105.4 473 99.4004 504 c 1
EndSplineSet
Colour: ffffff
EndChar

StartChar: at
Encoding: 33 64 32
Width: 1304
VWidth: 1655
GlyphClass: 2
Flags: HMW
LayerCount: 2
Fore
SplineSet
776.422 602 m 1
 735.422 663 694.422 693 653.422 693 c 2
 646.422 693 l 2
 626.422 693 607.422 687 586.422 673 c 128
 565.422 659 550.422 644 539.422 625 c 1
 522.422 600 506.422 553 490.422 485 c 128
 474.422 417 467.422 363 467.422 320 c 2
 467.422 307 l 2
 467.422 284 468.422 263 471.422 244 c 128
 474.422 225 477.422 214 479.422 210 c 128
 481.422 206 483.422 203 487.422 199 c 128
 491.422 195 492.422 194 493.422 193 c 128
 494.422 192 496.422 191 500.422 188 c 0
 505.422 183 513.422 181 525.422 181 c 128
 537.422 181 551.422 186 567.422 198 c 128
 583.422 210 601.422 228 622.422 253 c 128
 643.422 278 671.422 326 706.422 398 c 128
 741.422 470 764.422 538 776.422 602 c 1
715.422 83 m 128
 703.422 98 698.422 124 698.422 159 c 128
 698.422 194 708.422 242 728.422 305 c 1
 716.422 307 l 1
 691.422 254 667.422 211 643.422 177 c 128
 619.422 143 590.422 115 557.422 93 c 128
 524.422 71 490.422 60 456.422 60 c 128
 422.422 60 393.422 74 369.422 104 c 128
 345.422 134 333.422 167 329.422 204 c 1
 327.422 210 327.422 224 327.422 249 c 128
 327.422 274 334.422 323 350.422 395 c 0
 380.422 532 448.422 646 555.422 738 c 1
 600.422 773 641.422 790 679.422 790 c 128
 717.422 790 753.422 771 788.422 733 c 1
 802.422 731 l 1
 808.422 802 l 1
 827.422 809 l 1
 932.422 778 l 1
 871.422 463 l 1
 856.422 356 849.422 301 847.422 296 c 1
 844.422 253 l 2
 842.422 218 841.422 201 841.422 199 c 2
 841.422 188 l 2
 841.422 184 842.422 181 847.422 176 c 128
 852.422 171 856.422 168 861.422 168 c 128
 866.422 168 869.422 168 871.422 170 c 1
 879.422 170 l 1
 895.422 172 906.422 173 912.422 175 c 128
 918.422 177 924.422 177 931.422 179 c 128
 938.422 181 942.422 182 944.422 183 c 128
 946.422 184 949.422 185 955.422 187 c 128
 961.422 189 965.422 190 968.422 192 c 128
 971.422 194 974.422 196 979.422 199 c 128
 984.422 202 988.422 204 992.422 208 c 128
 996.422 212 1000.42 214 1006.42 218 c 0
 1059.42 262 1095.42 310 1116.42 362 c 128
 1137.42 414 1147.42 478 1147.42 553 c 0
 1148.42 720 1079.42 840 939.422 913 c 1
 872.422 946 801.422 962 724.422 961 c 0
 619.422 961 523.422 932 438.422 876 c 128
 353.422 820 288.422 745 245.422 651 c 1
 200.422 557 177.422 458 177.422 355 c 128
 177.422 252 198.422 164 240.422 90 c 128
 282.422 16 342.422 -39 419.422 -78 c 128
 496.422 -117 582.422 -137 677.422 -137 c 2
 698.422 -137 l 1
 741.422 -136 789.422 -130 840.422 -117 c 128
 891.422 -104 935.422 -88 973.422 -67 c 0
 1017.42 -44 1044.42 -29 1054.42 -21 c 1
 1090.42 -75 l 1
 1081.42 -80 l 1
 1020.42 -139 949.422 -178 867.422 -199 c 128
 785.422 -220 717.422 -230 663.422 -230 c 2
 649.422 -230 l 2
 543.422 -230 442.422 -210 346.422 -170 c 128
 250.422 -130 175.422 -72 118.422 3 c 1
 52.4229 93 19.4229 202 20.4229 331 c 128
 21.4229 460 52.4229 581 115.422 692 c 128
 178.422 803 266.422 890 377.422 955 c 128
 488.422 1020 613.422 1052 750.422 1052 c 2
 759.422 1052 l 1
 857.422 1049 945.422 1029 1025.42 991 c 128
 1105.42 953 1168.42 899 1214.42 828 c 128
 1260.42 757 1282.42 679 1283.42 594 c 1
 1283.42 583 l 2
 1283.42 498 1262.42 416 1221.42 340 c 128
 1180.42 264 1124.42 200 1052.42 148 c 128
 980.422 96 903.422 64 821.422 52 c 1
 817.422 50 809.422 50 795.422 51 c 1
 762.422 54 l 1
 742.422 59 727.422 68 715.422 83 c 128
EndSplineSet
Colour: ffffff
EndChar

StartChar: A
Encoding: 34 65 33
Width: 1289
VWidth: 1655
GlyphClass: 2
Flags: HMW
LayerCount: 2
Fore
SplineSet
823 505 m 1
 735 1062 l 1
 731 1062 l 1
 700 911 617 655 575 536 c 1
 823 505 l 1
879 1271 m 1
 1087 132 l 1
 1265 81 l 1
 1242 0 l 1
 666 0 l 1
 689 72 l 1
 887 108 l 1
 835 432 l 1
 544 446 l 1
 511 310 366 -28 197 -28 c 3
 114 -28 46 35 24 101 c 1
 417 253 595 765 699 1241 c 1
 879 1271 l 1
EndSplineSet
Colour: ffffff
EndChar

StartChar: B
Encoding: 35 66 34
Width: 1200
VWidth: 1655
GlyphClass: 2
Flags: HMW
LayerCount: 2
Fore
SplineSet
1174.75 385.872 m 0
 1174.75 76.3555 828.895 -16.4268 542.056 -16.4268 c 0
 446.995 -16.4268 352.498 -6.46191 267.6 10 c 1
 423.6 1121 l 1
 189.6 1128 l 1
 208.6 1205 l 1
 386.921 1256.2 572.37 1280.67 731.703 1280.67 c 0
 977.134 1280.67 1160.6 1184.23 1160.6 1005 c 0
 1160.6 811.779 1023.66 692.616 912.6 659 c 1
 912.6 643.479 l 1
 1064.91 614.959 1174.75 536.459 1174.75 385.872 c 0
531.6 595 m 1
 468.6 121 l 1
 531.667 105.605 589.056 97.9238 640.705 97.9238 c 0
 856.918 97.9238 967.6 178.484 967.6 338 c 0
 967.6 434.669 901.192 549.162 732.6 571.323 c 2
 531.6 595 l 1
824.803 651.985 m 1
 911.686 706.239 967.6 789.82 967.6 920 c 0
 967.6 1099.16 792.491 1209.21 613.6 1194 c 1
 542.6 668 l 1
 824.803 651.985 l 1
EndSplineSet
Colour: ffffff
EndChar

StartChar: C
Encoding: 36 67 35
Width: 906
VWidth: 1655
GlyphClass: 2
Flags: HMW
LayerCount: 2
Back
SplineSet
799.832 -32 m 1
 824 161 l 25
 843 340 l 1
 826.34 340 l 1
 732.606 138.418 597.241 -33 376 -33 c 0
 144.532 -33 20 158.975 20 444 c 0
 20 915.719 342.689 1263.74 845.451 1263.74 c 4
 910.092 1263.74 977.709 1257.98 1048 1246 c 5
 968 835 l 5
 882 848 l 5
 850 1111 l 5
 784.415 1125.46 725.961 1132.06 673.866 1132.06 c 4
 275.589 1132.06 249 746.008 249 532 c 0
 249 279 309.469 87 440 87 c 0
 566.451 87 744.221 257.748 820 448.108 c 1
 820 463 l 1
 594 456 l 1
 613 532 l 1
 728.104 562.242 843.854 579.227 967.155 579.227 c 0
 1018.15 579.227 1070.29 576.882 1124 572 c 1
 1104 497 l 1
 989 465 l 1
 968 299 l 17
 986 23 l 1
 983 6 l 1
 799.832 -32 l 1
EndSplineSet
Fore
SplineSet
947 1246 m 1
 877 815 l 1
 781 828 l 1
 749 1101 l 1
 700.441 1111.52 656.038 1116.58 615.541 1116.58 c 0
 352.195 1116.58 254.01 902.444 252 581 c 0
 252 343.886 313 135 479 135 c 0
 601 135 798.557 244.913 885 370 c 1
 947 328 l 1
 863.991 177.413 620.757 -30 392 -30 c 128
 130 -30 24 237 24 496 c 0
 24 862.006 328.072 1261.65 787.13 1261.65 c 0
 838.546 1261.65 891.906 1256.64 947 1246 c 1
EndSplineSet
Colour: ffffff
EndChar

StartChar: D
Encoding: 37 68 36
Width: 1350
VWidth: 1655
GlyphClass: 2
Flags: HMW
LayerCount: 2
Fore
SplineSet
405.8 106 m 1
 833.448 106 1091.8 262.977 1091.8 672 c 128
 1091.8 987.994 861.49 1197.07 532.8 1171 c 1
 405.8 106 l 1
193.8 0 m 1
 335.8 1068 l 1
 118.8 1105 l 1
 139.8 1176 l 1
 305.239 1235.56 505.365 1275.35 695.043 1275.35 c 0
 1010.85 1275.35 1294.8 1141.88 1294.8 752 c 0
 1294.8 163.5 811.157 -33 193.8 0 c 1
EndSplineSet
Colour: ffffff
EndChar

StartChar: E
Encoding: 38 69 37
Width: 1237
VWidth: 1655
GlyphClass: 2
Flags: HMW
LayerCount: 2
Fore
SplineSet
1074 0 m 5
 706 2 499 3 456 3 c 5
 24 -3 l 5
 47 80 l 5
 265 134 l 5
 390 1094 l 5
 163 1117 l 5
 183 1192 l 5
 261 1208 371 1220 516 1233 c 132
 661 1246 794 1252 916 1252 c 5
 1213 1246 l 5
 1133 835 l 5
 1047 848 l 5
 1015 1111 l 5
 987 1117 l 5
 892 1136 769 1145 618 1143 c 6
 585 1143 l 5
 530 680 l 5
 985 714 l 5
 951 569 l 5
 518 578 l 5
 456 98 l 5
 673 108 l 6
 795 115 879 122 924 132 c 5
 947 169 973 222 1004 292 c 132
 1035 362 1054 415 1064 451 c 5
 1151 440 l 5
 1151 434 l 6
 1151 345 1144 262 1130 182 c 132
 1116 102 1098 41 1074 0 c 5
EndSplineSet
Colour: ffffff
EndChar

StartChar: F
Encoding: 39 70 38
Width: 1237
VWidth: 1655
GlyphClass: 2
Flags: HMW
LayerCount: 2
Fore
SplineSet
916 1252 m 1
 1213 1246 l 1
 1133 818 l 1
 1038 832 l 1
 1010 1102 l 1
 978 1107 l 1
 885 1123 775 1134 647 1142 c 1
 585 1143 l 1
 530 637 l 1
 985 670 l 1
 951 519 l 1
 516 537 l 1
 462 109 l 1
 712 80 l 1
 692 -2 l 1
 24 -2 l 1
 47 80 l 1
 265 134 l 1
 390 1094 l 1
 163 1117 l 1
 183 1192 l 1
 261 1208 372 1220 516 1233 c 128
 660 1246 794 1252 916 1252 c 1
EndSplineSet
Colour: ffffff
EndChar

StartChar: G
Encoding: 40 71 39
Width: 1152
VWidth: 1655
GlyphClass: 2
Flags: HMW
LayerCount: 2
Back
SplineSet
856 0 m 5
 816 310 l 5
 799.34 310 l 5
 709.978 124.631 580.925 -33 370 -33 c 4
 138.532 -33 14 158.974 14 444 c 4
 14 976.369 425 1351.18 1042 1246 c 5
 962 835 l 5
 876 848 l 5
 844 1111 l 5
 277 1236 243 774 243 532 c 4
 243 279 303.468 87 434 87 c 4
 557.124 87 730.215 257.748 804 448.108 c 5
 804 463 l 5
 578 456 l 5
 597 532 l 5
 715.354 562.242 834.373 579.227 961.155 579.227 c 4
 1012.15 579.227 1064.3 576.881 1118 572 c 5
 1098 497 l 5
 969 465 l 5
 982 46 l 5
 856 0 l 5
EndSplineSet
Fore
SplineSet
803.832 -32 m 1
 828 161 l 25
 847 340 l 1
 830.34 340 l 1
 736.606 138.418 601.241 -33 380 -33 c 0
 148.532 -33 24 158.975 24 444 c 0
 24 915.719 346.689 1263.74 849.451 1263.74 c 0
 914.092 1263.74 981.709 1257.98 1052 1246 c 1
 972 835 l 1
 886 848 l 1
 854 1105 l 5
 287 1228.7 253 771.492 253 532 c 0
 253 290.371 313.469 107 444 107 c 0
 570.451 107 748.221 268.291 824 448.108 c 1
 824 463 l 1
 598 456 l 1
 617 532 l 1
 732.104 562.242 847.854 579.227 971.155 579.227 c 0
 1022.15 579.227 1074.29 576.882 1128 572 c 1
 1108 497 l 1
 993 465 l 1
 972 299 l 17
 990 23 l 1
 987 6 l 1
 803.832 -32 l 1
EndSplineSet
Colour: ffff00
EndChar

StartChar: H
Encoding: 41 72 40
Width: 1599
VWidth: 1655
GlyphClass: 2
Flags: HMW
LayerCount: 2
Fore
SplineSet
1164 1113 m 1
 936 1122 l 1
 954 1197 l 1
 1111 1228 1268 1244 1423 1245 c 0
 1475 1245 1526 1243 1575 1239 c 1
 1557 1163 l 1
 1352 1109 l 1
 1236 129 l 1
 1447 81 l 1
 1426 0 l 1
 799 0 l 1
 818 78 l 1
 1040 113 l 1
 1101 600 l 1
 513 567 l 1
 456 106 l 1
 667 81 l 1
 643 0 l 1
 24 0 l 1
 42 78 l 1
 265 129 l 1
 388 1090 l 1
 162 1123 l 1
 181 1199 l 1
 289 1222 378 1235 444 1239 c 128
 510 1243 572 1245 629 1245 c 128
 686 1245 744 1243 802 1239 c 1
 782 1164 l 1
 583 1142 l 1
 528 680 l 1
 1113 701 l 1
 1164 1113 l 1
EndSplineSet
Colour: ffffff
EndChar

StartChar: I
Encoding: 42 73 41
Width: 826
VWidth: 1655
GlyphClass: 2
Flags: HMW
LayerCount: 2
Fore
SplineSet
650 0 m 5
 24 0 l 5
 42 78 l 5
 265 129 l 5
 388 1090 l 5
 162 1123 l 5
 181 1199 l 5
 329 1230 483 1246 645 1246 c 4
 688 1246 740 1244 802 1239 c 5
 782 1164 l 5
 583 1142 l 5
 456 106 l 5
 674 81 l 5
 650 0 l 5
EndSplineSet
Colour: ffffff
EndChar

StartChar: J
Encoding: 43 74 42
Width: 1029
VWidth: 1655
GlyphClass: 2
Flags: HMW
LayerCount: 2
Fore
SplineSet
216.446 -375 m 128
 90.2021 -375 24 -297.298 24 -208.19 c 0
 24 -163.189 40.8848 -115.28 75.4463 -73 c 1
 176.009 -147.868 264.088 -194 363.446 -194 c 0
 394.06 -194 417.819 -180.699 428.446 -148 c 0
 461.399 -28 504.446 302 537.446 589 c 2
 594.446 1087 l 1
 369.446 1117 l 1
 385.446 1194 l 1
 493.446 1220 606.446 1236 724.446 1243 c 1
 771.446 1247 819.446 1248 866.446 1248 c 128
 913.446 1248 960.446 1247 1006.45 1243 c 1
 987.446 1166 l 1
 792.446 1142 l 1
 697.446 385 l 2
 676.446 214 627.6 -38.5771 551.95 -175 c 0
 455.446 -328 340.253 -375 216.446 -375 c 128
EndSplineSet
Colour: ffffff
EndChar

StartChar: K
Encoding: 44 75 43
Width: 1168
VWidth: 1655
GlyphClass: 2
InSpiro: 1
Flags: HMW
LayerCount: 2
Fore
SplineSet
625 520 m 1
 555 587 l 1
 558 631 l 1
 631.602 657.495 701.451 694.831 763.301 742.724 c 0
 810.83 779.527 853.293 823.104 887.129 872.788 c 0
 919.475 920.286 943.794 972.858 963.579 1026.81 c 0
 992.607 1105.97 1013.59 1187.91 1030.26 1270.56 c 1
 1062.25 1272.57 1094.79 1264.81 1122.4 1248.54 c 0
 1155.8 1228.86 1181.5 1196.62 1193.57 1159.79 c 0
 1202 1134.07 1203.95 1106.41 1200.47 1079.57 c 0
 1197 1052.73 1188.26 1026.73 1176.3 1002.45 c 0
 1144.9 938.688 1093.58 886.868 1039.35 840.925 c 0
 948.282 763.776 846.919 699.655 744.23 638.826 c 1
 979.078 244.371 l 2
 1008.92 194.243 1037.78 143.067 1075.4 98.4785 c 0
 1100.75 68.4336 1130.99 41.9971 1166.27 24.6562 c 0
 1201.55 7.31641 1240.96 0.59375 1280 -3.99902 c 2
 1314 -7.99902 l 1
 1292 -88 l 1
 1242.04 -110.38 1187.13 -121.816 1132.4 -120.521 c 0
 1094.9 -119.634 1057.47 -112.673 1022.48 -99.1504 c 0
 974.32 -80.5371 931.444 -49.084 897.913 -9.82227 c 0
 864.382 29.4395 840.631 75.9258 818.078 122.371 c 2
 625 520 l 1
  Spiro
    625 520 v
    555 587 v
    558 631 v
    763.301 742.724 o
    887.129 872.788 o
    963.579 1026.81 o
    1030.26 1270.56 v
    1122.4 1248.54 o
    1193.57 1159.79 o
    1176.3 1002.45 o
    1039.35 840.925 o
    744.23 638.826 v
    979.078 244.371 ]
    1075.4 98.479 o
    1280 -3.9995 [
    1314 -7.9995 v
    1292 -88 v
    1132.4 -120.521 o
    1022.48 -99.15 o
    818.078 122.371 [
    0 0 z
  EndSpiro
610 0 m 1
 24 0 l 1
 42 78 l 1
 265 129 l 1
 388 1090 l 1
 162 1123 l 1
 181 1199 l 1
 238.161 1213.16 296.122 1224.08 354.504 1231.79 c 0
 413.949 1239.63 473.817 1244.17 533.754 1245.86 c 0
 609.882 1248.01 686.131 1245.64 762 1239 c 1
 742 1161 l 1
 583 1139 l 1
 456 110 l 1
 634 85 l 1
 610 0 l 1
  Spiro
    610 0 v
    24 0 v
    42 78 v
    265 129 v
    388 1090 v
    162 1123 v
    181 1199 v
    354.504 1231.79 o
    533.754 1245.86 o
    762 1239 v
    742 1161 v
    583 1139 v
    456 110 v
    634 85 v
    0 0 z
  EndSpiro
EndSplineSet
Colour: ffff00
EndChar

StartChar: L
Encoding: 45 76 44
Width: 1177
VWidth: 1655
GlyphClass: 2
Flags: HMW
LayerCount: 2
Fore
SplineSet
1074 0 m 1
 706 2 499 3 456 3 c 1
 24 -3 l 1
 47 80 l 1
 265 134 l 1
 390 1094 l 1
 163 1117 l 1
 183 1192 l 1
 301 1228 447 1246 621 1246 c 0
 659 1246 705 1245 760 1241 c 128
 815 1237 844 1236 850 1236 c 1
 836 1155 l 1
 589 1132 l 1
 456 106 l 1
 673 116 l 1
 771 122 850 129 909 139 c 1
 950 183 1000 293 1059 470 c 1
 1151 456 l 1
 1151 448 1151 441 1153 434 c 1
 1153 408 l 2
 1153 335 1145 259 1130 179 c 128
 1115 99 1097 39 1074 0 c 1
EndSplineSet
Colour: ffffff
EndChar

StartChar: M
Encoding: 46 77 45
Width: 1731
VWidth: 1655
GlyphClass: 2
Flags: HMW
LayerCount: 2
Fore
SplineSet
1391 186 m 0
 1391 151 1402 134 1423 134 c 0
 1425 134 1431 136 1445 140 c 128
 1459 144 1475 157 1495 178 c 128
 1515 199 1542 232 1577 279 c 1
 1625 244 l 1
 1599 145 1542 68 1453 13 c 1
 1408 -14 1363 -28 1316 -29 c 128
 1269 -30 1236 -20 1216 0 c 128
 1196 20 1187 50 1187 89 c 0
 1187 95 1187 99 1189 103 c 1
 1189 114 l 1
 1191 159 1198 235 1212 343 c 2
 1294 999 l 1
 1218 814 1143 645 1069 492 c 128
 995 339 932 224 883 146 c 0
 877 137 856 106 820 52 c 1
 692 33 l 1
 451 999 l 1
 448 999 l 1
 429 486 l 2
 424 374 417 291 406 236 c 128
 395 181 374 129 341 78 c 0
 294 6 240 -30 179 -31 c 0
 152 -31 127 -25 104 -12 c 128
 81 1 63 19 49 41 c 128
 35 63 28 80 24 94 c 1
 100 128 159 174 202 233 c 0
 281 345 327 555 343 864 c 1
 345 925 346 994 347 1071 c 1
 120 1125 l 1
 143 1201 l 1
 302 1231 448 1246 584 1248 c 1
 639 1055 l 1
 823 343 l 1
 1216 1068 l 1
 1309 1231 l 1
 1322 1234 1351 1236 1398 1240 c 128
 1445 1244 1494 1246 1544 1246 c 128
 1594 1246 1648 1243 1707 1236 c 1
 1684 1158 l 1
 1467 1101 l 1
 1396 287 l 1
 1394 252 1393 233 1393 227 c 2
 1393 207 l 1
 1391 201 1391 195 1391 186 c 0
EndSplineSet
Colour: ffffff
EndChar

StartChar: N
Encoding: 47 78 46
Width: 1541
VWidth: 1655
GlyphClass: 2
Flags: HMW
LayerCount: 2
Fore
SplineSet
1027 -31 m 1
 472 999 l 1
 469 999 l 1
 450 486 l 1
 438.735 249.433 388.438 -31 167 -31 c 1
 108 -25 67 1 42 49 c 1
 33 69 28 87 24 103 c 1
 105 140 170.532 185.022 213 242 c 0
 333 403 357 791 369 1071 c 1
 143 1125 l 1
 165 1201 l 1
 332.528 1235.23 417 1244 574 1246 c 1
 662 1078 l 1
 1097 274 l 1
 1168 1106 l 1
 941 1122 l 1
 961 1197 l 1
 1129.21 1233.85 1214.04 1245 1374 1245 c 128
 1421 1245 1469 1243 1517 1239 c 1
 1496 1163 l 1
 1291 1109 l 1
 1187 2 l 1
 1027 -31 l 1
EndSplineSet
Colour: ffffff
EndChar

StartChar: O
Encoding: 48 79 47
Width: 1114
VWidth: 1655
GlyphClass: 2
Flags: HMW
LayerCount: 2
Fore
SplineSet
233 639 m 128
 233 395.097 328.526 120 576 120 c 0
 788.408 120 883 376.643 883 625 c 0
 883 875.887 777.023 1130 521 1130 c 128
 305.269 1130 233 879.592 233 639 c 128
1090 744 m 1
 1088 596 1053 457 985 325 c 1
 879.599 125.149 732.921 -28 468 -28 c 128
 190.373 -28 24 222.419 24 505 c 0
 24 906.486 251.087 1275 647 1275 c 0
 932.477 1275 1090 1029.2 1090 744 c 1
  Spiro
    1090 744 v
    1077.02 599.068 o
    1041.95 459.271 o
    985 325 v
    900.869 194.079 o
    802.451 92.6173 o
    691 21 o
    621.701 -6.34859 o
    547.294 -22.6404 o
    468 -28 o
    388.078 -19.9791 o
    311.926 4.32875 o
    240 45 o
    175.688 98.9779 o
    122.323 163.366 o
    80 238 o
    49.0619 321.136 o
    30.2837 410.536 o
    24 505 o
    43.5 703 o
    102 886 o
    161.23 995.49 o
    235.118 1090.16 o
    323 1169 o
    422.452 1227.99 o
    530.89 1263.32 o
    647 1275 o
    734.324 1266.31 o
    815.003 1240 o
    889 1196 o
    953.534 1138.73 o
    1005.12 1072.6 o
    1043 998 o
    1068.94 917.711 o
    1084.71 834.286 o
    1090 748 [
    0 0 z
  EndSpiro
EndSplineSet
Colour: ffffff
EndChar

StartChar: P
Encoding: 49 80 48
Width: 1126
VWidth: 1655
GlyphClass: 2
Flags: HMW
LayerCount: 2
Fore
SplineSet
556 534 m 1
 595 538 632 543 669 553 c 1
 768 576 845 615 899 670 c 128
 953 725 980 795 980 881 c 128
 980 967 950 1040 891 1100 c 128
 832 1160 750 1191 647 1191 c 0
 627 1191 608 1190 589 1186 c 1
 455 116 l 1
 683 84 l 1
 659 0 l 1
 24 0 l 1
 42 78 l 1
 258 132 l 1
 381 1066 l 1
 165 1089 l 1
 181 1158 l 1
 378 1227 566 1261 743 1262 c 0
 882 1262 989 1232 1063 1172 c 128
 1137 1112 1174 1025 1174 913 c 0
 1174 798 1122 697 1017 610 c 0
 966 569 902 534 824 506 c 128
 746 478 659 460 562 451 c 1
 556 534 l 1
EndSplineSet
Colour: ffffff
EndChar

StartChar: Q
Encoding: 50 81 49
Width: 1123
VWidth: 1655
GlyphClass: 2
Flags: HMW
LayerCount: 2
Fore
SplineSet
641.02 1275 m 2
 662.02 1275 l 1
 806.02 1267 913.02 1204 985.02 1085 c 1
 1046.02 984 1076.02 868 1076.02 736 c 0
 1076.02 681 1070.02 621 1056.02 555 c 0
 1030.02 427 984.02 317 918.02 223 c 128
 852.02 129 767.02 59 663.02 14 c 1
 672.02 -55 703.02 -111 756.02 -155 c 0
 794.02 -186 836.02 -202 883.02 -202 c 2
 888.02 -202 l 2
 914.02 -202 945.02 -196 980.02 -183 c 128
 1015.02 -170 1048.02 -154 1078.02 -134 c 1
 1100.02 -216 l 1
 1025.02 -317 929.02 -373 815.02 -385 c 1
 800.02 -385 l 1
 795.02 -387 791.02 -387 785.02 -386 c 0
 709.02 -386 648.02 -362 604.02 -314 c 128
 560.02 -266 535.02 -201 529.02 -120 c 1
 529.02 -103 l 1
 527.02 -98 527.02 -89 528.02 -74 c 128
 529.02 -59 529.02 -42 533.02 -21 c 1
 513.02 -25 489.02 -26 460.02 -26 c 128
 431.02 -26 403.02 -22 374.02 -14 c 1
 283.02 8 206.02 58 141.02 135 c 0
 62.0186 231 23.0186 364 24.0186 534 c 0
 24.0186 770 101.019 962 254.02 1109 c 0
 320.02 1172 394.02 1217 477.02 1246 c 1
 529.02 1266 584.02 1275 641.02 1275 c 2
348.02 1052 m 0
 265.02 965 223.02 832 225.02 651 c 0
 225.02 498 246.02 378 289.02 293 c 1
 324.02 224 373.02 175 435.02 144 c 1
 470.02 125 502.02 116 528.02 116 c 128
 554.02 116 569.02 116 574.02 118 c 1
 624.02 124 668.02 140 707.02 168 c 0
 776.02 219 823.02 294 849.02 395 c 1
 867.02 454 875.02 523 875.02 602 c 0
 875.02 607 874.02 634 872.02 683 c 1
 858.02 872 801.02 1004 700.02 1078 c 1
 653.02 1115 599.02 1133 538.02 1132 c 0
 463.02 1133 400.02 1106 348.02 1052 c 0
EndSplineSet
Colour: ffffff
EndChar

StartChar: R
Encoding: 51 82 50
Width: 1271
VWidth: 1655
GlyphClass: 2
Flags: HMW
LayerCount: 2
Fore
SplineSet
440 106 m 5
 624 72 l 5
 605 0 l 5
 24 0 l 5
 42 75 l 5
 256 127 l 5
 381 1065 l 5
 160 1078 l 5
 174 1155 l 5
 241 1178 330 1201 440 1224 c 132
 550 1247 631 1259 683 1259 c 132
 735 1259 763 1259 771 1257 c 5
 951 1244 1066 1174 1117 1048 c 5
 1129 1019 1135 992 1134 967 c 4
 1134 891 1111 824 1066 765 c 4
 1033 724 990 687 934 654 c 132
 878 621 824 594 771 574 c 5
 771 571 l 5
 918 325 l 5
 949 270 974 231 995 206 c 132
 1016 181 1039 161 1065 144 c 132
 1091 127 1125 115 1168 106 c 5
 1247 91 l 5
 1240 31 l 5
 1185 -2 1127 -18 1068 -18 c 4
 966 -18 883 24 820 108 c 4
 800 134 779 171 754 218 c 6
 629 453 l 5
 613 478 603 494 599 500 c 6
 562 546 l 5
 545 567 l 5
 556 597 l 5
 634 615 l 5
 748 638 828 679 873 739 c 4
 893 765 907 793 917 821 c 132
 927 849 931 878 931 908 c 4
 931 981 907 1044 859 1098 c 132
 811 1152 750 1179 676 1179 c 4
 641 1179 611 1176 585 1168 c 5
 440 106 l 5
EndSplineSet
Colour: ffffff
EndChar

StartChar: S
Encoding: 52 83 51
Width: 935
VWidth: 1655
GlyphClass: 2
Flags: HMW
LayerCount: 2
Fore
SplineSet
246 415 m 5
 216.012 274.112 212 80 427 80 c 4
 536.542 80 627 163.816 627 262 c 132
 627 458 173 632 173 906 c 4
 173 1118.34 386.2 1278 597 1278 c 4
 717.328 1278 822.759 1245 911 1178 c 5
 806 832 l 5
 718 851 l 5
 711 1101 l 5
 686 1142 624.075 1184 552 1184 c 4
 451.547 1184 365 1109.54 365 1005 c 4
 365 791 829 602 829 348 c 4
 829 119.581 602.456 -24 385 -24 c 4
 215.461 -24 24 57.7939 24 232 c 132
 24 372.732 146 446 246 415 c 5
EndSplineSet
Colour: ffffff
EndChar

StartChar: T
Encoding: 53 84 52
Width: 1136
VWidth: 1655
GlyphClass: 2
Flags: HMW
LayerCount: 2
Fore
SplineSet
450 1123 m 1
 365 1135 308 1141 277 1140 c 128
 246 1139 225 1140 215 1138 c 1
 119 818 l 1
 24 832 l 1
 24 1224 l 1
 205 1240 409 1249 636 1252 c 1
 747 1252 l 1
 1112 1246 l 1
 1031 818 l 1
 936 832 l 1
 906 1117 l 1
 812 1133 727 1141 652 1143 c 1
 528 109 l 1
 778 80 l 1
 760 -2 l 1
 91 -2 l 1
 114 80 l 1
 331 134 l 1
 450 1123 l 1
EndSplineSet
Colour: ffffff
EndChar

StartChar: U
Encoding: 54 85 53
Width: 1461
VWidth: 1655
GlyphClass: 2
Flags: HMW
LayerCount: 2
Fore
SplineSet
246 1087 m 1
 24 1123 l 1
 46 1201 l 1
 207 1230 371 1245 538 1245 c 1
 662 1243 l 1
 644 1166 l 1
 445 1138 l 1
 397 745 l 2
 397 743 397 735 395 721 c 128
 393 707 391 682 386 647 c 128
 381 612 380 585 378 566 c 128
 376 547 376 520 376 487 c 128
 376 454 377 426 380 404 c 0
 383 382 387 357 394 329 c 0
 409 274 440 227 488 188 c 1
 538 145 598 123 667 123 c 128
 736 123 795 139 842 170 c 128
 889 201 924 241 949 291 c 128
 974 341 994 422 1010 534 c 1
 1084 1111 l 1
 859 1120 l 1
 877 1197 l 1
 1018 1228 1167 1243 1325 1243 c 0
 1333 1243 1370 1242 1437 1239 c 1
 1417 1163 l 1
 1210 1096 l 1
 1125 517 l 1
 1102 362 1067 249 1021 178 c 1
 996 140 970 109 941 85 c 128
 912 61 877 40 836 19 c 0
 762 -16 685 -34 605 -34 c 2
 595 -34 l 1
 467 -28 367 11 296 83 c 0
 215 164 175 277 174 425 c 0
 174 477 182 569 200 702 c 1
 246 1087 l 1
EndSplineSet
Colour: ffffff
EndChar

StartChar: V
Encoding: 55 86 54
Width: 1111
VWidth: 1655
GlyphClass: 2
Flags: HMW
LayerCount: 2
Fore
SplineSet
735 1201 m 5
 777 1243 826 1264 882 1264 c 4
 963 1264 1022 1226 1061 1150 c 4
 1079 1117 1087 1075 1087 1024 c 4
 1087 1019 1086 999 1084 962 c 5
 1071 836 1031 698 963 547 c 132
 895 396 815 261 722 142 c 5
 673 83 632 37 599 5 c 5
 455 -26 l 5
 246 1081 l 5
 24 1122 l 5
 44 1197 l 5
 179 1228 309 1244 434 1246 c 5
 621 188 l 5
 629 188 l 5
 666 227 702 273 737 327 c 5
 810 442 857 572 880 716 c 4
 885 743 887 777 887 817 c 4
 887 904 871 985 838 1058 c 5
 809 1118 775 1166 735 1201 c 5
EndSplineSet
Colour: ffffff
EndChar

StartChar: W
Encoding: 56 87 55
Width: 1578
VWidth: 1655
GlyphClass: 2
Flags: HMW
LayerCount: 2
Fore
SplineSet
851 -28 m 1
 822 621 l 1
 812 621 l 1
 753 455 683 301 601 158 c 0
 579 121 548 70 507 5 c 1
 333 -26 l 1
 241 1081 l 1
 24 1122 l 1
 51 1197 l 1
 191 1228 323 1244 448 1246 c 1
 515 237 l 1
 525 237 l 1
 625 382 705 553 766 752 c 0
 789 829 812 912 833 999 c 1
 982 1034 l 1
 1034 195 l 1
 1042 195 l 1
 1178 339 1266 510 1308 709 c 1
 1321 776 1327 835 1327 888 c 0
 1327 996 1304 1102 1259 1207 c 1
 1302 1238 1349 1253 1399 1252 c 2
 1405 1252 l 1
 1484 1246 1531 1206 1547 1130 c 0
 1552 1110 1554 1081 1554 1041 c 128
 1554 1001 1548 951 1534 892 c 1
 1510 773 1460 648 1383 517 c 1
 1314 395 1231 276 1134 162 c 1
 1111 131 1064 78 993 3 c 1
 851 -28 l 1
EndSplineSet
Colour: ffffff
EndChar

StartChar: X
Encoding: 57 88 56
Width: 1332
VWidth: 1655
GlyphClass: 2
Flags: HMW
LayerCount: 2
Fore
SplineSet
351.125 1071 m 1
 109.125 1122 l 1
 128.125 1197 l 1
 231.125 1220 308.125 1233 358.125 1237 c 128
 408.125 1241 457.125 1244 503.125 1246 c 1
 736.125 729 l 1
 751.125 770 765.125 803 779.125 829 c 1
 807.125 891 844.125 960 891.125 1036 c 128
 938.125 1112 979.125 1163 1014.12 1192 c 0
 1064.12 1232 1115.12 1252 1165.12 1252 c 128
 1233.98 1252 1295.12 1199.99 1307.12 1140 c 128
 1309.12 1130 1309.12 1114 1309.12 1092 c 128
 1309.12 1070 1302.12 1045 1286.12 1019 c 1
 1259.12 1026 1232.12 1029 1206.12 1029 c 1
 1160.12 1026 l 1
 1042.12 1010 939.125 934 853.125 797 c 1
 826.125 750 802.125 698 779.125 639 c 1
 907.125 357 l 2
 946.125 272 981.125 214 1010.12 184 c 0
 1026.12 168 1042.12 161 1061.12 162 c 128
 1080.12 163 1096.12 169 1112.12 184 c 1
 1143.12 207 1175.12 245 1209.12 298 c 1
 1258.12 264 l 1
 1246.12 219 1231.12 181 1212.12 151 c 0
 1164.12 75 1106.12 24 1037.12 -2 c 1
 1011.12 -11 987.125 -15 966.125 -14 c 0
 917.125 -14 875.125 4 840.125 39 c 0
 822.125 57 809.125 73 800.125 88 c 128
 791.125 103 769.125 147 736.125 220 c 1
 598.125 529 l 1
 563.125 435 512.125 329 445.125 211 c 1
 395.125 126 349.125 68 306.125 35 c 1
 267.125 4 225.125 -11 182.125 -10 c 1
 157.125 -8 l 1
 122.125 -2 93.125 13 70.125 39 c 0
 39.125 73 25.125 107 24.125 142 c 128
 23.125 177 28.125 205 39.125 228 c 1
 59.125 226 80.125 225 103.125 225 c 1
 165.125 228 l 1
 297.125 242 398.125 314 471.125 446 c 0
 494.125 487 521.125 546 553.125 623 c 1
 351.125 1071 l 1
EndSplineSet
Colour: ffffff
EndChar

StartChar: Y
Encoding: 58 89 57
Width: 1113
VWidth: 1655
GlyphClass: 2
Flags: HMW
LayerCount: 2
Fore
SplineSet
624 680 m 1
 595 583 573 476 559 359 c 2
 530 106 l 1
 743 81 l 1
 722 0 l 1
 96 0 l 1
 115 83 l 1
 336 129 l 1
 375 423 l 2
 382 470 385 519 385 569 c 0
 385 688 363 796 318 893 c 1
 257 1019 160 1092 24 1111 c 1
 34 1160 55 1197 89 1221 c 128
 123 1245 163 1259 207 1262 c 1
 218 1262 l 2
 326 1262 407 1203 462 1086 c 0
 499 1006 520 915 528 812 c 1
 530 749 531 713 530 702 c 2
 530 664 l 1
 546 664 l 1
 569 763 603 863 648 962 c 1
 731 1153 832 1249 949 1249 c 2
 967 1249 l 1
 1004 1245 1034 1231 1056 1204 c 128
 1078 1177 1089 1149 1089 1118 c 0
 1089 1105 1088 1095 1085 1087 c 1
 1046 1085 1002 1078 952 1063 c 128
 902 1048 856 1026 815 995 c 1
 768 957 731 915 704 869 c 128
 677 823 651 760 624 680 c 1
EndSplineSet
Colour: ffffff
EndChar

StartChar: Z
Encoding: 59 90 58
Width: 1125
VWidth: 1655
GlyphClass: 2
Flags: HMW
LayerCount: 2
Fore
SplineSet
178 1248 m 5
 1101 1248 l 5
 1092 1171 l 5
 246 94 l 5
 456 103 l 5
 607 112 729 123 822 139 c 5
 872 257 906 362 924 453 c 5
 1015 440 l 5
 1015 428 1015 418 1017 409 c 5
 1017 378 l 5
 1015 241 1006 129 987 42 c 5
 977 0 l 5
 24 0 l 5
 29 103 l 5
 864 1152 l 5
 339 1135 l 5
 264 874 l 5
 162 900 l 5
 178 1248 l 5
EndSplineSet
Colour: ffffff
EndChar

StartChar: bracketleft
Encoding: 60 91 59
Width: 598
VWidth: 1655
GlyphClass: 2
Flags: HMW
LayerCount: 2
Fore
SplineSet
381.4 -378 m 1
 20.4004 -380 l 1
 223.4 1266 l 1
 578.4 1266 l 1
 578.4 1175 l 1
 361.4 1154 l 1
 186.4 -263 l 1
 404.4 -282 l 1
 381.4 -378 l 1
EndSplineSet
Colour: ffffff
EndChar

StartChar: backslash
Encoding: 61 92 60
Width: 436
VWidth: 1655
GlyphClass: 2
Flags: HMW
LayerCount: 2
Fore
SplineSet
153.4 1275 m 1
 416.4 -380 l 1
 287.4 -372 l 1
 20.4004 1283 l 1
 153.4 1275 l 1
EndSplineSet
Colour: ffffff
EndChar

StartChar: bracketright
Encoding: 62 93 61
Width: 601
VWidth: 1655
GlyphClass: 2
Flags: HMW
LayerCount: 2
Fore
SplineSet
20.4004 -378 m 1
 22.4004 -282 l 1
 242.4 -263 l 1
 416.4 1154 l 1
 203.4 1175 l 1
 226.4 1266 l 1
 581.4 1266 l 1
 381.4 -380 l 1
 20.4004 -378 l 1
EndSplineSet
Colour: ffffff
EndChar

StartChar: asciicircum
Encoding: 63 94 62
Width: 676
VWidth: 1655
GlyphClass: 2
Flags: HMW
LayerCount: 2
Fore
SplineSet
410 1224 m 1
 652 808 l 1
 590 771 l 1
 357 1052 l 1
 348 1052 l 1
 70 776 l 1
 24 809 l 1
 357 1212 l 1
 410 1224 l 1
EndSplineSet
Colour: ffffff
EndChar

StartChar: underscore
Encoding: 64 95 63
Width: 927
VWidth: 1655
GlyphClass: 2
Flags: HMW
LayerCount: 2
Fore
SplineSet
58.5996 -28 m 1
 892.6 -28 l 1
 868.6 -134 l 1
 33.5996 -134 l 1
 58.5996 -28 l 1
EndSplineSet
Colour: ffffff
EndChar

StartChar: grave
Encoding: 65 96 64
Width: 338
VWidth: 1655
GlyphClass: 2
Flags: HMW
LayerCount: 2
Fore
SplineSet
48 1626 m 1
 162 1663 l 1
 290 1336 l 1
 234 1303 l 1
 48 1626 l 1
EndSplineSet
Colour: ffffff
EndChar

StartChar: a
Encoding: 66 97 65
Width: 877
VWidth: 1655
GlyphClass: 2
Flags: HMW
LayerCount: 2
Back
SplineSet
496 528 m 1
 500 665 513 760 539 816 c 128
 565 872 607 900 666 900 c 0
 668 900 682 899 708 896 c 1
 722 869 l 1
 640 484 l 1
 618 252 l 2
 616 224 615 199 615 176 c 0
 615 127 627 103 652 104 c 0
 665 104 685 121 714 154 c 128
 743 187 768 222 789 259 c 1
 837 221 l 1
 810 148 767 85 711 31 c 128
 655 -23 597 -51 537 -51 c 0
 485 -51 459 -16 460 54 c 0
 460 84 464 119 473 159 c 0
 483 200 488 228 491 245 c 0
 499 280 502 298 501 299 c 1
 490 305 l 1
 460 214 415 135 356 71 c 128
 297 7 241 -25 188 -25 c 128
 135 -25 95 -11 69 16 c 128
 43 43 30 78 30 122 c 128
 30 166 33 210 39 257 c 1
 83 619 l 2
 87 648 88 672 88 691 c 0
 88 731 77 751 54 751 c 128
 31 751 4 739 -28 716 c 128
 -60 693 -86 663 -106 626 c 1
 -149 656 l 1
 -89 816 12 896 155 896 c 0
 220 896 253 854 253 771 c 0
 253 760 246 695 232 577 c 2
 209 384 l 2
 199 301 195 247 194 223 c 0
 194 174 213 150 250 151 c 0
 355 151 437 277 496 528 c 1
EndSplineSet
Fore
SplineSet
780.6 900 m 1
 804.6 881 l 1
 712.6 491 l 1
 682.6 253 l 2
 674.458 189.491 674.6 116 719.6 116 c 0
 772.435 116 847.178 231.893 872.6 275 c 1
 913.6 240 l 1
 855.718 94.5117 793.992 -31 621.6 -31 c 0
 482.55 -31 526.252 175.79 554.6 287 c 1
 541.6 287 l 1
 506.6 203 460.6 131 403.6 70 c 128
 346.6 9 290.6 -21 235.6 -21 c 128
 95.5479 -21 69.5996 86.3643 69.5996 225 c 128
 69.5996 484 259.242 895 517.6 895 c 128
 571.85 895 613.183 873.333 641.6 830 c 1
 650.6 830 l 1
 681.8 876.667 721.667 900 780.6 900 c 1
240.6 288 m 0
 240.6 202.213 255.713 132 305.6 132 c 0
 354.6 132 409.6 183 472.6 285 c 128
 513.062 350.512 545.689 425.512 570.741 510 c 1
 585.6 670 l 1
 567.167 715.14 493.164 760 447.6 760 c 128
 288.589 760 240.6 449.577 240.6 288 c 0
EndSplineSet
Colour: ffffff
EndChar

StartChar: b
Encoding: 67 98 66
Width: 789
VWidth: 1655
GlyphClass: 2
Flags: HMW
LayerCount: 2
Back
SplineSet
442 762 m 4
 397 762 349 714 298 618 c 132
 247 522 214 400 196 249 c 5
 183 153 l 5
 214 108 269 86 346 88 c 4
 404 88 455 120 499 184 c 132
 543 248 565 355 565 505 c 4
 565 581 555 643 534 691 c 132
 513 739 483 762 442 762 c 4
318 1245 m 5
 269 845 l 5
 219 592 l 5
 228 592 l 5
 248 677 284 748 336 806 c 132
 388 864 447 893 511 893 c 132
 575 893 629 859 670 792 c 132
 711 725 732 639 732 535 c 132
 732 431 712 335 672 250 c 132
 632 165 574 99 500 50 c 132
 426 1 341 -24 244 -24 c 132
 147 -24 72 0 17 49 c 5
 149 1142 l 5
 13 1170 l 5
 24 1243 l 5
 303 1266 l 5
 318 1245 l 5
10 0 m 5
 21 79 l 5
 175 116 l 5
 175 1147 l 5
 15 1201 l 5
 27 1277 l 5
 316 1299 l 5
 341 1275 l 5
 341 850 l 5
 325 744 l 5
 335 744 l 5
 418 836 516 900 629 900 c 4
 767 900 872 842 872 599 c 6
 872 114 l 5
 1017 79 l 5
 1005 0 l 5
 556 0 l 5
 568 74 l 5
 703 114 l 5
 706 580 l 6
 706 722 613 764 534 764 c 4
 477 764 411 748 341 675 c 5
 341 116 l 5
 487 80 l 5
 475 0 l 5
 10 0 l 5
EndSplineSet
Fore
SplineSet
475 762 m 0
 331.638 762 249.822 423.675 229 249 c 1
 216 153 l 1
 247 108 302 86 379 88 c 1
 547.075 88 598 291.005 598 505 c 0
 598 619.589 574.735 762 475 762 c 0
353 1278 m 1
 302 845 l 1
 252 592 l 1
 261 592 l 1
 292.969 727.867 391.729 893 544 893 c 128
 696.672 893 765 703.961 765 535 c 128
 765 223.642 585.237 -24 277 -24 c 128
 180 -24 105 -0 50 49 c 1
 88 318 l 1
 184 1175 l 1
 48 1203 l 1
 59 1276 l 1
 338 1299 l 1
 353 1278 l 1
EndSplineSet
Colour: ffffff
EndChar

StartChar: c
Encoding: 68 99 67
Width: 646
VWidth: 1655
GlyphClass: 2
Flags: HMW
LayerCount: 2
Fore
SplineSet
535.6 652 m 1
 513.54 719.133 441.028 771.219 377.552 771.219 c 0
 251.574 771.219 217.6 541.031 217.6 392 c 0
 217.6 230.669 238.838 98 344.6 98 c 0
 450.222 98 552.579 210 589.6 267 c 1
 625.6 235 l 1
 588.274 129 418.71 -31 304.6 -31 c 0
 126.624 -31 57.5996 135.991 57.5996 332 c 0
 57.5996 596.939 264.6 893 471.6 893 c 128
 564.874 893 634.6 839.258 634.6 759 c 128
 634.6 708 578.6 660 535.6 652 c 1
EndSplineSet
Colour: ffffff
EndChar

StartChar: d
Encoding: 69 100 68
Width: 834
VWidth: 1655
GlyphClass: 2
Flags: HMW
LayerCount: 2
Back
SplineSet
168 287 m 2
 168 224 171 179 178 151 c 128
 185 123 200 109 223 109 c 0
 264 109 304 136 346 188 c 128
 388 240 424 310 455 398 c 128
 486 486 507 579 517 678 c 1
 486 743 442 776 385 775 c 0
 344 775 306 752 271 705 c 128
 236 658 210 600 193 529 c 128
 176 458 168 384 168 305 c 2
 168 287 l 2
608 284 m 1
 601 242 597 209 598 185 c 128
 599 161 602 145 609 136 c 128
 616 127 627 123 643 123 c 128
 659 123 682 139 713 170 c 0
 745 201 770 234 790 270 c 1
 830 242 l 1
 778 64 680 -25 534 -24 c 0
 478 -24 450 17 450 98 c 0
 450 146 458 200 476 259 c 1
 463 263 l 1
 430 172 388 102 338 51 c 128
 288 0 234 -26 176 -26 c 128
 118 -26 75 -3 48 41 c 128
 21 85 8 146 8 225 c 128
 8 304 26 394 63 494 c 128
 100 594 151 684 217 763 c 128
 283 842 356 882 434 882 c 0
 486 882 517 872 527 851 c 1
 541 855 l 1
 561 1142 l 5
 427 1170 l 5
 437 1243 l 5
 712 1269 l 5
 731 1245 l 5
 608 284 l 1
EndSplineSet
Fore
SplineSet
771 1275 m 1
 648 284 l 2
 640 220 636.666 123 683 123 c 128
 731.709 123 808.204 230.768 830 270 c 1
 870 242 l 1
 818 64 720 -24 574 -24 c 0
 459.4 -24 486.133 161.103 516 259 c 1
 503 263 l 1
 455.105 130.926 366.374 -26 216 -26 c 128
 86.9785 -26 48 86.5264 48 225 c 128
 48 476.188 223.262 882 474 882 c 0
 526 882 557 872 567 851 c 1
 581 855 l 1
 601 1172 l 1
 467 1200 l 1
 477 1273 l 1
 752 1299 l 1
 771 1275 l 1
263 109 m 0
 378.676 109 455.888 286.972 495 398 c 128
 526 486 547 579 557 678 c 1
 526 743 479 775 425 775 c 0
 258.652 775 208 478 208 305 c 0
 208 193 209 109 263 109 c 0
EndSplineSet
Colour: ffffff
EndChar

StartChar: e
Encoding: 70 101 69
Width: 649
VWidth: 1655
GlyphClass: 2
Flags: HMW
LayerCount: 2
Fore
SplineSet
217.912 350 m 1
 221.912 184.987 274.912 103 379.912 103 c 0
 456.912 103 525.912 157.713 585.912 266 c 5
 622.912 234 l 5
 580.794 101.292 459.18 -31 298.912 -31 c 128
 131.723 -31 57.9121 115.553 57.9121 293 c 128
 57.9121 560.583 234.991 897 454.912 897 c 0
 552.753 897 625.652 803.649 625.652 700.432 c 0
 625.652 486 438.912 399 217.912 350 c 1
378.912 760 m 0
 298.412 760 231.329 644.053 217.912 414 c 1
 336.912 453 461.833 516 461.833 644.957 c 0
 461.833 707.597 435.579 760 378.912 760 c 0
EndSplineSet
Colour: ffffff
EndChar

StartChar: f
Encoding: 71 102 70
Width: 333
VWidth: 1655
GlyphClass: 2
Flags: HMW
LayerCount: 2
Back
SplineSet
409 1238 m 132
 426 1218 434 1193 434 1163 c 132
 434 1133 423 1104 401 1079 c 132
 379 1054 353 1041 325 1041 c 132
 297 1041 276 1049 259 1068 c 132
 242 1087 234 1111 234 1140 c 132
 234 1169 242.735 1198 261 1226 c 132
 286.176 1254 312.446 1268 342 1268 c 132
 369 1268 392 1258 409 1238 c 132
345 254 m 5
 341 225 340 201 340 181 c 4
 340 142 351 123 374 123 c 132
 397 123 424 134 456 157 c 132
 488 180 514 209 534 246 c 5
 576 217 l 5
 516 57 420 -23 288 -23 c 4
 247 -23 217 -10 200 15 c 132
 183 40 175 71 175 108 c 132
 175 145 179 208 188 296 c 5
 224 611 l 6
 250.259 840.77 152.561 747.619 53 599 c 5
 5 631 l 5
 48.0264 743.759 161.278 906 299 906 c 4
 425.723 906 389 745 373 569 c 6
 345 254 l 5
EndSplineSet
Fore
SplineSet
-265 -132 m 1
 -205.567 -196 -145.233 -228 -84 -228 c 0
 -1.56445 -228 32.8613 -194.812 46 -127 c 1
 90.1973 38.7646 97.459 509.419 110 742 c 1
 -5 753 l 1
 7 845 l 1
 115 849 l 1
 127.192 987.676 174.75 1110.08 263.468 1194 c 0
 331.395 1265.85 426.783 1309 553 1309 c 0
 642.24 1304.72 707 1241.2 707 1165 c 0
 707 1106.34 672.837 1066.35 633 1041 c 1
 583.93 1113.02 506.781 1160.39 431.389 1160.39 c 0
 357.971 1160.39 324.977 1145.48 307.642 1089 c 0
 284.773 1021.7 277.83 930.815 274 844 c 1
 508 845 l 1
 489 747 l 1
 272 738 l 1
 261.108 260.547 265 -381 -189 -381 c 0
 -271.756 -381 -324 -331.574 -324 -242 c 0
 -318.851 -200.811 -291.543 -156.982 -265 -132 c 1
EndSplineSet
Colour: ffffff
EndChar

StartChar: g
Encoding: 72 103 71
Width: 773
VWidth: 1655
GlyphClass: 2
Flags: HMW
LayerCount: 2
Back
SplineSet
58 360 m 132
 58 621.322 191.454 895 447 895 c 132
 623.977 895 732 716 732 526 c 132
 732 264.391 598.426 -26 327 -26 c 132
 146.702 -26 58 146 58 360 c 132
222 460 m 4
 222 272 277.811 90 397 90 c 132
 526.371 90 570 230 570 424 c 4
 570 581.558 505.667 784 377 784 c 132
 263.747 784 222 642 222 460 c 4
EndSplineSet
Fore
SplineSet
516 377 m 1
 534 685 l 1
 511.086 733.219 475.445 772 411 772 c 128
 239.241 772 208.595 470.453 207 305 c 0
 207 226.947 217.853 129 261 129 c 128
 342.223 129 432.472 241.307 534 494 c 1
 552.339 470.656 561.157 463.976 569 459 c 1
 506.396 219.952 359.069 -26 219 -26 c 128
 89.4258 -26 55 111.118 55 244 c 128
 55 485.736 230.782 897 440 897 c 0
 493.945 897 533.578 862.521 560 792 c 1
 570 792 l 1
 603.773 864.706 677.28 908.329 719 895 c 1
 737 880 l 1
 668 412 l 17
 816 -137 452.694 -378.023 246 -378.023 c 0
 87.8467 -378.023 -12 -341.39 -12 -275 c 0
 -12 -203.359 50 -155.121 110 -148 c 1
 135.096 -213 232.968 -247 307 -247 c 0
 493.735 -247 552.451 -83.709 552.451 99.8926 c 0
 552.451 193.278 537.261 291.919 516 377 c 1
EndSplineSet
Colour: ffffff
EndChar

StartChar: h
Encoding: 73 104 72
Width: 839
VWidth: 1655
GlyphClass: 2
Flags: HMW
LayerCount: 2
Back
SplineSet
336 364 m 5
 329.003 133.088 318.069 -47.7976 104 -24 c 5
 90 3 l 5
 192 388 l 5
 211 567 232 768 180 768 c 4
 138.314 768 63.4918 649.105 43 613 c 5
 -5 651 l 5
 36.9156 764.327 154.106 923 295 923 c 4
 415 923 358 651.314 331 553 c 5
 342 547 l 5
 384.914 659.424 537.205 897 666 897 c 132
 778.823 897 823.146 829.09 823.146 713.126 c 4
 823.146 571 706.721 286 706.721 156.993 c 4
 706.721 133.391 713.037 121 730 121 c 132
 806.745 121 861.84 195.437 889 246 c 5
 932 216 l 5
 873.382 56 774.707 -24 635 -24 c 4
 557.051 -24 532.279 3.25322 532.279 74.6055 c 4
 532.279 202 650.969 442 650.969 644.743 c 4
 650.969 695.722 632.334 721 594 721 c 4
 503.297 721 397.878 601.684 336 364 c 5
EndSplineSet
Fore
SplineSet
234 1180 m 1
 98 1208 l 1
 108 1281 l 1
 395 1304 l 1
 411 1283 l 1
 341 825 l 1
 278 564 l 1
 290 561 l 1
 363.14 731.036 496.7 898 608 898 c 128
 724.819 898 757.696 818.184 757.696 707.854 c 0
 757.696 520.505 642.542 265 642.542 168.56 c 0
 642.542 144.324 649.426 123 675 123 c 128
 739.568 123 806.924 195.91 834 246 c 1
 875 217 l 1
 822.209 80.7646 745.815 -23 574 -23 c 0
 497.116 -23 476.788 18.5566 476.788 74.8428 c 0
 476.788 186.991 587.819 455.082 587.819 636.39 c 0
 587.819 695.325 572.442 716 541 716 c 0
 419 716 325.746 541.983 285 386 c 1
 277.917 141.599 264.009 -42.1592 51 -19 c 1
 36 8 l 1
 136 434 l 1
 234 1180 l 1
EndSplineSet
Colour: ffffff
EndChar

StartChar: i
Encoding: 74 105 73
Width: 539
VWidth: 1655
GlyphClass: 2
Flags: HMW
LayerCount: 2
Fore
SplineSet
469 1163 m 132
 469 1104.39 417.939 1041 360 1041 c 132
 303.332 1041 269 1083.24 269 1140 c 132
 269 1203.43 317.23 1268 377 1268 c 132
 433.661 1268 469 1220.91 469 1163 c 132
317.717 187.354 m 0
 317.717 152.77 324.137 123 351 123 c 128
 415.468 123 482.02 189.565 509 236 c 1
 551 207 l 1
 491 53.6667 395 -23 263 -23 c 0
 170.765 -23 148.159 44.8193 148.159 129.938 c 0
 148.159 253 243.33 490.497 243.33 676.479 c 0
 243.33 728.158 231.93 749.552 213.188 749.552 c 0
 175.63 749.552 112.154 683.172 48 599 c 1
 0 631 l 1
 47.4166 743.759 172.225 906 324 906 c 0
 393.314 906 411.493 853.326 411.493 775.301 c 0
 411.493 588.647 317.717 379.456 317.717 187.354 c 0
EndSplineSet
Colour: ffffff
EndChar

StartChar: j
Encoding: 75 106 74
Width: 417
VWidth: 1655
GlyphClass: 2
Flags: HMW
LayerCount: 2
Back
SplineSet
429 1163 m 132
 429 1104.39 377.939 1041 320 1041 c 132
 263.332 1041 229 1083.24 229 1140 c 132
 229 1203.43 277.23 1268 337 1268 c 132
 393.661 1268 429 1220.91 429 1163 c 132
327.717 187.354 m 4
 327.717 152.77 334.137 123 361 123 c 132
 429.548 123 500.312 195.456 529 246 c 5
 571 217 l 5
 508.917 57 409.583 -23 273 -23 c 4
 180.765 -23 158.159 44.8193 158.159 129.938 c 4
 158.159 253 233.33 490.497 233.33 676.479 c 4
 233.33 728.158 221.93 749.552 203.188 749.552 c 4
 167.903 749.552 108.271 683.172 48 599 c 5
 0 631 l 5
 45.9531 743.759 166.909 906 314 906 c 4
 383.314 906 401.493 853.326 401.493 775.301 c 4
 401.493 588.647 327.717 379.456 327.717 187.354 c 4
EndSplineSet
Fore
SplineSet
384.2 1163 m 128
 384.2 1104.39 333.139 1041 275.2 1041 c 128
 218.532 1041 184.2 1083.24 184.2 1140 c 128
 184.2 1203.43 232.43 1268 292.2 1268 c 128
 348.861 1268 384.2 1220.91 384.2 1163 c 128
-215.8 -132 m 1
 -153.117 -196 -90.4336 -228 -26.7998 -228 c 0
 98.2002 -228 82.2002 -94 117.031 182 c 0
 133.697 314.064 194.311 609.483 194.311 681.359 c 0
 194.311 720.079 184.19 752 154.2 752 c 0
 107.268 752 31.0557 620.711 18.2002 595 c 1
 -32.7998 631 l 1
 8.93555 743.685 121.883 909 264.2 909 c 128
 348.398 909 371.091 844.498 371.091 764.942 c 0
 371.091 705.503 318.615 457.78 278.2 210 c 0
 266.474 129.919 260.924 64.1611 251.858 -14 c 0
 238.208 -116.081 192.452 -192.748 163.2 -230 c 128
 106.216 -317.345 -12.5723 -381 -129.8 -381 c 1
 -217.702 -373.572 -274.8 -331.374 -274.8 -242 c 1
 -269.651 -200.811 -242.343 -156.982 -215.8 -132 c 1
EndSplineSet
Colour: ffffff
EndChar

StartChar: k
Encoding: 76 107 75
Width: 776
VWidth: 1655
GlyphClass: 2
Flags: HMW
LayerCount: 2
Back
SplineSet
194 885 m 5
 226 1175 l 5
 90 1203 l 5
 101 1276 l 5
 380 1299 l 5
 395 1278 l 5
 318 623 l 5
 278 253 l 6
 276 230 275 208 275 188 c 4
 275 143 286 121 309 121 c 132
 332 121 359 133 391 156 c 132
 423 179 449 209 470 246 c 5
 512 216 l 5
 452 56 351 -24 207 -24 c 4
 138 -24 104 24 104 120 c 4
 104 158 109 216 120 295 c 5
 194 885 l 5
EndSplineSet
Fore
SplineSet
366 401 m 1
 513.206 504.677 601.664 631.581 601.664 700.086 c 0
 601.664 729.681 590.343 748 566 748 c 0
 482 748 302 495 269 405 c 1
 263.292 153.973 247.119 -86.8311 54 -13 c 1
 48 0 l 1
 131 440 l 1
 218 1175 l 1
 83 1203 l 1
 93 1276 l 1
 380 1299 l 1
 396 1278 l 1
 338 832 l 1
 273 551 l 1
 286 546 l 1
 320.824 600.613 506 906 656 906 c 0
 696.981 906 750.1 851.235 750.1 765.239 c 0
 750.1 675.643 686.9 551.89 479 421 c 1
 507 317.072 589 123 639 123 c 0
 667 123 741 164 788 246 c 1
 830 216 l 1
 792 103 675 -13 572 -13 c 0
 415 -13 378 260.738 355 383 c 1
 366 401 l 1
EndSplineSet
Colour: ffffff
EndChar

StartChar: l
Encoding: 77 108 76
Width: 425
VWidth: 1655
GlyphClass: 2
Flags: HMW
LayerCount: 2
Back
SplineSet
409 1238 m 132
 426 1218 434 1193 434 1163 c 132
 434 1133 423 1104 401 1079 c 132
 379 1054 353 1041 325 1041 c 132
 297 1041 276 1049 259 1068 c 132
 242 1087 234 1111 234 1140 c 132
 234 1169 242.735 1198 261 1226 c 132
 286.176 1254 312.446 1268 342 1268 c 132
 369 1268 392 1258 409 1238 c 132
345 254 m 5
 341 225 340 201 340 181 c 4
 340 142 351 123 374 123 c 132
 397 123 424 134 456 157 c 132
 488 180 514 209 534 246 c 5
 576 217 l 5
 516 57 420 -23 288 -23 c 4
 247 -23 217 -10 200 15 c 132
 183 40 175 71 175 108 c 132
 175 145 179 208 188 296 c 5
 224 611 l 6
 250.259 840.77 152.561 747.619 53 599 c 5
 5 631 l 5
 48.0264 743.759 161.278 906 299 906 c 4
 425.723 906 389 745 373 569 c 6
 345 254 l 5
EndSplineSet
Fore
SplineSet
152 885 m 5
 184 1175 l 1
 48 1203 l 1
 59 1276 l 1
 346 1299 l 1
 361 1278 l 1
 276 623 l 1
 239 253 l 2
 234.647 202.942 228.641 121 270 121 c 128
 335.475 121 402.462 195.718 431 246 c 1
 473 216 l 1
 413 56 312 -24 168 -24 c 0
 36.0391 -24 64 154 81 295 c 2
 152 885 l 5
EndSplineSet
Colour: ffffff
EndChar

StartChar: m
Encoding: 78 109 77
Width: 1315
VWidth: 1655
GlyphClass: 2
Flags: HMW
LayerCount: 2
Back
SplineSet
756 364 m 1
 749.003 133.088 738.069 -47.7976 524 -24 c 1
 510 3 l 1
 612 388 l 1
 631 567 652 768 600 768 c 0
 558.314 768 483.492 649.105 463 613 c 1
 415 651 l 1
 456.916 764.327 574.106 923 715 923 c 0
 835 923 778 651.314 751 553 c 1
 762 547 l 1
 804.914 659.424 957.205 897 1086 897 c 132
 1198.82 897 1243.15 829.09 1243.15 713.126 c 4
 1243.15 571 1126.72 286 1126.72 156.993 c 4
 1126.72 133.391 1133.04 121 1150 121 c 132
 1226.75 121 1281.84 195.437 1309 246 c 5
 1352 216 l 5
 1293.38 56 1194.71 -24 1055 -24 c 4
 977.051 -24 952.279 3.25323 952.279 74.6055 c 0
 952.279 202 1070.97 442 1070.97 644.743 c 4
 1070.97 695.722 1052.33 721 1014 721 c 4
 923.297 721 817.878 601.684 756 364 c 1
EndSplineSet
Fore
SplineSet
1069.97 644.743 m 0
 1069.97 695.722 1051.33 721 1013 721 c 0
 879.821 723.038 793.38 520.72 750 343 c 1
 742.939 122.471 735.366 -44.8965 523 -30 c 1
 507 -2 l 1
 606 378 l 1
 624.212 500.929 673.405 712 571 712 c 0
 449 712 374.314 513.939 335 344 c 1
 327.931 122.744 317.275 -39.9785 103 -19 c 1
 89 8 l 1
 191 378 l 1
 196.812 441.204 245.47 761.319 179.941 761.319 c 0
 139.705 761.319 76.7832 670.417 42 605 c 1
 -6 641 l 1
 36.2021 759.297 151.797 923 294 923 c 0
 398 923 356 665.878 330 562 c 1
 341 560 l 1
 384.637 686.299 500.075 888 643 888 c 128
 793.015 888 800 762 772 618 c 1
 782 613 l 1
 862.433 802.675 963.8 897 1085 897 c 128
 1197.82 897 1242.15 829.09 1242.15 713.126 c 0
 1242.15 571 1125.72 286 1125.72 156.993 c 0
 1125.72 133.391 1132.04 121 1149 121 c 128
 1225.75 121 1280.84 195.437 1308 246 c 1
 1351 216 l 1
 1292.38 56 1193.71 -24 1054 -24 c 0
 965.155 -24 948 11.9863 948 61 c 0
 948 223 1069.97 427 1069.97 644.743 c 0
EndSplineSet
Colour: ffffff
EndChar

StartChar: n
Encoding: 79 110 78
Width: 895
VWidth: 1655
GlyphClass: 2
Flags: HMW
LayerCount: 2
Fore
SplineSet
335 364 m 5
 328.003 133.088 317.069 -47.7979 103 -24 c 5
 89 3 l 5
 191 388 l 5
 210 567 231 768 179 768 c 4
 137.314 768 62.4922 649.105 42 613 c 5
 -6 651 l 5
 35.916 764.327 153.106 923 294 923 c 4
 414 923 357 651.314 330 553 c 5
 341 547 l 5
 383.914 659.424 536.205 897 665 897 c 132
 777.823 897 822.146 829.09 822.146 713.126 c 4
 822.146 571 705.721 286 705.721 156.993 c 4
 705.721 133.391 712.037 121 729 121 c 132
 805.745 121 860.84 195.437 888 246 c 5
 931 216 l 5
 872.382 56 773.707 -24 634 -24 c 4
 556.051 -24 531.279 3.25293 531.279 74.6055 c 4
 531.279 202 649.969 442 649.969 644.743 c 4
 649.969 695.722 631.334 721 593 721 c 4
 502.297 721 396.878 601.684 335 364 c 5
EndSplineSet
Colour: ffffff
EndChar

StartChar: o
Encoding: 80 111 79
Width: 755
VWidth: 1655
GlyphClass: 2
Flags: HMW
LayerCount: 2
Fore
SplineSet
57.5996 360 m 132
 57.5996 621.322 191.054 895 446.6 895 c 132
 623.577 895 731.6 716 731.6 526 c 132
 731.6 264.391 598.026 -26 326.6 -26 c 132
 146.302 -26 57.5996 146 57.5996 360 c 132
221.6 460 m 4
 221.6 272 277.411 90 396.6 90 c 132
 525.971 90 569.6 230 569.6 424 c 4
 569.6 581.558 505.267 784 376.6 784 c 132
 263.347 784 221.6 642 221.6 460 c 4
EndSplineSet
Colour: ffffff
EndChar

StartChar: p
Encoding: 81 112 80
Width: 828
VWidth: 1655
GlyphClass: 2
Flags: HMW
LayerCount: 2
Back
SplineSet
326 204 m 5
 316.698 -32.8959 286.465 -197.167 226 -294 c 132
 200 -350 158 -378 99 -378 c 4
 97 -378 83 -377 57 -374 c 5
 43 -347 l 5
 182 248 l 5
 214 620 l 2
 216 648 217 673 217 696 c 0
 217 745 205 769 180 768 c 0
 167 768 147 751 118 718 c 128
 89 685 64 650 43 613 c 1
 -5 651 l 1
 22 724 65 787 121 841 c 128
 177 895 235 923 295 923 c 0
 347 923 373 888 372 818 c 0
 372 788 368 753 359 713 c 0
 349 672 344 644 341 627 c 0
 333 592 330 574 331 573 c 1
 342 567 l 1
 372 658 417 737 476 801 c 128
 535 865 591 897 644 897 c 128
 697 897 737 883 763 856 c 128
 789 829 802 794 802 750 c 128
 802 706 799 662 793 615 c 1
 749 253 l 2
 745 224 744 200 744 181 c 0
 744 141 755 121 778 121 c 128
 801 121 828 133 860 156 c 128
 892 179 918 209 938 246 c 1
 981 216 l 1
 921 56 820 -24 677 -24 c 0
 612 -24 579 18 579 101 c 0
 579 112 586 177 600 295 c 2
 623 488 l 2
 633 571 637 625 638 649 c 0
 638 698 619 722 582 721 c 0
 472.732 721 387.398 548.21 326 204 c 5
EndSplineSet
Fore
SplineSet
257.2 112 m 1
 283.832 306.35 328.989 459.3 389.2 572 c 128
 441.2 670 493.2 719 545.2 719 c 0
 623.472 719 630.2 622.581 630.2 524 c 0
 630.2 243.536 561.567 91.6221 328.2 62 c 1
 335.2 -12 l 1
 632.966 -12 804.2 218.779 804.2 540 c 128
 804.2 697.034 747.427 877 609.2 877 c 128
 461.269 877 366.909 681.829 316.2 553 c 1
 306.2 555 l 1
 306.2 557 307.2 561 309.2 570 c 128
 328.797 658.185 406.259 915 267.2 915 c 0
 124.268 915 12.7578 748.977 -28.7998 632 c 1
 17.2002 595 l 1
 37.7061 632.107 112.221 754 154.2 754 c 0
 203.389 754 195.877 664.902 186.2 602 c 2
 119.2 131 l 17
 -1.7998 -347 l 1
 12.2002 -374 l 1
 214.987 -402.78 257.2 -258.205 257.2 112 c 1
EndSplineSet
Colour: ffffff
EndChar

StartChar: q
Encoding: 82 113 81
Width: 790
VWidth: 1655
GlyphClass: 2
Flags: HMW
LayerCount: 2
Fore
SplineSet
620.6 -108 m 2
 611.6 -214 617.6 -239 658.6 -239 c 0
 723.6 -239 791.6 -178 818.6 -136 c 1
 850.6 -185 l 1
 786.6 -318 683.6 -385 542.6 -385 c 0
 471.6 -385 429.6 -320 429.6 -254 c 0
 429.6 -122.223 480.217 95.3623 529.6 268 c 1
 516.6 268 l 1
 401.6 54 325.6 -26 223.6 -26 c 0
 101.526 -26 69.5996 111 69.5996 244 c 0
 69.5996 486 245.6 897 454.6 897 c 0
 512.6 897 554.6 863 582.6 792 c 1
 592.6 792 l 1
 628.6 865 708.6 908 753.6 895 c 1
 771.6 880 l 1
 637.6 103 l 1
 620.6 -108 l 2
560.6 505 m 1
 556.6 685 l 1
 532.6 733 494.6 772 425.6 772 c 0
 253.6 772 223.6 470 221.6 305 c 0
 221.6 227 232.6 129 275.6 129 c 0
 341.6 129 455.204 245.277 560.6 505 c 1
EndSplineSet
Colour: ffffff
EndChar

StartChar: r
Encoding: 83 114 82
Width: 683
VWidth: 1655
GlyphClass: 2
Flags: HMW
LayerCount: 2
Back
SplineSet
293 1180 m 5
 157 1208 l 5
 167 1281 l 5
 454 1304 l 5
 470 1283 l 5
 400 825 l 5
 337 564 l 5
 349 561 l 5
 418 727 544 890 649 890 c 132
 780.646 890 817.696 813.542 817.696 707.854 c 4
 817.696 520.505 701.542 265 701.542 168.56 c 4
 701.542 144.325 708.426 123 734 123 c 132
 798.568 123 865.924 195.91 893 246 c 5
 934 217 l 5
 881.209 80.7647 804.815 -23 633 -23 c 4
 556.116 -23 535.788 18.5564 535.788 74.8428 c 4
 535.788 186.991 646.819 455.082 646.819 636.39 c 4
 646.819 695.326 631.443 716 600 716 c 4
 438.756 716 384.746 520.89 344 346 c 5
 336.917 125.737 323.009 -39.8721 110 -19 c 5
 95 8 l 5
 195 434 l 5
 293 1180 l 5
EndSplineSet
Fore
SplineSet
351 345 m 129
 363 154 369.253 -42 142 -14 c 1
 128 13 l 1
 201 388 l 1
 202.136 431.034 207.611 551.448 207.611 640.982 c 0
 207.611 700.778 197.782 746.801 166.356 746.801 c 0
 128.958 746.801 52.8398 642.712 42 619 c 1
 -6 655 l 1
 34.7637 757.682 129.946 899 263 899 c 0
 367.144 899 366 793 354 693 c 2
 321 430 l 1
 335 427 l 1
 393.649 607 437.162 866 580 866 c 0
 650.879 866 700 820.178 700 755 c 0
 700 695.247 675.049 649.979 654 641 c 1
 654 641 627.525 669 537 669 c 128
 481.959 669 423.122 557.694 351 345 c 129
EndSplineSet
Colour: ffffff
EndChar

StartChar: s
Encoding: 84 115 83
Width: 625
VWidth: 1655
GlyphClass: 2
Flags: HMW
LayerCount: 2
Fore
SplineSet
66 610 m 0
 66 768.838 233.039 897 414 897 c 0
 505.649 897 601 858.933 601 775 c 0
 601 717 569 675 505 648 c 1
 470.252 717.919 422.98 798 341 798 c 128
 257.72 798 193 749.205 193 686 c 0
 193 514 588.261 425.857 584 239 c 128
 580.301 66.6191 413.439 -35 236 -35 c 128
 141.204 -35 24 13.8525 24 99 c 128
 24 169.578 75.4912 225.302 139 233 c 1
 164.981 149.491 223.45 67 329 67 c 128
 392.708 67 437 99 437 171 c 1
 429.041 334.406 66 358 66 610 c 0
EndSplineSet
Colour: ffffff
EndChar

StartChar: t
Encoding: 85 116 84
Width: 608
VWidth: 1655
GlyphClass: 2
Flags: HMW
LayerCount: 2
Fore
SplineSet
308.4 151 m 0
 389.4 151 447.121 272.015 515.4 393 c 1
 564.4 355 l 1
 517.832 179.243 420.519 -23 230.4 -23 c 0
 59.9336 -23 109.4 168 136.4 354 c 2
 192.4 745 l 1
 80.4004 758 l 1
 105.4 843 l 1
 202.4 854 l 1
 240.4 1032 l 1
 377.4 1051 l 1
 388.4 1038 l 1
 367.4 854 l 1
 584.4 850 l 1
 558.4 753 l 1
 351.4 745 l 1
 300.4 392 l 2
 283.4 274 259.544 151 308.4 151 c 0
EndSplineSet
Colour: ffffff
EndChar

StartChar: u
Encoding: 86 117 85
Width: 919
VWidth: 1655
GlyphClass: 2
Flags: HMW
LayerCount: 2
Fore
SplineSet
606 507 m 1
 609.372 724.675 639 923.467 834 895 c 1
 850 867 l 1
 750 484 l 1
 733 284 l 2
 725.963 212.225 704.128 123 768 123 c 128
 816.767 123 891.961 230.329 914 270 c 1
 955 242 l 1
 903 64 792 -24 660 -24 c 0
 537.691 -24 568.723 165.384 599 283 c 1
 588 285 l 1
 529.57 147.44 378.981 -26 240 -26 c 128
 141.746 -26 110.719 35.1221 110.719 116.13 c 0
 110.719 247 219.456 508 219.456 672.951 c 0
 219.456 707.846 211.942 736.828 185 738 c 0
 154 738 106 689 42 592 c 1
 -6 623 l 1
 36.8896 735.4 150.993 899 288 899 c 0
 377.539 899 403.093 844.69 403.093 770.309 c 0
 403.093 646 291.979 364 291.979 216.477 c 0
 291.979 180.227 304.95 150 351 150 c 0
 459 150 563.929 347.114 606 507 c 1
EndSplineSet
Colour: ffffff
EndChar

StartChar: v
Encoding: 87 118 86
Width: 836
VWidth: 1655
GlyphClass: 2
Flags: HMW
LayerCount: 2
Fore
SplineSet
334 400 m 2
 312.265 239.952 324.132 91 445 91 c 128
 599.117 91 654 378.888 654 545 c 0
 654 667 612 768 528 845 c 1
 559 879 595.988 896 639 896 c 128
 722 896 776 790.931 776 688 c 0
 776 389.45 647.118 -21 358 -21 c 0
 197.932 -21 145.358 123.904 175 349 c 2
 207 592 l 2
 219.147 684.244 222.819 735 180 735 c 128
 171.137 735 122 705 36 579 c 1
 -12 611 l 1
 33.957 722.188 151.26 887 290 887 c 1
 345 887 372 840 372 744 c 0
 372 719 363 631 345 481 c 2
 334 400 l 2
EndSplineSet
Colour: ffffff
EndChar

StartChar: w
Encoding: 88 119 87
Width: 1182
VWidth: 1655
GlyphClass: 2
Flags: HMW
LayerCount: 2
Fore
SplineSet
207 618 m 2
 220 675 244.424 760 203 760 c 0
 180 760 124 709 35 607 c 1
 -6 637 l 1
 50.0205 744.686 179.616 913 315 913 c 0
 377.558 913 397.64 876.628 397.64 822.849 c 0
 397.64 678 286 442 286 249 c 0
 286 161 320 117 387 116 c 1
 516 116 564.921 296.592 585 484 c 1
 575.629 676.097 568.806 859.024 761 835 c 1
 772 817 l 1
 713 456 l 1
 706 300 699.482 106 818 106 c 0
 961.105 106 1006 370.832 1006 534 c 0
 1006 654.286 954.216 781.213 906 858 c 1
 943 886 978 900 1013 900 c 128
 1098.3 900 1128 774.214 1128 676 c 128
 1128 384.688 988 -24 717 -24 c 0
 608.033 -24 578 56.9082 578 193 c 1
 565 195 l 1
 525.322 75.9668 431.335 -26 284 -26 c 0
 176 -26 122 42 122 178 c 0
 122 225 127.085 268.209 146 351 c 2
 207 618 l 2
EndSplineSet
Colour: ffffff
EndChar

StartChar: x
Encoding: 89 120 88
Width: 904
VWidth: 1655
GlyphClass: 2
Flags: HMW
LayerCount: 2
Fore
SplineSet
416 312 m 1
 315 83.3926 218 -31.9404 125 -34 c 0
 92 -34 67 -24 50 -4 c 128
 33 16 24 41 24 70 c 0
 24 127 40 170 72 197 c 1
 101 171 135 158 174 158 c 0
 247 158 316 239 381 401 c 1
 356.286 502 287.801 731 208 731 c 0
 186 731 150 685 101 592 c 1
 54 629 l 1
 116 798 199 882 304 882 c 0
 428.39 882 483.122 674 508 542 c 1
 552 641.161 598 721.798 647 785 c 128
 696 843 737 871 772 871 c 128
 807 871 833 863 852 846 c 128
 871 829 880 810 880 786 c 0
 880 733 865 690 834 657 c 1
 814 675 782 683 735 683 c 0
 664 683 597 614 536 474 c 1
 550 394 620.445 113 677 113 c 128
 695 113 715 124 739 146 c 128
 763 168 786 198 808 237 c 1
 851 207 l 1
 794 54 707 -23 590 -23 c 0
 479.921 -23 436 190 416 312 c 1
EndSplineSet
Colour: ffffff
EndChar

StartChar: y
Encoding: 90 121 89
Width: 850
VWidth: 1655
GlyphClass: 2
Flags: HMW
LayerCount: 2
Fore
SplineSet
35.4004 662 m 1
 -13.5996 699 l 1
 21.9062 779.862 121.036 902 241.4 902 c 128
 448.352 902 439.4 318 421.4 154 c 1
 430.4 154 l 1
 561.67 278.186 624.4 419.07 624.4 585 c 128
 624.4 714 544.4 813 489.4 848 c 1
 512.386 876.29 565.683 906 615.4 906 c 0
 709.812 906 780.4 822 780.4 677 c 0
 780.4 435 623.427 231.521 417.4 56 c 1
 395.795 -138.09 282.403 -381 84.4004 -381 c 128
 -5.33203 -381 -81.5996 -339.494 -81.5996 -254 c 0
 -73.6816 -193.545 -56.3369 -173.45 -6.59961 -141 c 1
 41.0225 -189 88.6357 -212 134.4 -212 c 128
 252.789 -212 281.969 -168.925 281.969 -42.8711 c 0
 281.969 171 246.281 748 161.4 748 c 128
 110.176 748 58.8086 689.956 35.4004 662 c 1
EndSplineSet
Colour: ffffff
EndChar

StartChar: z
Encoding: 91 122 90
Width: 776
VWidth: 1655
GlyphClass: 2
Flags: HMW
LayerCount: 2
Fore
SplineSet
596 858 m 0
 668.92 858 730.216 866 782 883 c 1
 800 855 l 1
 456 414 l 5
 252 113 l 1
 346.399 143.251 433.205 56 511 56 c 0
 556.819 56 578.738 86.0225 581 129 c 128
 583.253 171.803 559.609 269.623 548 303 c 1
 580 319 609 327 635 327 c 0
 695.706 327 736 289.897 736 227 c 0
 736 102.251 614.667 -13 476 -13 c 0
 405.741 -13 287.953 16 165 16 c 128
 122 16 77 10 31 -2 c 1
 12 26 l 1
 296 395 l 5
 560 765 l 1
 460.285 749.048 389.127 815 302 815 c 0
 259 815 236 776 232 699 c 0
 232 657.05 233.776 621.528 241 583 c 1
 160.193 552.697 64 595.498 64 681 c 128
 64 792.396 189 877 325 877 c 0
 409.377 877 495.903 859.43 596 858 c 0
EndSplineSet
Colour: ffffff
EndChar

StartChar: braceleft
Encoding: 92 123 91
Width: 673
VWidth: 1655
GlyphClass: 2
Flags: HMW
LayerCount: 2
Fore
SplineSet
460.4 -280 m 1
 456.4 -381 l 1
 351.4 -381 l 2
 280.4 -381 229.4 -361 199.4 -321 c 128
 169.4 -281 154.4 -220 154.4 -139 c 0
 154.4 -108 158.4 -53 167.4 25 c 128
 176.4 103 179.4 160 179.4 199 c 0
 179.4 311 143.4 373 72.4004 385 c 2
 20.4004 393 l 1
 33.4004 492 l 1
 84.4004 500 l 2
 129.4 508 165.4 531 193.4 572 c 128
 221.4 613 239.4 662 249.4 721 c 0
 272.4 874 294.4 993 315.4 1080 c 0
 330.4 1136 358.4 1181 398.4 1215 c 128
 438.4 1249 489.4 1266 552.4 1266 c 2
 653.4 1266 l 1
 632.4 1164 l 1
 550.4 1158 l 2
 497.4 1153 463.4 1076 449.4 925 c 0
 444.4 880 442.4 853 440.4 843 c 128
 438.4 833 437.4 818 434.4 797 c 128
 431.4 776 429.4 762 427.4 752 c 128
 425.4 742 423.4 729 419.4 711 c 128
 415.4 693 412.4 680 408.4 669 c 128
 404.4 658 399.4 646 393.4 630 c 0
 358.4 532 300.4 471 219.4 448 c 1
 217.4 442 l 1
 305.4 415 349.4 331 350.4 191 c 0
 350.4 155 346.4 95 336.4 11 c 128
 326.4 -73 322.4 -129 322.4 -158 c 0
 322.4 -232 343.4 -271 386.4 -275 c 2
 460.4 -280 l 1
EndSplineSet
Colour: ffffff
EndChar

StartChar: bar
Encoding: 93 124 92
Width: 344
VWidth: 1655
GlyphClass: 2
Flags: HMW
LayerCount: 2
Fore
SplineSet
133.4 -355 m 1
 20.4004 -343 l 1
 212.4 1229 l 1
 324.4 1218 l 1
 133.4 -355 l 1
EndSplineSet
Colour: ffffff
EndChar

StartChar: braceright
Encoding: 94 125 93
Width: 680
VWidth: 1655
GlyphClass: 2
Flags: HMW
LayerCount: 2
Fore
SplineSet
329.4 686 m 2
 329.4 706 l 2
 329.4 753 333.4 816 344.4 894 c 128
 355.4 972 360.4 1024 360.4 1053 c 0
 360.4 1120 342.4 1155 305.4 1158 c 2
 223.4 1164 l 1
 228.4 1266 l 1
 329.4 1266 l 2
 399.4 1266 449.4 1246 480.4 1205 c 128
 511.4 1164 526.4 1104 526.4 1026 c 0
 526.4 985 522.4 926 513.4 850 c 128
 504.4 774 501.4 722 501.4 693 c 0
 501.4 578 538.4 514 611.4 500 c 2
 658.4 492 l 1
 646.4 393 l 1
 593.4 385 l 2
 550.4 377 514.4 354 487.4 314 c 128
 460.4 274 443.4 224 435.4 165 c 0
 412.4 11 389.4 -109 366.4 -195 c 0
 350.4 -252 323.4 -296 281.4 -330 c 128
 239.4 -364 186.4 -381 123.4 -381 c 2
 20.4004 -381 l 1
 42.4004 -280 l 1
 116.4 -275 l 1
 175.4 -270 212.4 -192 230.4 -40 c 1
 248.4 107 263.4 200 279.4 239 c 128
 295.4 278 309.4 311 325.4 336 c 0
 360.4 390 405.4 425 462.4 442 c 1
 462.4 448 l 1
 373.4 473 329.4 552 329.4 686 c 2
EndSplineSet
Colour: ffffff
EndChar

StartChar: asciitilde
Encoding: 95 126 94
Width: 868
VWidth: 1655
GlyphClass: 2
Flags: HMW
LayerCount: 2
Fore
SplineSet
25.2002 416 m 1
 27.2002 423 30.2002 430 35.2002 440 c 0
 67.2002 514 108.2 566 158.2 595 c 0
 181.2 609 204.2 616 228.2 616 c 2
 234.2 616 l 1
 236.2 614 238.2 614 242.2 615 c 2
 684.2 571 l 1
 689.2 571 l 2
 710.2 571 735.2 586 764.2 616 c 2
 779.2 631 l 1
 844.2 631 l 1
 837.2 611 826.2 589 810.2 562 c 128
 794.2 535 778.2 513 762.2 495 c 128
 746.2 477 728.2 462 705.2 448 c 128
 682.2 434 658.2 427 635.2 427 c 2
 619.2 427 l 1
 175.2 472 l 1
 170.2 472 l 2
 146.2 472 120.2 455 92.2002 421 c 1
 78.2002 402 l 1
 25.2002 416 l 1
EndSplineSet
Colour: ffffff
EndChar

StartChar: exclamdown
Encoding: 97 161 96
Width: 347
VWidth: 1655
GlyphClass: 2
Flags: HMW
LayerCount: 2
Fore
SplineSet
285.167 -296 m 1
 254.167 -318 218.167 -329 177.167 -328 c 128
 136.167 -327 103.167 -316 77.167 -293 c 128
 51.167 -270 34.167 -236 26.167 -191 c 1
 21.167 -171 19.167 -149 21.167 -123 c 0
 21.167 -48 39.167 81 74.167 263 c 1
 150.167 623 l 1
 221.167 636 l 1
 210.167 467 l 2
 204.167 381 202.167 275 202.167 150 c 2
 202.167 88 l 1
 207.167 -61 234.167 -189 285.167 -296 c 1
156.167 755 m 128
 145.167 761 135.167 770 124.167 783 c 128
 113.167 796 109.167 807 106.167 818 c 128
 103.167 829 102.167 836 102.167 841 c 128
 102.167 846 104.167 861 110.167 888 c 128
 116.167 915 130.167 939 153.167 962 c 128
 176.167 985 203.167 996 233.167 996 c 1
 260.167 994 280.167 985 296.167 969 c 128
 312.167 953 320.167 937 323.167 919 c 128
 326.167 901 327.167 892 327.167 890 c 128
 327.167 888 326.167 876 321.167 853 c 128
 316.167 830 303.167 808 280.167 785 c 128
 257.167 762 234.167 749 210.167 748 c 128
 186.167 747 167.167 749 156.167 755 c 128
EndSplineSet
Colour: ffffff
EndChar

StartChar: cent
Encoding: 98 162 97
Width: 658
VWidth: 0
GlyphClass: 2
Flags: HMW
LayerCount: 2
Fore
SplineSet
344.4 92 m 3
 427.4 92 477.4 122 527.4 157 c 1
 551.4 106 l 1
 490.4 30 380.4 -30 283.4 -30 c 3
 121.4 -30 20.4004 92 20.4004 307 c 0
 20.4004 674 298.4 900 470.4 900 c 3
 577.4 900 638.4 842 638.4 756 c 27
 638.4 687 573.4 649 499.4 642 c 1
 494.4 710 476.4 806 420.4 806 c 3
 323.4 806 192.4 621 192.4 330 c 0
 192.4 191 237.4 92 344.4 92 c 3
425.995 1114 m 1
 574.675 1131 l 1
 508.411 863 l 1
 417.411 863 l 1
 425.995 1114 l 1
153.45 -266 m 1
 221.4 0 l 1
 310.4 0 l 1
 303.973 -250 l 1
 153.45 -266 l 1
EndSplineSet
Colour: ffffff
EndChar

StartChar: sterling
Encoding: 99 163 98
Width: 1086
VWidth: 1655
GlyphClass: 2
Flags: HMW
LayerCount: 2
Fore
SplineSet
942.4 877 m 1
 862.4 890 l 1
 844.4 1099 l 1
 817.4 1115 791.4 1122 764.4 1122 c 0
 685.4 1122 629.4 1092 598.4 1032 c 1
 564.4 971 535.4 857 510.4 690 c 1
 503.4 643 l 1
 722.4 655 l 1
 699.4 557 l 1
 492.4 543 l 1
 485.4 505 l 1
 458.4 309 420.4 173 373.4 98 c 1
 826.4 94 l 1
 984.4 341 l 1
 1066.4 323 l 1
 989.4 0 l 1
 20.4004 0 l 1
 39.4004 73 l 1
 204.4 118 l 1
 233.4 183 261.4 294 286.4 451 c 1
 296.4 537 l 1
 120.4 527 l 1
 146.4 627 l 1
 313.4 636 l 1
 332.4 770 l 1
 355.4 918 406.4 1031 487.4 1108 c 128
 568.4 1185 669.4 1224 787.4 1224 c 0
 877.4 1224 952.4 1211 1012.4 1186 c 1
 942.4 877 l 1
EndSplineSet
Colour: ffffff
EndChar

StartChar: currency
Encoding: 100 164 99
Width: 702
VWidth: 1655
GlyphClass: 2
Flags: HMW
LayerCount: 2
Fore
SplineSet
503.8 512 m 0
 503.8 557 491.8 592 466.8 618 c 128
 441.8 644 407.8 657 363.8 657 c 128
 319.8 657 281.8 641 250.8 609 c 0
 211.8 570 192.8 523 192.8 468 c 128
 192.8 413 203.8 373 227.8 347 c 128
 251.8 321 285.8 308 328.8 308 c 0
 371.8 307 409.8 323 442.8 354 c 0
 483.8 393 503.8 445 503.8 512 c 0
608.8 514 m 0
 608.8 442 587.8 382 545.8 334 c 1
 628.8 251 l 1
 531.8 170 l 1
 465.8 259 l 1
 409.8 228 359.8 212 313.8 212 c 128
 267.8 212 223.8 226 181.8 253 c 1
 94.7998 165 l 1
 22.7998 249 l 1
 113.8 325 l 1
 95.7998 358 87.7998 403 87.7998 460 c 128
 87.7998 517 106.8 568 143.8 615 c 1
 67.7998 699 l 1
 160.8 780 l 1
 222.8 695 l 1
 275.8 734 330.8 753 385.8 752 c 0
 440.8 752 487.8 736 528.8 704 c 1
 617.8 781 l 1
 679.8 696 l 1
 587.8 623 l 1
 601.8 593 608.8 557 608.8 514 c 0
EndSplineSet
Colour: ffffff
EndChar

StartChar: yen
Encoding: 101 165 100
Width: 1084
VWidth: 1655
GlyphClass: 2
Flags: HMW
LayerCount: 2
Fore
SplineSet
361.4 484 m 1
 54.4004 484 l 1
 77.4004 583 l 1
 344.4 583 l 1
 163.4 1133 l 1
 35.4004 1176 l 1
 56.4004 1252 l 1
 521.4 1252 l 1
 498.4 1176 l 1
 360.4 1137 l 1
 517.4 641 l 1
 798.4 1133 l 1
 644.4 1176 l 1
 665.4 1252 l 1
 1064.4 1252 l 1
 1044.4 1176 l 1
 916.4 1137 l 1
 591.4 583 l 1
 893.4 583 l 1
 870.4 484 l 1
 552.4 484 l 1
 532.4 339 l 1
 860.4 339 l 1
 837.4 242 l 1
 522.4 242 l 1
 505.4 113 l 1
 665.4 78 l 1
 646.4 0 l 1
 141.4 0 l 1
 161.4 72 l 1
 319.4 120 l 1
 332.4 242 l 1
 20.4004 242 l 1
 45.4004 339 l 1
 344.4 339 l 1
 361.4 484 l 1
EndSplineSet
Colour: ffffff
EndChar

StartChar: brokenbar
Encoding: 102 166 101
Width: 339
VWidth: 1655
GlyphClass: 2
Flags: HMW
LayerCount: 2
Fore
SplineSet
20.4004 -343 m 1
 114.4 423 l 1
 221.4 411 l 1
 127.4 -355 l 1
 20.4004 -343 l 1
126.4 529 m 1
 212.4 1229 l 1
 319.4 1218 l 1
 227.4 517 l 1
 126.4 529 l 1
EndSplineSet
Colour: ffffff
EndChar

StartChar: section
Encoding: 103 167 102
Width: 954
VWidth: 1655
GlyphClass: 2
Flags: HMW
LayerCount: 2
Fore
SplineSet
869.793 832 m 1
 781.793 851 l 1
 774.793 1101 l 1
 742.793 1144 702.793 1170 655.793 1179 c 1
 642.793 1183 629.793 1184 615.793 1184 c 0
 569.793 1184 528.793 1169 490.793 1139 c 128
 452.793 1109 432.793 1068 428.793 1016 c 1
 428.793 1005 l 2
 428.793 956 441.793 914 466.793 878 c 128
 491.793 842 535.793 799 597.793 749 c 128
 659.793 699 708.793 658 745.793 623 c 128
 782.793 588 813.793 552 840.793 513 c 128
 867.793 474 884.793 429 891.793 376 c 1
 893.793 371 894.793 353 893.793 322 c 128
 892.793 291 884.793 258 867.793 225 c 1
 547.793 493 l 1
 442.793 577 364.793 650 313.793 712 c 128
 262.793 774 236.793 839 236.793 906 c 0
 236.793 911 236.793 914 237.793 918 c 1
 237.793 928 l 1
 241.793 969 252.793 1007 272.793 1043 c 0
 307.793 1109 357.793 1163 424.793 1206 c 128
 491.793 1249 561.793 1272 636.793 1278 c 1
 660.793 1278 l 2
 765.793 1278 857.793 1245 934.793 1178 c 1
 869.793 832 l 1
278.793 46 m 1
 258.793 -7 248.793 -56 249.793 -99 c 0
 249.793 -166 271.793 -214 316.793 -241 c 1
 345.793 -264 381.793 -276 424.793 -277 c 128
 467.793 -278 506.793 -266 541.793 -244 c 128
 576.793 -222 600.793 -191 615.793 -150 c 1
 623.793 -131 627.793 -110 625.793 -86 c 0
 625.793 -29 604.793 22 562.793 67 c 1
 550.793 81 509.793 117 436.793 176 c 128
 363.793 235 304.793 291 257.793 346 c 1
 225.793 386 203.793 421 190.793 452 c 128
 177.793 483 172.793 508 172.793 528 c 128
 172.793 548 172.793 558 173.793 561 c 1
 173.793 574 l 1
 177.793 607 185.793 641 200.793 676 c 1
 509.793 414 665.793 281 669.793 277 c 0
 718.793 232 755.793 191 780.793 152 c 128
 805.793 113 819.793 68 824.793 19 c 1
 826.793 14 826.793 4 826.793 -12 c 0
 826.793 -95 795.793 -170 732.793 -237 c 0
 686.793 -286 631.793 -322 567.793 -345 c 128
 503.793 -368 442.793 -380 384.793 -380 c 0
 280.793 -380 195.793 -356 128.793 -307 c 1
 99.793 -288 75.793 -263 55.793 -231 c 128
 35.793 -199 25.793 -172 22.793 -149 c 1
 20.793 -145 19.793 -137 20.793 -123 c 128
 21.793 -109 23.793 -92 28.793 -72 c 1
 45.793 -20 80.793 17 133.793 39 c 1
 156.793 50 181.793 55 207.793 56 c 128
 233.793 57 257.793 53 278.793 46 c 1
EndSplineSet
Colour: ffffff
EndChar

StartChar: dieresis
Encoding: 104 168 103
Width: 528
VWidth: 1655
GlyphClass: 2
Flags: HMW
LayerCount: 2
Fore
SplineSet
454.2 1490 m 128
 471.2 1475 479.2 1457 479.2 1435 c 128
 479.2 1413 471.2 1393 454.2 1378 c 128
 437.2 1363 417.2 1356 394.2 1356 c 128
 371.2 1356 353.2 1363 336.2 1378 c 128
 319.2 1393 311.2 1412 311.2 1435 c 128
 311.2 1458 319.2 1475 336.2 1490 c 128
 353.2 1505 371.2 1512 394.2 1512 c 128
 417.2 1512 437.2 1505 454.2 1490 c 128
192.2 1490 m 128
 209.2 1475 216.2 1457 216.2 1434 c 128
 216.2 1411 209.2 1393 192.2 1378 c 128
 175.2 1363 155.2 1356 132.2 1356 c 128
 109.2 1356 91.2002 1363 74.2002 1378 c 128
 57.2002 1393 49.2002 1412 49.2002 1435 c 128
 49.2002 1458 57.2002 1475 74.2002 1490 c 128
 91.2002 1505 109.2 1512 132.2 1512 c 128
 155.2 1512 175.2 1505 192.2 1490 c 128
EndSplineSet
Colour: ffffff
EndChar

StartChar: copyright
Encoding: 105 169 104
Width: 1295
VWidth: 1655
GlyphClass: 2
Flags: HMW
LayerCount: 2
Fore
SplineSet
503.6 421 m 128
 552.6 366 618.6 338 700.6 338 c 128
 782.6 338 852.6 361 910.6 408 c 1
 919.6 399 928.6 383 938.6 360 c 1
 861.6 286 766.6 249 654.6 249 c 0
 586.6 249 524.6 264 469.6 294 c 128
 414.6 324 369.6 367 335.6 425 c 128
 301.6 483 285.6 548 285.6 623 c 0
 285.6 771 343.6 886 459.6 971 c 1
 523.6 1016 599.6 1039 687.6 1038 c 128
 775.6 1037 846.6 1016 900.6 975 c 1
 884.6 780 l 1
 831.6 786 l 1
 809.6 916 l 1
 781.6 951 731.6 968 658.6 967 c 128
 585.6 966 528.6 940 488.6 886 c 128
 448.6 832 429.6 756 429.6 655 c 128
 429.6 554 454.6 476 503.6 421 c 128
633.6 -28 m 128
 545.6 -28 462.6 -11 386.6 22 c 128
 310.6 55 245.6 101 192.6 158 c 128
 139.6 215 97.5996 284 67.5996 364 c 128
 37.5996 444 21.5996 531 21.5996 622 c 128
 21.5996 713 38.5996 800 72.5996 882 c 128
 106.6 964 150.6 1035 207.6 1093 c 128
 264.6 1151 331.6 1198 407.6 1233 c 128
 483.6 1268 565.6 1285 655.6 1285 c 128
 745.6 1285 831.6 1267 912.6 1232 c 128
 993.6 1197 1060.6 1149 1114.6 1087 c 1
 1222.6 958 1276.6 804 1275.6 625 c 0
 1275.6 539 1259.6 455 1225.6 375 c 128
 1191.6 295 1146.6 226 1090.6 167 c 128
 1034.6 108 965.6 62 885.6 26 c 128
 805.6 -10 721.6 -28 633.6 -28 c 128
207.6 908 m 128
 163.6 824 142.6 730 142.6 627 c 128
 142.6 524 163.6 430 206.6 346 c 128
 249.6 262 307.6 196 383.6 149 c 128
 459.6 102 538.6 78 621.6 78 c 128
 704.6 78 778.6 91 841.6 118 c 128
 904.6 145 959.6 182 1005.6 230 c 128
 1051.6 278 1087.6 335 1114.6 402 c 128
 1141.6 469 1155.6 540 1155.6 615 c 0
 1155.6 767 1114.6 898 1033.6 1008 c 0
 992.6 1063 937.6 1106 869.6 1137 c 128
 801.6 1168 723.6 1184 636.6 1184 c 128
 549.6 1184 466.6 1159 389.6 1109 c 128
 312.6 1059 251.6 992 207.6 908 c 128
EndSplineSet
Colour: ffffff
EndChar

StartChar: ordfeminine
Encoding: 106 170 105
Width: 708
VWidth: 0
GlyphClass: 2
Flags: HMW
LayerCount: 2
Fore
SplineSet
439.787 932 m 1
 445.172 966 l 2
 461.777 1074 468.919 1169.6 366.97 1169.6 c 0
 296.919 1169.6 276.113 1114 242.21 977.6 c 1
 161.306 970 119.673 1004 119.673 1066 c 0
 119.673 1168 321.237 1254 438.537 1254 c 0
 589.837 1254 636.091 1177 609.588 1008.4 c 2
 568.345 748 l 2
 556.688 674.4 572.306 648 645.615 634.8 c 2
 686.975 627.6 l 1
 666.137 565.8 l 1
 619.458 529 593.369 519.6 543.22 519.6 c 0
 435.19 519.6 401.447 582.606 410.349 638.8 c 1
 400.999 638.8 l 1
 371.333 596.4 307.86 514.8 168.459 514.8 c 0
 87.7344 514.8 24 573.613 24 654.585 c 0
 24 796.262 152.046 932 439.787 932 c 1
201.12 700.979 m 0
 201.12 665.387 219.447 631.2 273.611 631.2 c 0
 333.111 631.2 371.417 679.8 404.155 709.4 c 1
 429.506 874.4 l 1
 270.878 846.688 201.12 793.795 201.12 700.979 c 0
EndSplineSet
Colour: ffffff
EndChar

StartChar: guillemotleft
Encoding: 107 171 106
Width: 652
VWidth: 0
GlyphClass: 2
Flags: HMW
LayerCount: 2
Fore
SplineSet
271.8 469 m 5
 595.8 821 l 5
 630.8 761 l 5
 417.8 461 l 5
 534.8 140 l 5
 471.8 78 l 5
 270.8 449 l 5
 271.8 469 l 5
24.7998 469 m 5
 347.8 821 l 5
 382.8 761 l 5
 169.8 461 l 5
 286.8 140 l 5
 223.8 78 l 5
 22.7998 449 l 5
 24.7998 469 l 5
EndSplineSet
Colour: ffffff
EndChar

StartChar: logicalnot
Encoding: 108 172 107
Width: 824
VWidth: 0
GlyphClass: 2
Flags: HMW
LayerCount: 2
Fore
SplineSet
54.4004 664 m 1
 799.4 664 l 1
 751.4 350 l 1
 642.4 332 l 1
 678.4 558 l 1
 26.4004 558 l 1
 54.4004 664 l 1
EndSplineSet
Colour: ffffff
EndChar

StartChar: softhyphen
Encoding: 109 173 108
Width: 498
VWidth: 0
GlyphClass: 2
Flags: HMW
LayerCount: 2
Fore
SplineSet
52.4004 522 m 1
 470.4 581 l 1
 444.4 466 l 1
 26.4004 406 l 1
 52.4004 522 l 1
EndSplineSet
Colour: ffffff
EndChar

StartChar: registered
Encoding: 110 174 109
Width: 1017
VWidth: 0
GlyphClass: 2
Flags: HMW
LayerCount: 2
Fore
SplineSet
221.75 776.9 m 1
 228.5 824.601 l 1
 308.6 852.95 l 1
 308.6 1248.5 l 1
 227.15 1265.6 l 1
 232.1 1319.15 l 1
 297.8 1329.5 411.2 1341.2 477.8 1341.2 c 0
 630.35 1341.2 722.6 1304.3 722.6 1193.6 c 0
 722.6 1123.4 663.75 1051.3 597.15 1027.9 c 1
 596.5 1026 l 5
 674.1 935.2 l 2
 724.5 877 743.579 862.651 793.8 839.4 c 2
 810 831.9 l 1
 799.65 776.9 l 1
 780.3 770.601 749.1 766.101 717.6 766.101 c 0
 626.7 766.101 585.004 822.362 535.1 917.5 c 2
 491.3 1001 l 1
 435.5 1001 l 1
 435.5 857 l 1
 509.75 830.45 l 1
 504.8 776.9 l 1
 221.75 776.9 l 1
435.5 1068.5 m 1
 514.25 1068.5 l 1
 553.85 1085.6 585.8 1117.1 585.8 1170.2 c 0
 585.8 1232.75 542.6 1271.8 469.7 1271.8 c 0
 451.7 1271.8 438.2 1270.45 435.5 1270.45 c 1
 435.5 1068.5 l 1
21.5996 1022.5 m 0
 21.5996 1344 232.6 1522.5 500.6 1522.5 c 0
 776.6 1522.5 995.6 1352 995.6 1026.5 c 0
 995.6 716 772.6 540.5 490.6 540.5 c 0
 228.6 540.5 21.5996 724 21.5996 1022.5 c 0
109.6 1036.5 m 0
 109.6 776 280.6 616.5 498.6 616.5 c 0
 726.6 616.5 907.6 784 907.6 1016.5 c 0
 907.6 1280 726.6 1446.5 500.6 1446.5 c 0
 278.6 1446.5 109.6 1300 109.6 1036.5 c 0
EndSplineSet
Colour: ffffff
EndChar

StartChar: macron
Encoding: 111 175 110
Width: 543
VWidth: 1655
GlyphClass: 2
Flags: HMW
LayerCount: 2
Fore
SplineSet
62.2002 1450 m 1
 494.2 1450 l 1
 481.2 1351 l 1
 49.2002 1351 l 1
 62.2002 1450 l 1
EndSplineSet
Colour: ffffff
EndChar

StartChar: degree
Encoding: 112 176 111
Width: 384
VWidth: 1655
GlyphClass: 2
Flags: HMW
LayerCount: 2
Fore
SplineSet
314.2 1243 m 128
 342.2 1213 355.2 1173 355.2 1125 c 128
 355.2 1077 339.2 1036 308.2 1002 c 128
 277.2 968 237.2 951 189.2 951 c 128
 141.2 951 103.2 966 74.2002 996 c 128
 45.2002 1026 31.2002 1065 31.2002 1114 c 128
 31.2002 1163 48.2002 1203 81.2002 1237 c 128
 114.2 1271 155.2 1288 202.2 1288 c 128
 249.2 1288 286.2 1273 314.2 1243 c 128
125.2 1210 m 128
 110.2 1189 103.2 1160 103.2 1126 c 128
 103.2 1092 111.2 1062 128.2 1037 c 128
 145.2 1012 168.2 999 197.2 999 c 0
 256.2 999 285.2 1037 286.2 1113 c 0
 286.2 1150 277.2 1181 259.2 1205 c 128
 241.2 1229 218.2 1241 190.2 1241 c 128
 162.2 1241 140.2 1231 125.2 1210 c 128
EndSplineSet
Colour: ffffff
EndChar

StartChar: plusminus
Encoding: 113 177 112
Width: 705
VWidth: 0
GlyphClass: 2
Flags: HMW
LayerCount: 2
Fore
SplineSet
38.127 117 m 1
 650.019 124 l 1
 633.491 20 l 1
 21.5996 13 l 1
 38.127 117 l 1
EndSplineSet
Refer: 11 43 S 1 0 -4.47035e-07 1 96.8296 81 2
Colour: ffffff
EndChar

StartChar: two.superior
Encoding: 114 178 113
Width: 677
VWidth: 0
GlyphClass: 2
Flags: HMW
LayerCount: 2
Fore
SplineSet
48.9463 638 m 1
 223.427 761 l 1
 360.842 860.438 449.742 928.414 449.742 1056.71 c 0
 449.742 1109.26 430.824 1153 359.514 1153 c 0
 310.514 1153 266.396 1127 246.328 1095 c 1
 203.896 966 l 1
 136.688 971 l 1
 148.614 1141 l 1
 201.809 1218 338.986 1257 439.986 1257 c 0
 577.925 1257 654.277 1201.73 654.277 1104.38 c 0
 654.277 922.489 464.202 804.898 281.132 696 c 2
 207.164 652 l 1
 477.164 652 l 1
 580.396 805 l 1
 634.071 784 l 1
 575 531 l 1
 24 531 l 1
 48.9463 638 l 1
EndSplineSet
Colour: ffffff
EndChar

StartChar: three.superior
Encoding: 115 179 114
Width: 649
VWidth: 0
GlyphClass: 2
Flags: HMW
LayerCount: 2
Fore
SplineSet
22.7998 563 m 1
 84.3164 762 l 1
 158.051 754 l 1
 144.669 619 l 1
 159.343 598 194.334 579 237.334 579 c 0
 330.981 579 411.636 639.22 411.636 733.142 c 0
 411.636 797.666 339.964 849 227.098 849 c 1
 220.442 908 l 1
 275.152 924.291 431.86 975.102 431.86 1092.15 c 0
 431.86 1141.95 404.668 1189 341.948 1189 c 0
 310.948 1189 279.473 1186 255.464 1167 c 1
 206.598 1010 l 1
 131.548 1016 l 1
 146.631 1187 l 1
 184.601 1231 307.202 1279 410.202 1279 c 0
 534.91 1279 626.448 1231.21 626.448 1140.37 c 0
 626.448 1018.9 518.614 955.477 415.451 927 c 1
 414.343 920 l 1
 542.226 906.55 605.73 852.098 605.73 766.735 c 0
 605.73 604.157 413.667 495 220.029 495 c 0
 125.029 495 36.1475 521 22.7998 563 c 1
EndSplineSet
Colour: ffffff
EndChar

StartChar: acute
Encoding: 116 180 115
Width: 326
VWidth: 1655
GlyphClass: 2
Flags: HMW
LayerCount: 2
Fore
SplineSet
278 1633 m 1
 98 1322 l 1
 48 1352 l 1
 167 1671 l 1
 278 1633 l 1
EndSplineSet
Colour: ffffff
EndChar

StartChar: micro
Encoding: 117 181 116
Width: 952
VWidth: 1655
GlyphClass: 2
Flags: HMW
LayerCount: 2
Fore
SplineSet
182.4 738 m 1
 51.4004 792 l 1
 74.4004 874 l 1
 346.4 895 l 1
 366.4 871 l 1
 298.4 317 l 2
 296.4 299 295.4 282 294.4 264 c 0
 294.4 159 339.4 107 429.4 106 c 0
 456.4 106 477.4 108 492.4 114 c 128
 507.4 120 517.4 123 524.4 125 c 128
 531.4 127 541.4 132 553.4 140 c 128
 565.4 148 572.4 152 576.4 154 c 0
 603.4 170 619.4 180 626.4 188 c 1
 692.4 734 l 1
 537.4 775 l 1
 558.4 867 l 1
 858.4 895 l 1
 874.4 871 l 1
 796.4 214 l 1
 793.4 178 l 1
 793.4 144 801.4 122 820.4 111 c 128
 839.4 100 861.4 94 888.4 88 c 1
 932.4 78 l 1
 912.4 -7 l 1
 855.4 -20 805.4 -26 761.4 -26 c 128
 717.4 -26 683.4 -15 661.4 7 c 128
 639.4 29 628.4 59 628.4 98 c 0
 628.4 103 628.4 106 630.4 108 c 1
 630.4 121 l 2
 630.4 123 630.4 123 631.4 125 c 1
 631.4 129 l 1
 619.4 129 l 1
 512.4 26 409.4 -26 310.4 -26 c 0
 248.4 -26 204.4 -4 178.4 39 c 1
 172.4 39 l 1
 172.4 -16 l 2
 172.4 -51 172.4 -74 170.4 -86 c 2
 150.4 -390 l 1
 20.4004 -364 l 1
 83.4004 -2 127.4 284 152.4 495 c 2
 182.4 738 l 1
EndSplineSet
Colour: ffffff
EndChar

StartChar: paragraph
Encoding: 118 182 117
Width: 1301
VWidth: 0
GlyphClass: 2
Flags: HMW
LayerCount: 2
Fore
SplineSet
536.712 1245 m 2
 882.714 1245 l 1
 685.524 0 l 1
 279.524 0 l 1
 298.245 74 l 1
 546.688 121 l 1
 709.983 1152 l 1
 670.141 1153 613.299 1154 603.299 1154 c 0
 370.619 1154 232.766 1039.23 232.766 816.553 c 0
 232.766 675.835 311.92 546 501.002 546 c 9
 467.48 448 l 1
 229.615 448 21.5996 551.091 21.5996 785.08 c 0
 21.5996 1071.96 276.818 1245 536.712 1245 c 2
764.524 0 m 1
 961.714 1245 l 1
 1281.71 1245 l 1
 1260.51 1168 l 1
 1084.49 1130 l 1
 923.584 114 l 1
 1099.19 80 l 1
 1076.52 0 l 1
 764.524 0 l 1
EndSplineSet
Colour: ffffff
EndChar

StartChar: periodcentered
Encoding: 119 183 118
Width: 296
VWidth: 1655
GlyphClass: 2
Flags: HMW
LayerCount: 2
Fore
SplineSet
63.5996 419 m 128
 39.5996 444 27.5996 473 27.5996 507 c 128
 27.5996 541 39.5996 568 62.5996 589 c 128
 85.5996 610 114.6 620 147.6 620 c 128
 180.6 620 208.6 608 232.6 586 c 128
 256.6 564 268.6 537 268.6 504 c 128
 268.6 471 256.6 443 232.6 418 c 128
 208.6 393 180.6 381 147.6 381 c 128
 114.6 381 87.5996 394 63.5996 419 c 128
EndSplineSet
Colour: ffffff
EndChar

StartChar: cedilla
Encoding: 120 184 119
Width: 276
VWidth: 1655
GlyphClass: 2
Flags: HMW
LayerCount: 2
Fore
SplineSet
158 -75 m 1
 217 -126 246 -174 245 -221 c 0
 245 -290 180 -343 50 -381 c 1
 30 -323 l 1
 86 -303 114 -276 114 -242 c 0
 114 -215 90 -179 43 -134 c 1
 138 3 l 1
 212 3 l 1
 158 -75 l 1
EndSplineSet
Colour: ffffff
EndChar

StartChar: one.superior
Encoding: 121 185 120
Width: 548
VWidth: 0
GlyphClass: 2
Flags: HMW
LayerCount: 2
Fore
SplineSet
24 531 m 5
 39.7188 605 l 5
 196.679 630 l 5
 274.604 1122 l 5
 129.604 1122 l 5
 145.8 1199 l 5
 455.085 1245 l 5
 474.085 1245 l 5
 376.204 627 l 5
 526.145 614 l 5
 507 531 l 5
 24 531 l 5
EndSplineSet
Colour: ffffff
EndChar

StartChar: ordmasculine
Encoding: 122 186 121
Width: 766
VWidth: 0
GlyphClass: 2
Flags: HMW
LayerCount: 2
Fore
SplineSet
460.199 1258 m 0
 642.466 1258 744.084 1144.33 744.084 969.448 c 0
 744.084 697.528 540.487 514 321.961 514 c 0
 125.206 514 24 634.545 24 802.837 c 0
 24 1090.28 255.548 1258 460.199 1258 c 0
199.628 810.639 m 0
 199.628 691.238 227.446 593.6 353.152 593.6 c 0
 510.234 593.6 566.444 784.34 566.444 948.204 c 0
 566.444 1067.75 531.084 1175 411.195 1175 c 0
 248.511 1175 199.628 984.086 199.628 810.639 c 0
EndSplineSet
Colour: ffffff
EndChar

StartChar: onequarter
Encoding: 124 188 123
Width: 1350
VWidth: 0
GlyphClass: 2
Flags: HMW
LayerCount: 2
Fore
SplineSet
724.4 270 m 1
 1208.4 737 l 1
 1263.4 726 l 1
 1243.4 641 1225.4 542 1207.4 430 c 2
 1182.4 272 l 1
 1330.4 272 l 1
 1306.4 175 l 1
 1167.4 175 l 1
 1152.4 83 l 1
 1271.4 65 l 1
 1254.4 0 l 1
 840.4 0 l 1
 853.4 58 l 1
 994.4 85 l 1
 1009.4 178 l 1
 722.4 178 l 1
 724.4 270 l 1
831.4 272 m 1
 1021.4 272 l 1
 1059.4 508 l 1
 831.4 272 l 1
20.4004 531 m 1
 36.4004 605 l 1
 193.4 630 l 1
 271.4 1122 l 1
 126.4 1122 l 1
 142.4 1199 l 1
 451.4 1245 l 1
 470.4 1245 l 1
 373.4 627 l 1
 522.4 614 l 1
 503.4 531 l 1
 20.4004 531 l 1
146.4 -10 m 1
 647.4 588 l 1
 1137.4 1210 l 1
 1312.4 1207 l 1
 1306.4 1178 l 1
 812.4 591 l 1
 342.4 -32 l 1
 146.4 -10 l 1
EndSplineSet
Colour: ffffff
EndChar

StartChar: onehalf
Encoding: 125 189 124
Width: 1423
VWidth: 0
GlyphClass: 2
Flags: HMW
LayerCount: 2
Fore
SplineSet
797.4 109 m 1
 972.4 232 l 2
 1006.4 256 1031.4 276 1049.4 290 c 128
 1067.4 304 1088.4 320 1110.4 341 c 128
 1132.4 362 1148.4 381 1159.4 398 c 128
 1170.4 415 1179.4 433 1187.4 456 c 128
 1195.4 479 1198.4 503 1198.4 528 c 0
 1198.4 592 1168.4 624 1108.4 624 c 0
 1084.4 624 1062.4 618 1041.4 607 c 128
 1020.4 596 1005.4 583 994.4 566 c 1
 952.4 437 l 1
 885.4 442 l 1
 897.4 612 l 1
 922.4 648 963.4 676 1020.4 697 c 128
 1077.4 718 1133.4 728 1188.4 728 c 0
 1257.4 728 1310.4 715 1347.4 688 c 128
 1384.4 661 1403.4 624 1403.4 575 c 0
 1403.4 550 1399.4 526 1391.4 501 c 128
 1383.4 476 1373.4 454 1361.4 434 c 128
 1349.4 414 1334.4 394 1313.4 372 c 128
 1292.4 350 1272.4 333 1254.4 317 c 128
 1236.4 301 1212.4 284 1183.4 264 c 128
 1154.4 244 1128.4 228 1108.4 215 c 128
 1088.4 202 1063.4 187 1030.4 167 c 2
 955.4 123 l 1
 1225.4 123 l 1
 1329.4 276 l 1
 1382.4 255 l 1
 1323.4 2 l 1
 773.4 2 l 1
 797.4 109 l 1
20.4004 531 m 1
 36.4004 605 l 1
 193.4 630 l 1
 271.4 1122 l 1
 126.4 1122 l 1
 142.4 1199 l 1
 451.4 1245 l 1
 470.4 1245 l 1
 373.4 627 l 1
 522.4 614 l 1
 503.4 531 l 1
 20.4004 531 l 1
126.4 -10 m 1
 627.4 588 l 1
 1117.4 1210 l 1
 1292.4 1207 l 1
 1286.4 1178 l 1
 792.4 591 l 1
 322.4 -32 l 1
 126.4 -10 l 1
EndSplineSet
Colour: ffffff
EndChar

StartChar: threequarters
Encoding: 126 190 125
Width: 1326
VWidth: 0
GlyphClass: 2
Flags: HMW
LayerCount: 2
Fore
SplineSet
20.4004 546 m 5
 81.4004 745 l 5
 155.4 737 l 5
 141.4 602 l 5
 149.4 591 161.4 582 178.4 574 c 132
 195.4 566 213.4 562 234.4 562 c 4
 282.4 562 324.4 576 358.4 605 c 132
 392.4 634 408.4 670 408.4 716 c 4
 408.4 749 392.4 777 358.4 799 c 132
 324.4 821 279.4 832 224.4 832 c 5
 217.4 891 l 5
 233.4 896 247.4 900 261.4 905 c 132
 275.4 910 292.4 918 314.4 929 c 132
 336.4 940 356.4 951 371.4 964 c 132
 386.4 977 399.4 992 411.4 1012 c 132
 423.4 1032 428.4 1053 428.4 1075 c 4
 428.4 1102 421.4 1125 406.4 1144 c 132
 391.4 1163 368.4 1172 338.4 1172 c 4
 299.4 1172 271.4 1165 252.4 1150 c 5
 203.4 993 l 5
 128.4 999 l 5
 143.4 1170 l 5
 163.4 1193 200.4 1214 253.4 1233 c 132
 306.4 1252 357.4 1262 407.4 1262 c 4
 471.4 1262 523.4 1250 563.4 1226 c 132
 603.4 1202 623.4 1167 623.4 1123 c 4
 623.4 1094 617.4 1067 605.4 1043 c 132
 593.4 1019 577.4 998 556.4 981 c 132
 535.4 964 513.4 951 489.4 939 c 132
 465.4 927 440.4 918 412.4 910 c 5
 411.4 903 l 5
 474.4 896 522.4 880 554.4 854 c 132
 586.4 828 603.4 793 603.4 750 c 4
 603.4 698 584.4 650 546.4 608 c 132
 508.4 566 460.4 534 402.4 512 c 132
 344.4 490 281.4 478 216.4 478 c 4
 167.4 478 124.4 484 86.4004 497 c 132
 48.4004 510 27.4004 525 20.4004 546 c 5
135.4 -10 m 5
 637.4 588 l 5
 1127.4 1210 l 5
 1302.4 1207 l 5
 1296.4 1178 l 5
 802.4 591 l 5
 332.4 -32 l 5
 135.4 -10 l 5
700.4 270 m 5
 1184.4 737 l 5
 1239.4 726 l 5
 1219.4 641 1201.4 542 1183.4 430 c 6
 1158.4 272 l 5
 1306.4 272 l 5
 1282.4 175 l 5
 1143.4 175 l 5
 1128.4 83 l 5
 1247.4 65 l 5
 1230.4 0 l 5
 816.4 0 l 5
 829.4 58 l 5
 970.4 85 l 5
 985.4 178 l 5
 698.4 178 l 5
 700.4 270 l 5
807.4 272 m 5
 997.4 272 l 5
 1035.4 508 l 5
 807.4 272 l 5
EndSplineSet
Colour: ffffff
EndChar

StartChar: questiondown
Encoding: 127 191 126
Width: 591
VWidth: 1655
GlyphClass: 2
Flags: HMW
LayerCount: 2
Fore
SplineSet
367.4 778 m 1
 357.4 791 353.4 802 350.4 813 c 128
 347.4 824 346.4 831 346.4 836 c 128
 346.4 841 348.4 857 354.4 884 c 128
 360.4 911 374.4 937 397.4 959 c 128
 420.4 981 446.4 992 477.4 992 c 1
 504.4 990 524.4 981 539.4 964 c 128
 554.4 947 563.4 932 566.4 914 c 128
 569.4 896 571.4 887 571.4 885 c 128
 571.4 883 569.4 871 564.4 848 c 128
 559.4 825 546.4 803 523.4 780 c 128
 500.4 757 477.4 745 453.4 744 c 128
 429.4 743 413.4 745 402.4 750 c 128
 391.4 755 380.4 764 367.4 778 c 1
491.4 453 m 1
 496.4 401 l 1
 496.4 361 484.4 326 461.4 295 c 128
 438.4 264 416.4 241 392.4 225 c 128
 368.4 209 337.4 195 300.4 180 c 128
 263.4 165 235.4 152 217.4 141 c 128
 199.4 130 180.4 113 161.4 91 c 128
 142.4 69 131.4 43 127.4 14 c 1
 127.4 7 l 1
 125.4 3 125.4 1 126.4 -3 c 0
 126.4 -56 150.4 -101 198.4 -136 c 1
 218.4 -149 240.4 -156 263.4 -160 c 1
 273.4 -160 l 1
 275.4 -162 280.4 -162 288.4 -162 c 128
 296.4 -162 313.4 -159 339.4 -151 c 0
 398.4 -135 441.4 -114 467.4 -89 c 1
 478.4 -94 488.4 -101 498.4 -113 c 1
 516.4 -133 524.4 -151 524.4 -169 c 128
 524.4 -187 524.4 -196 522.4 -200 c 1
 514.4 -248 483.4 -285 428.4 -311 c 0
 396.4 -327 362.4 -334 327.4 -334 c 2
 305.4 -334 l 1
 246.4 -330 195.4 -312 151.4 -278 c 128
 107.4 -244 74.4004 -199 52.4004 -146 c 128
 30.4004 -93 20.4004 -44 20.4004 -1 c 128
 20.4004 42 22.4004 73 27.4004 93 c 0
 40.4004 156 73.4004 211 127.4 258 c 1
 158.4 283 180.4 299 195.4 305 c 0
 218.4 315 232.4 319 237.4 321 c 128
 242.4 323 247.4 325 254.4 328 c 128
 261.4 331 264.4 331 266.4 332 c 128
 268.4 333 271.4 334 277.4 337 c 128
 283.4 340 285.4 341 288.4 343 c 128
 292.4 345 292.4 345 299.4 349 c 128
 304.4 352 307.4 353 310.4 355 c 128
 313.4 357 316.4 359 320.4 362 c 0
 330.4 370 339.4 380 350.4 392 c 0
 368.4 412 377.4 443 377.4 484 c 2
 377.4 505 l 1
 375.4 512 375.4 517 375.4 521 c 128
 375.4 525 374.4 542 371.4 571 c 1
 447.4 587 l 1
 471.4 528 485.4 484 491.4 453 c 1
EndSplineSet
Colour: ffffff
EndChar

StartChar: Agrave
Encoding: 128 192 127
Width: 1279
VWidth: 1655
GlyphClass: 2
Flags: HMW
LayerCount: 2
Fore
SplineSet
814.6 505 m 1
 726.6 1062 l 1
 722.6 1062 l 1
 625.6 724 l 1
 596.6 627 576.6 564 566.6 536 c 1
 814.6 505 l 1
868.6 1271 m 1
 1078.6 132 l 1
 1256.6 81 l 1
 1233.6 0 l 1
 657.6 0 l 1
 680.6 72 l 1
 878.6 108 l 1
 827.6 430 l 1
 535.6 446 l 1
 486.6 310 445.6 215 412.6 157 c 128
 379.6 99 349.6 56 321.6 29 c 128
 293.6 2 258.6 -16 219.6 -24 c 1
 201.6 -26 192.6 -27 188.6 -28 c 0
 150.6 -28 115.6 -16 83.5996 8 c 128
 51.5996 32 28.5996 62 15.5996 101 c 1
 65.5996 120 110.6 142 149.6 168 c 1
 218.6 213 282.6 274 341.6 349 c 0
 418.6 450 491.6 596 560.6 786 c 1
 615.6 947 659.6 1098 690.6 1241 c 1
 868.6 1271 l 1
589.6 1655 m 1
 703.6 1693 l 1
 832.6 1365 l 1
 775.6 1332 l 1
 589.6 1655 l 1
EndSplineSet
Colour: ffffff
EndChar

StartChar: Aacute
Encoding: 129 193 128
Width: 1279
VWidth: 1655
GlyphClass: 2
Flags: HMW
LayerCount: 2
Fore
SplineSet
814.6 505 m 1
 726.6 1062 l 1
 722.6 1062 l 1
 625.6 724 l 1
 596.6 627 576.6 564 566.6 536 c 1
 814.6 505 l 1
868.6 1271 m 1
 1078.6 132 l 1
 1256.6 81 l 1
 1233.6 0 l 1
 657.6 0 l 1
 680.6 72 l 1
 878.6 108 l 1
 827.6 430 l 1
 535.6 446 l 1
 486.6 310 445.6 215 412.6 157 c 128
 379.6 99 349.6 56 321.6 29 c 128
 293.6 2 258.6 -16 219.6 -24 c 1
 201.6 -26 192.6 -27 188.6 -28 c 0
 150.6 -28 115.6 -16 83.5996 8 c 128
 51.5996 32 28.5996 62 15.5996 101 c 1
 65.5996 120 110.6 142 149.6 168 c 1
 218.6 213 282.6 274 341.6 349 c 0
 418.6 450 491.6 596 560.6 786 c 1
 615.6 947 659.6 1098 690.6 1241 c 1
 868.6 1271 l 1
1010.6 1661 m 1
 831.6 1351 l 1
 780.6 1382 l 1
 901.6 1701 l 1
 1010.6 1661 l 1
EndSplineSet
Colour: ffffff
EndChar

StartChar: Acircumflex
Encoding: 130 194 129
Width: 1279
VWidth: 1655
GlyphClass: 2
Flags: HMW
LayerCount: 2
Fore
SplineSet
814.6 505 m 1
 726.6 1062 l 1
 722.6 1062 l 1
 625.6 724 l 1
 596.6 627 576.6 564 566.6 536 c 1
 814.6 505 l 1
868.6 1271 m 1
 1078.6 132 l 1
 1256.6 81 l 1
 1233.6 0 l 1
 657.6 0 l 1
 680.6 72 l 1
 878.6 108 l 1
 827.6 430 l 1
 535.6 446 l 1
 486.6 310 445.6 215 412.6 157 c 128
 379.6 99 349.6 56 321.6 29 c 128
 293.6 2 258.6 -16 219.6 -24 c 1
 201.6 -26 192.6 -27 188.6 -28 c 0
 150.6 -28 115.6 -16 83.5996 8 c 128
 51.5996 32 28.5996 62 15.5996 101 c 1
 65.5996 120 110.6 142 149.6 168 c 1
 218.6 213 282.6 274 341.6 349 c 0
 418.6 450 491.6 596 560.6 786 c 1
 615.6 947 659.6 1098 690.6 1241 c 1
 868.6 1271 l 1
811.6 1577 m 1
 986.6 1396 l 1
 938.6 1361 l 1
 777.6 1468 l 1
 767.6 1468 l 1
 629.6 1359 l 1
 592.6 1388 l 1
 758.6 1564 l 1
 811.6 1577 l 1
EndSplineSet
Colour: ffffff
EndChar

StartChar: Atilde
Encoding: 131 195 130
Width: 1279
VWidth: 1655
GlyphClass: 2
Flags: HMW
LayerCount: 2
Fore
SplineSet
814.6 505 m 1
 726.6 1062 l 1
 722.6 1062 l 1
 625.6 724 l 1
 596.6 627 576.6 564 566.6 536 c 1
 814.6 505 l 1
868.6 1271 m 1
 1078.6 132 l 1
 1256.6 81 l 1
 1233.6 0 l 1
 657.6 0 l 1
 680.6 72 l 1
 878.6 108 l 1
 827.6 430 l 1
 535.6 446 l 1
 486.6 310 445.6 215 412.6 157 c 128
 379.6 99 349.6 56 321.6 29 c 128
 293.6 2 258.6 -16 219.6 -24 c 1
 201.6 -26 192.6 -27 188.6 -28 c 0
 150.6 -28 115.6 -16 83.5996 8 c 128
 51.5996 32 28.5996 62 15.5996 101 c 1
 65.5996 120 110.6 142 149.6 168 c 1
 218.6 213 282.6 274 341.6 349 c 0
 418.6 450 491.6 596 560.6 786 c 1
 615.6 947 659.6 1098 690.6 1241 c 1
 868.6 1271 l 1
657.6 1419 m 2
 640.6 1419 621.6 1403 599.6 1372 c 1
 561.6 1380 l 1
 563.6 1387 566.6 1397 570.6 1411 c 128
 574.6 1425 582.6 1441 596.6 1462 c 0
 621.6 1501 649.6 1521 682.6 1522 c 2
 689.6 1522 l 1
 691.6 1520 693.6 1520 695.6 1520 c 2
 913.6 1490 l 1
 917.6 1490 l 2
 931.6 1490 949.6 1504 971.6 1531 c 1
 1019.6 1529 l 1
 988.6 1435 945.6 1388 891.6 1388 c 2
 880.6 1388 l 1
 661.6 1419 l 1
 657.6 1419 l 2
EndSplineSet
Colour: ffffff
EndChar

StartChar: Adieresis
Encoding: 132 196 131
Width: 1279
VWidth: 1655
GlyphClass: 2
Flags: HMW
LayerCount: 2
Fore
SplineSet
814.6 505 m 1
 726.6 1062 l 1
 722.6 1062 l 1
 625.6 724 l 1
 596.6 627 576.6 564 566.6 536 c 1
 814.6 505 l 1
868.6 1271 m 1
 1078.6 132 l 1
 1256.6 81 l 1
 1233.6 0 l 1
 657.6 0 l 1
 680.6 72 l 1
 878.6 108 l 1
 827.6 430 l 1
 535.6 446 l 1
 486.6 310 445.6 215 412.6 157 c 128
 379.6 99 349.6 56 321.6 29 c 128
 293.6 2 258.6 -16 219.6 -24 c 1
 201.6 -26 192.6 -27 188.6 -28 c 0
 150.6 -28 115.6 -16 83.5996 8 c 128
 51.5996 32 28.5996 62 15.5996 101 c 1
 65.5996 120 110.6 142 149.6 168 c 1
 218.6 213 282.6 274 341.6 349 c 0
 418.6 450 491.6 596 560.6 786 c 1
 615.6 947 659.6 1098 690.6 1241 c 1
 868.6 1271 l 1
980.6 1519 m 128
 997.6 1504 1005.6 1486 1005.6 1464 c 128
 1005.6 1442 997.6 1424 980.6 1408 c 128
 963.6 1392 943.6 1385 920.6 1385 c 128
 897.6 1385 877.6 1392 861.6 1408 c 128
 845.6 1424 837.6 1443 837.6 1465 c 128
 837.6 1488 845.6 1504 861.6 1519 c 128
 877.6 1534 897.6 1541 920.6 1541 c 128
 943.6 1541 963.6 1534 980.6 1519 c 128
718.6 1519 m 128
 735.6 1504 742.6 1486 742.6 1464 c 128
 742.6 1442 735.6 1423 718.6 1408 c 128
 701.6 1393 681.6 1385 658.6 1385 c 128
 635.6 1385 617.6 1392 600.6 1408 c 128
 583.6 1424 575.6 1443 575.6 1465 c 128
 575.6 1488 583.6 1504 600.6 1519 c 128
 617.6 1534 635.6 1541 658.6 1541 c 128
 681.6 1541 701.6 1534 718.6 1519 c 128
EndSplineSet
Colour: ffffff
EndChar

StartChar: Aring
Encoding: 133 197 132
Width: 1279
VWidth: 1655
GlyphClass: 2
Flags: HMW
LayerCount: 2
Fore
SplineSet
814.6 505 m 1
 726.6 1062 l 1
 722.6 1062 l 1
 625.6 724 l 1
 596.6 627 576.6 564 566.6 536 c 1
 814.6 505 l 1
868.6 1271 m 1
 1078.6 132 l 1
 1256.6 81 l 1
 1233.6 0 l 1
 657.6 0 l 1
 680.6 72 l 1
 878.6 108 l 1
 827.6 430 l 1
 535.6 446 l 1
 486.6 310 445.6 215 412.6 157 c 128
 379.6 99 349.6 56 321.6 29 c 128
 293.6 2 258.6 -16 219.6 -24 c 1
 201.6 -26 192.6 -27 188.6 -28 c 0
 150.6 -28 115.6 -16 83.5996 8 c 128
 51.5996 32 28.5996 62 15.5996 101 c 1
 65.5996 120 110.6 142 149.6 168 c 1
 218.6 213 282.6 274 341.6 349 c 0
 418.6 450 491.6 596 560.6 786 c 1
 615.6 947 659.6 1098 690.6 1241 c 1
 868.6 1271 l 1
724.6 1615 m 128
 708.6 1594 701.6 1568 701.6 1535 c 128
 701.6 1502 709.6 1473 727.6 1448 c 128
 745.6 1423 767.6 1410 794.6 1410 c 0
 850.6 1411 878.6 1448 880.6 1523 c 0
 880.6 1558 872.6 1587 854.6 1611 c 128
 836.6 1635 814.6 1647 787.6 1647 c 128
 760.6 1647 740.6 1636 724.6 1615 c 128
907.6 1649 m 128
 935.6 1619 950.6 1582 950.6 1535 c 128
 950.6 1488 934.6 1448 902.6 1414 c 128
 870.6 1380 831.6 1363 785.6 1363 c 128
 739.6 1363 701.6 1378 673.6 1408 c 128
 645.6 1438 631.6 1476 631.6 1523 c 128
 631.6 1570 647.6 1609 680.6 1643 c 128
 713.6 1677 752.6 1694 797.6 1694 c 128
 842.6 1694 879.6 1679 907.6 1649 c 128
EndSplineSet
Colour: ffffff
EndChar

StartChar: AE
Encoding: 134 198 133
Width: 1475
VWidth: 1655
GlyphClass: 2
Flags: HMW
LayerCount: 2
Fore
SplineSet
746.6 507 m 1
 726.6 1064 l 1
 720.6 1064 l 1
 626.6 726 l 1
 610.6 671 590.6 607 565.6 534 c 1
 746.6 507 l 1
1441.6 430 m 1
 1446.6 412 1448.6 375 1448.6 317 c 0
 1448.6 187 1428.6 81 1388.6 0 c 1
 1361.6 0 l 2
 1330.6 0 1305.6 0 1284.6 2 c 1
 1059.6 2 l 2
 1006.6 2 967.6 2 943.6 3 c 1
 771.6 3 l 1
 518.6 -3 l 1
 541.6 80 l 1
 758.6 134 l 1
 748.6 432 l 1
 536.6 444 l 1
 485.6 307 442.6 208 407.6 146 c 1
 374.6 91 344.6 52 318.6 26 c 128
 292.6 0 264.6 -16 236.6 -21 c 128
 208.6 -26 193.6 -28 189.6 -28 c 0
 152.6 -28 117.6 -16 84.5996 8 c 128
 51.5996 32 29.5996 63 15.5996 101 c 1
 65.5996 120 110.6 142 150.6 168 c 1
 216.6 210 279.6 270 340.6 349 c 1
 449.6 495 552.6 733 647.6 1066 c 1
 663.6 1119 677.6 1178 689.6 1241 c 1
 1432.6 1280 l 1
 1392.6 862 l 1
 1305.6 869 l 1
 1249.6 1125 l 1
 1219.6 1128 l 1
 1146.6 1135 1050.6 1139 931.6 1142 c 1
 899.6 1143 l 1
 919.6 681 l 1
 1286.6 698 l 1
 1247.6 557 l 1
 924.6 578 l 1
 952.6 101 l 1
 1037.6 108 l 2
 1151.6 120 1218.6 127 1239.6 132 c 1
 1259.6 157 1282.6 203 1307.6 270 c 128
 1332.6 337 1347.6 391 1354.6 434 c 1
 1441.6 430 l 1
EndSplineSet
Colour: ffffff
EndChar

StartChar: Ccedilla
Encoding: 135 199 134
Width: 977
VWidth: 1655
GlyphClass: 2
Flags: HMW
LayerCount: 2
Fore
SplineSet
537.8 -75 m 1
 596.8 -126 625.8 -174 624.8 -221 c 0
 624.8 -290 559.8 -343 429.8 -381 c 1
 409.8 -323 l 1
 465.8 -303 493.8 -276 494.8 -242 c 0
 494.8 -215 470.8 -179 422.8 -134 c 1
 496.8 -30 l 1
 473.8 -30 l 2
 434.8 -30 392.8 -24 347.8 -12 c 1
 254.8 17 178.8 71 117.8 151 c 128
 56.7998 231 24.7998 332 18.7998 455 c 1
 18.7998 471 l 1
 16.7998 477 16.7998 482 16.7998 488 c 0
 16.7998 707 87.7998 899 229.8 1064 c 1
 339.8 1192 469.8 1255 619.8 1254 c 0
 767.8 1254 870.8 1197 929.8 1085 c 1
 947.8 1055 955.8 1021 954.8 982 c 2
 954.8 971 l 1
 953.8 932 941.8 897 917.8 865 c 128
 893.8 833 866.8 814 837.8 806 c 128
 808.8 798 786.8 794 769.8 794 c 128
 752.8 794 736.8 796 720.8 802 c 1
 729.8 847 733.8 885 733.8 917 c 128
 733.8 949 731.8 978 726.8 1005 c 0
 716.8 1058 682.8 1097 623.8 1123 c 1
 600.8 1132 571.8 1136 534.8 1134 c 128
 497.8 1132 458.8 1117 416.8 1087 c 128
 374.8 1057 340.8 1018 315.8 971 c 0
 272.8 894 247.8 785 238.8 641 c 0
 236.8 604 235.8 583 235.8 578 c 0
 235.8 405 279.8 278 367.8 196 c 0
 419.8 148 480.8 124 549.8 125 c 0
 591.8 125 631.8 133 670.8 149 c 128
 709.8 165 744.8 190 777.8 223 c 128
 810.8 256 833.8 285 849.8 310 c 1
 891.8 248 l 1
 877.8 213 857.8 177 828.8 142 c 0
 767.8 69 691.8 19 602.8 -10 c 0
 591.8 -14 583.8 -15 577.8 -16 c 1
 537.8 -75 l 1
EndSplineSet
Colour: ffffff
EndChar

StartChar: Egrave
Encoding: 136 200 135
Width: 1227
VWidth: 1655
GlyphClass: 2
Flags: HMW
LayerCount: 2
Fore
SplineSet
1065.6 0 m 1
 697.6 2 490.6 3 447.6 3 c 1
 15.5996 -3 l 1
 38.5996 80 l 1
 256.6 134 l 1
 381.6 1094 l 1
 154.6 1117 l 1
 174.6 1194 l 1
 247.6 1209 355.6 1221 500.6 1233 c 128
 645.6 1245 781.6 1250 907.6 1250 c 2
 980.6 1250 l 1
 1204.6 1246 l 1
 1124.6 835 l 1
 1038.6 848 l 1
 1006.6 1111 l 1
 978.6 1117 l 1
 877.6 1136 754.6 1145 609.6 1143 c 2
 576.6 1143 l 1
 521.6 680 l 1
 976.6 712 l 1
 942.6 569 l 1
 509.6 578 l 1
 447.6 99 l 1
 664.6 108 l 1
 786.6 115 870.6 122 915.6 132 c 1
 938.6 169 964.6 222 995.6 292 c 128
 1026.6 362 1045.6 415 1055.6 451 c 1
 1142.6 440 l 1
 1142.6 434 l 2
 1142.6 345 1135.6 262 1121.6 182 c 128
 1107.6 102 1089.6 41 1065.6 0 c 1
606.6 1655 m 1
 719.6 1693 l 1
 848.6 1365 l 1
 792.6 1332 l 1
 606.6 1655 l 1
EndSplineSet
Colour: ffffff
EndChar

StartChar: Eacute
Encoding: 137 201 136
Width: 1227
VWidth: 1655
GlyphClass: 2
Flags: HMW
LayerCount: 2
Fore
SplineSet
1065.6 0 m 1
 697.6 2 490.6 3 447.6 3 c 1
 15.5996 -3 l 1
 38.5996 80 l 1
 256.6 134 l 1
 381.6 1094 l 1
 154.6 1117 l 1
 174.6 1194 l 1
 247.6 1209 355.6 1221 500.6 1233 c 128
 645.6 1245 781.6 1250 907.6 1250 c 2
 980.6 1250 l 1
 1204.6 1246 l 1
 1124.6 835 l 1
 1038.6 848 l 1
 1006.6 1111 l 1
 978.6 1117 l 1
 877.6 1136 754.6 1145 609.6 1143 c 2
 576.6 1143 l 1
 521.6 680 l 1
 976.6 712 l 1
 942.6 569 l 1
 509.6 578 l 1
 447.6 99 l 1
 664.6 108 l 1
 786.6 115 870.6 122 915.6 132 c 1
 938.6 169 964.6 222 995.6 292 c 128
 1026.6 362 1045.6 415 1055.6 451 c 1
 1142.6 440 l 1
 1142.6 434 l 2
 1142.6 345 1135.6 262 1121.6 182 c 128
 1107.6 102 1089.6 41 1065.6 0 c 1
1026.6 1661 m 1
 846.6 1351 l 1
 797.6 1382 l 1
 916.6 1701 l 1
 1026.6 1661 l 1
EndSplineSet
Colour: ffffff
EndChar

StartChar: Ecircumflex
Encoding: 138 202 137
Width: 1227
VWidth: 1655
GlyphClass: 2
Flags: HMW
LayerCount: 2
Fore
SplineSet
1065.6 0 m 1
 697.6 2 490.6 3 447.6 3 c 1
 15.5996 -3 l 1
 38.5996 80 l 1
 256.6 134 l 1
 381.6 1094 l 1
 154.6 1117 l 1
 174.6 1194 l 1
 247.6 1209 355.6 1221 500.6 1233 c 128
 645.6 1245 781.6 1250 907.6 1250 c 2
 980.6 1250 l 1
 1204.6 1246 l 1
 1124.6 835 l 1
 1038.6 848 l 1
 1006.6 1111 l 1
 978.6 1117 l 1
 877.6 1136 754.6 1145 609.6 1143 c 2
 576.6 1143 l 1
 521.6 680 l 1
 976.6 712 l 1
 942.6 569 l 1
 509.6 578 l 1
 447.6 99 l 1
 664.6 108 l 1
 786.6 115 870.6 122 915.6 132 c 1
 938.6 169 964.6 222 995.6 292 c 128
 1026.6 362 1045.6 415 1055.6 451 c 1
 1142.6 440 l 1
 1142.6 434 l 2
 1142.6 345 1135.6 262 1121.6 182 c 128
 1107.6 102 1089.6 41 1065.6 0 c 1
827.6 1577 m 1
 1002.6 1396 l 1
 953.6 1361 l 1
 793.6 1468 l 1
 783.6 1468 l 1
 646.6 1359 l 1
 609.6 1388 l 1
 773.6 1564 l 1
 827.6 1577 l 1
EndSplineSet
Colour: ffffff
EndChar

StartChar: Edieresis
Encoding: 139 203 138
Width: 1227
VWidth: 1655
GlyphClass: 2
Flags: HMW
LayerCount: 2
Fore
SplineSet
1065.6 0 m 1
 697.6 2 490.6 3 447.6 3 c 1
 15.5996 -3 l 1
 38.5996 80 l 1
 256.6 134 l 1
 381.6 1094 l 1
 154.6 1117 l 1
 174.6 1194 l 1
 247.6 1209 355.6 1221 500.6 1233 c 128
 645.6 1245 781.6 1250 907.6 1250 c 2
 980.6 1250 l 1
 1204.6 1246 l 1
 1124.6 835 l 1
 1038.6 848 l 1
 1006.6 1111 l 1
 978.6 1117 l 1
 877.6 1136 754.6 1145 609.6 1143 c 2
 576.6 1143 l 1
 521.6 680 l 1
 976.6 712 l 1
 942.6 569 l 1
 509.6 578 l 1
 447.6 99 l 1
 664.6 108 l 1
 786.6 115 870.6 122 915.6 132 c 1
 938.6 169 964.6 222 995.6 292 c 128
 1026.6 362 1045.6 415 1055.6 451 c 1
 1142.6 440 l 1
 1142.6 434 l 2
 1142.6 345 1135.6 262 1121.6 182 c 128
 1107.6 102 1089.6 41 1065.6 0 c 1
996.6 1519 m 128
 1014.6 1504 1022.6 1486 1022.6 1464 c 128
 1022.6 1442 1014.6 1424 996.6 1408 c 128
 978.6 1392 959.6 1385 936.6 1385 c 128
 913.6 1385 894.6 1392 877.6 1408 c 128
 860.6 1424 853.6 1443 853.6 1465 c 128
 853.6 1488 860.6 1504 877.6 1519 c 128
 894.6 1534 913.6 1541 936.6 1541 c 128
 959.6 1541 978.6 1534 996.6 1519 c 128
732.6 1519 m 128
 749.6 1504 757.6 1486 757.6 1464 c 128
 757.6 1442 749.6 1423 732.6 1408 c 128
 715.6 1393 697.6 1385 674.6 1385 c 128
 651.6 1385 631.6 1392 614.6 1408 c 128
 597.6 1424 590.6 1443 590.6 1465 c 128
 590.6 1488 597.6 1504 614.6 1519 c 128
 631.6 1534 651.6 1541 674.6 1541 c 128
 697.6 1541 715.6 1534 732.6 1519 c 128
EndSplineSet
Colour: ffffff
EndChar

StartChar: Igrave
Encoding: 140 204 139
Width: 815
VWidth: 1655
GlyphClass: 2
Flags: HMW
LayerCount: 2
Fore
SplineSet
641.6 0 m 1
 15.5996 0 l 1
 33.5996 78 l 1
 256.6 129 l 1
 379.6 1090 l 1
 153.6 1123 l 1
 172.6 1199 l 1
 320.6 1230 474.6 1246 636.6 1246 c 0
 677.6 1246 729.6 1244 792.6 1239 c 1
 773.6 1164 l 1
 574.6 1142 l 1
 447.6 106 l 1
 665.6 81 l 1
 641.6 0 l 1
317.6 1650 m 1
 431.6 1687 l 1
 560.6 1361 l 1
 504.6 1327 l 1
 317.6 1650 l 1
EndSplineSet
Colour: ffffff
EndChar

StartChar: Iacute
Encoding: 141 205 140
Width: 815
VWidth: 1655
GlyphClass: 2
Flags: HMW
LayerCount: 2
Fore
SplineSet
641.6 0 m 1
 15.5996 0 l 1
 33.5996 78 l 1
 256.6 129 l 1
 379.6 1090 l 1
 153.6 1123 l 1
 172.6 1199 l 1
 320.6 1230 474.6 1246 636.6 1246 c 0
 677.6 1246 729.6 1244 792.6 1239 c 1
 773.6 1164 l 1
 574.6 1142 l 1
 447.6 106 l 1
 665.6 81 l 1
 641.6 0 l 1
738.6 1657 m 1
 558.6 1345 l 1
 509.6 1377 l 1
 628.6 1696 l 1
 738.6 1657 l 1
EndSplineSet
Colour: ffffff
EndChar

StartChar: Icircumflex
Encoding: 142 206 141
Width: 815
VWidth: 1655
GlyphClass: 2
Flags: HMW
LayerCount: 2
Fore
SplineSet
641.6 0 m 1
 15.5996 0 l 1
 33.5996 78 l 1
 256.6 129 l 1
 379.6 1090 l 1
 153.6 1123 l 1
 172.6 1199 l 1
 320.6 1230 474.6 1246 636.6 1246 c 0
 677.6 1246 729.6 1244 792.6 1239 c 1
 773.6 1164 l 1
 574.6 1142 l 1
 447.6 106 l 1
 665.6 81 l 1
 641.6 0 l 1
539.6 1572 m 1
 714.6 1391 l 1
 665.6 1356 l 1
 506.6 1463 l 1
 496.6 1463 l 1
 358.6 1354 l 1
 320.6 1383 l 1
 486.6 1559 l 1
 539.6 1572 l 1
EndSplineSet
Colour: ffffff
EndChar

StartChar: Idieresis
Encoding: 143 207 142
Width: 816
VWidth: 1655
GlyphClass: 2
Flags: HMW
LayerCount: 2
Fore
SplineSet
641.6 0 m 1
 15.5996 0 l 1
 33.5996 78 l 1
 256.6 129 l 1
 379.6 1090 l 1
 153.6 1123 l 1
 172.6 1199 l 1
 320.6 1230 474.6 1246 636.6 1246 c 0
 679.6 1246 731.6 1244 793.6 1239 c 1
 773.6 1164 l 1
 574.6 1142 l 1
 447.6 106 l 1
 665.6 81 l 1
 641.6 0 l 1
708.6 1514 m 128
 725.6 1499 733.6 1481 733.6 1459 c 128
 733.6 1437 725.6 1419 708.6 1403 c 128
 691.6 1387 671.6 1380 648.6 1380 c 128
 625.6 1380 606.6 1387 589.6 1403 c 128
 572.6 1419 565.6 1438 565.6 1460 c 128
 565.6 1483 572.6 1499 589.6 1514 c 128
 606.6 1529 625.6 1536 648.6 1536 c 128
 671.6 1536 691.6 1529 708.6 1514 c 128
445.6 1514 m 128
 462.6 1499 470.6 1481 470.6 1459 c 128
 470.6 1437 462.6 1418 445.6 1403 c 128
 428.6 1388 408.6 1380 385.6 1380 c 128
 362.6 1380 343.6 1387 327.6 1403 c 128
 311.6 1419 303.6 1438 303.6 1460 c 128
 303.6 1483 311.6 1499 327.6 1514 c 128
 343.6 1529 362.6 1536 385.6 1536 c 128
 408.6 1536 428.6 1529 445.6 1514 c 128
EndSplineSet
Colour: ffffff
EndChar

StartChar: Eth
Encoding: 144 208 143
Width: 1413
VWidth: 1655
GlyphClass: 2
Flags: HMW
LayerCount: 2
Fore
SplineSet
495.6 551 m 1
 441.6 106 l 1
 451.6 106 l 1
 455.6 104 465.6 104 486.6 104 c 128
 507.6 104 545.6 107 602.6 113 c 0
 742.6 126 859.6 160 953.6 218 c 128
 1047.6 276 1113.6 353 1150.6 450 c 1
 1175.6 515 1187.6 589 1187.6 672 c 0
 1187.6 755 1169.6 832 1134.6 904 c 1
 1109.6 957 1075.6 1001 1033.6 1037 c 128
 991.6 1073 932.6 1104 856.6 1132 c 128
 780.6 1160 720.6 1174 675.6 1175 c 128
 630.6 1176 594.6 1175 568.6 1171 c 1
 506.6 649 l 1
 757.6 660 l 1
 729.6 561 l 1
 495.6 551 l 1
15.5996 0 m 1
 35.5996 77 l 1
 244.6 129 l 1
 300.6 541 l 1
 134.6 536 l 1
 160.6 634 l 1
 314.6 641 l 1
 371.6 1068 l 1
 154.6 1085 l 1
 175.6 1158 l 1
 340.6 1220 531.6 1251 748.6 1250 c 0
 788.6 1250 813.6 1250 824.6 1249 c 1
 1004.6 1240 1138.6 1200 1227.6 1127 c 1
 1267.6 1094 1300.6 1055 1326.6 1009 c 0
 1369.6 932 1391.6 846 1390.6 752 c 0
 1390.6 727 1389.6 704 1385.6 681 c 1
 1367.6 507 1291.6 358 1157.6 234 c 0
 1032.6 119 875.6 47 687.6 18 c 0
 608.6 6 494.6 0 343.6 0 c 2
 15.5996 0 l 1
EndSplineSet
Colour: ffffff
EndChar

StartChar: Ntilde
Encoding: 145 209 144
Width: 1531
VWidth: 1655
GlyphClass: 2
Flags: HMW
LayerCount: 2
Fore
SplineSet
1018.6 -31 m 1
 463.6 999 l 1
 460.6 999 l 1
 441.6 486 l 2
 436.6 381 428.6 298 414.6 239 c 128
 400.6 180 373.6 124 334.6 70 c 1
 281.6 3 225.6 -31 165.6 -31 c 2
 158.6 -31 l 1
 99.5996 -25 58.5996 1 33.5996 49 c 1
 24.5996 69 19.5996 87 15.5996 103 c 1
 94.5996 140 157.6 186 204.6 242 c 1
 298.6 359 348.6 567 356.6 864 c 1
 358.6 984 359.6 1053 360.6 1071 c 1
 134.6 1125 l 1
 156.6 1201 l 1
 249.6 1220 323.6 1230 380.6 1235 c 128
 437.6 1240 498.6 1243 565.6 1246 c 1
 653.6 1078 l 1
 1088.6 274 l 1
 1159.6 1106 l 1
 932.6 1122 l 1
 952.6 1197 l 1
 1055.6 1220 1139.6 1233 1201.6 1238 c 128
 1263.6 1243 1318.6 1245 1365.6 1245 c 128
 1412.6 1245 1460.6 1243 1508.6 1239 c 1
 1487.6 1163 l 1
 1282.6 1109 l 1
 1178.6 2 l 1
 1018.6 -31 l 1
705.6 1419 m 2
 688.6 1419 669.6 1403 646.6 1372 c 1
 609.6 1380 l 1
 611.6 1387 613.6 1397 617.6 1411 c 128
 621.6 1425 629.6 1441 643.6 1462 c 0
 668.6 1501 696.6 1521 728.6 1522 c 2
 734.6 1522 l 1
 736.6 1520 737.6 1520 741.6 1520 c 2
 959.6 1490 l 1
 963.6 1490 l 2
 977.6 1490 995.6 1504 1018.6 1531 c 1
 1065.6 1529 l 1
 1034.6 1435 991.6 1388 936.6 1388 c 2
 927.6 1388 l 1
 708.6 1419 l 1
 705.6 1419 l 2
EndSplineSet
Colour: ffffff
EndChar

StartChar: Ograve
Encoding: 146 210 145
Width: 1105
VWidth: 1655
GlyphClass: 2
Flags: HMW
LayerCount: 2
Fore
SplineSet
224.8 651 m 0
 224.8 495 254.8 368 314.8 269 c 128
 374.8 170 453.8 120 549.8 120 c 128
 645.8 120 723.8 167 784.8 260 c 128
 845.8 353 875.8 475 875.8 625 c 0
 875.8 720 862.8 805 835.8 881 c 128
 808.8 957 767.8 1018 714.8 1063 c 128
 661.8 1108 600.8 1130 533.8 1130 c 128
 466.8 1130 409.8 1108 362.8 1064 c 1
 269.8 975 223.8 838 224.8 651 c 0
1082.8 744 m 1
 1080.8 596 1045.8 457 977.8 325 c 1
 900.8 179 801.8 78 683.8 21 c 0
 616.8 -12 542.8 -28 460.8 -28 c 128
 378.8 -28 302.8 -4 232.8 45 c 128
 162.8 94 109.8 158 72.7998 238 c 128
 35.7998 318 16.7998 408 16.7998 505 c 0
 16.7998 642 42.7998 769 94.7998 886 c 128
 146.8 1003 220.8 1098 315.8 1169 c 128
 410.8 1240 519.8 1275 639.8 1275 c 0
 730.8 1275 810.8 1249 881.8 1196 c 128
 952.8 1143 1004.8 1077 1035.8 998 c 128
 1066.8 919 1082.8 836 1082.8 748 c 2
 1082.8 744 l 1
422.8 1655 m 1
 535.8 1693 l 1
 665.8 1365 l 1
 608.8 1332 l 1
 422.8 1655 l 1
EndSplineSet
Colour: ffffff
EndChar

StartChar: Oacute
Encoding: 147 211 146
Width: 1105
VWidth: 1655
GlyphClass: 2
Flags: HMW
LayerCount: 2
Fore
SplineSet
224.8 651 m 0
 224.8 495 254.8 368 314.8 269 c 128
 374.8 170 453.8 120 549.8 120 c 128
 645.8 120 723.8 167 784.8 260 c 128
 845.8 353 875.8 475 875.8 625 c 0
 875.8 720 862.8 805 835.8 881 c 128
 808.8 957 767.8 1018 714.8 1063 c 128
 661.8 1108 600.8 1130 533.8 1130 c 128
 466.8 1130 409.8 1108 362.8 1064 c 1
 269.8 975 223.8 838 224.8 651 c 0
1082.8 744 m 1
 1080.8 596 1045.8 457 977.8 325 c 1
 900.8 179 801.8 78 683.8 21 c 0
 616.8 -12 542.8 -28 460.8 -28 c 128
 378.8 -28 302.8 -4 232.8 45 c 128
 162.8 94 109.8 158 72.7998 238 c 128
 35.7998 318 16.7998 408 16.7998 505 c 0
 16.7998 642 42.7998 769 94.7998 886 c 128
 146.8 1003 220.8 1098 315.8 1169 c 128
 410.8 1240 519.8 1275 639.8 1275 c 0
 730.8 1275 810.8 1249 881.8 1196 c 128
 952.8 1143 1004.8 1077 1035.8 998 c 128
 1066.8 919 1082.8 836 1082.8 748 c 2
 1082.8 744 l 1
843.8 1661 m 1
 663.8 1351 l 1
 613.8 1382 l 1
 732.8 1701 l 1
 843.8 1661 l 1
EndSplineSet
Colour: ffffff
EndChar

StartChar: Ocircumflex
Encoding: 148 212 147
Width: 1105
VWidth: 1655
GlyphClass: 2
Flags: HMW
LayerCount: 2
Fore
SplineSet
224.8 651 m 0
 224.8 495 254.8 368 314.8 269 c 128
 374.8 170 453.8 120 549.8 120 c 128
 645.8 120 723.8 167 784.8 260 c 128
 845.8 353 875.8 475 875.8 625 c 0
 875.8 720 862.8 805 835.8 881 c 128
 808.8 957 767.8 1018 714.8 1063 c 128
 661.8 1108 600.8 1130 533.8 1130 c 128
 466.8 1130 409.8 1108 362.8 1064 c 1
 269.8 975 223.8 838 224.8 651 c 0
1082.8 744 m 1
 1080.8 596 1045.8 457 977.8 325 c 1
 900.8 179 801.8 78 683.8 21 c 0
 616.8 -12 542.8 -28 460.8 -28 c 128
 378.8 -28 302.8 -4 232.8 45 c 128
 162.8 94 109.8 158 72.7998 238 c 128
 35.7998 318 16.7998 408 16.7998 505 c 0
 16.7998 642 42.7998 769 94.7998 886 c 128
 146.8 1003 220.8 1098 315.8 1169 c 128
 410.8 1240 519.8 1275 639.8 1275 c 0
 730.8 1275 810.8 1249 881.8 1196 c 128
 952.8 1143 1004.8 1077 1035.8 998 c 128
 1066.8 919 1082.8 836 1082.8 748 c 2
 1082.8 744 l 1
644.8 1577 m 1
 819.8 1396 l 1
 770.8 1361 l 1
 610.8 1468 l 1
 600.8 1468 l 1
 463.8 1359 l 1
 426.8 1388 l 1
 591.8 1564 l 1
 644.8 1577 l 1
EndSplineSet
Colour: ffffff
EndChar

StartChar: Otilde
Encoding: 149 213 148
Width: 1105
VWidth: 1655
GlyphClass: 2
Flags: HMW
LayerCount: 2
Fore
SplineSet
224.8 651 m 0
 224.8 495 254.8 368 314.8 269 c 128
 374.8 170 453.8 120 549.8 120 c 128
 645.8 120 723.8 167 784.8 260 c 128
 845.8 353 875.8 475 875.8 625 c 0
 875.8 720 862.8 805 835.8 881 c 128
 808.8 957 767.8 1018 714.8 1063 c 128
 661.8 1108 600.8 1130 533.8 1130 c 128
 466.8 1130 409.8 1108 362.8 1064 c 1
 269.8 975 223.8 838 224.8 651 c 0
1082.8 744 m 1
 1080.8 596 1045.8 457 977.8 325 c 1
 900.8 179 801.8 78 683.8 21 c 0
 616.8 -12 542.8 -28 460.8 -28 c 128
 378.8 -28 302.8 -4 232.8 45 c 128
 162.8 94 109.8 158 72.7998 238 c 128
 35.7998 318 16.7998 408 16.7998 505 c 0
 16.7998 642 42.7998 769 94.7998 886 c 128
 146.8 1003 220.8 1098 315.8 1169 c 128
 410.8 1240 519.8 1275 639.8 1275 c 0
 730.8 1275 810.8 1249 881.8 1196 c 128
 952.8 1143 1004.8 1077 1035.8 998 c 128
 1066.8 919 1082.8 836 1082.8 748 c 2
 1082.8 744 l 1
491.8 1419 m 2
 474.8 1419 455.8 1403 432.8 1372 c 1
 394.8 1380 l 1
 396.8 1387 399.8 1397 403.8 1411 c 128
 407.8 1425 415.8 1441 429.8 1462 c 0
 454.8 1501 482.8 1521 515.8 1522 c 2
 522.8 1522 l 1
 524.8 1520 525.8 1520 527.8 1520 c 2
 746.8 1490 l 1
 749.8 1490 l 2
 763.8 1490 781.8 1504 804.8 1531 c 1
 851.8 1529 l 1
 820.8 1435 777.8 1388 724.8 1388 c 2
 712.8 1388 l 1
 494.8 1419 l 1
 491.8 1419 l 2
EndSplineSet
Colour: ffffff
EndChar

StartChar: Odieresis
Encoding: 150 214 149
Width: 1105
VWidth: 1655
GlyphClass: 2
Flags: HMW
LayerCount: 2
Fore
SplineSet
224.8 651 m 0
 224.8 495 254.8 368 314.8 269 c 128
 374.8 170 453.8 120 549.8 120 c 128
 645.8 120 723.8 167 784.8 260 c 128
 845.8 353 875.8 475 875.8 625 c 0
 875.8 720 862.8 805 835.8 881 c 128
 808.8 957 767.8 1018 714.8 1063 c 128
 661.8 1108 600.8 1130 533.8 1130 c 128
 466.8 1130 409.8 1108 362.8 1064 c 1
 269.8 975 223.8 838 224.8 651 c 0
1082.8 744 m 1
 1080.8 596 1045.8 457 977.8 325 c 1
 900.8 179 801.8 78 683.8 21 c 0
 616.8 -12 542.8 -28 460.8 -28 c 128
 378.8 -28 302.8 -4 232.8 45 c 128
 162.8 94 109.8 158 72.7998 238 c 128
 35.7998 318 16.7998 408 16.7998 505 c 0
 16.7998 642 42.7998 769 94.7998 886 c 128
 146.8 1003 220.8 1098 315.8 1169 c 128
 410.8 1240 519.8 1275 639.8 1275 c 0
 730.8 1275 810.8 1249 881.8 1196 c 128
 952.8 1143 1004.8 1077 1035.8 998 c 128
 1066.8 919 1082.8 836 1082.8 748 c 2
 1082.8 744 l 1
813.8 1519 m 128
 830.8 1504 838.8 1486 838.8 1464 c 128
 838.8 1442 830.8 1424 813.8 1408 c 128
 796.8 1392 776.8 1385 753.8 1385 c 128
 730.8 1385 712.8 1392 695.8 1408 c 128
 678.8 1424 670.8 1443 670.8 1465 c 128
 670.8 1488 678.8 1504 695.8 1519 c 128
 712.8 1534 730.8 1541 753.8 1541 c 128
 776.8 1541 796.8 1534 813.8 1519 c 128
549.8 1519 m 128
 566.8 1504 574.8 1486 574.8 1464 c 128
 574.8 1442 566.8 1423 549.8 1408 c 128
 532.8 1393 513.8 1385 490.8 1385 c 128
 467.8 1385 448.8 1392 432.8 1408 c 128
 416.8 1424 408.8 1443 408.8 1465 c 128
 408.8 1488 416.8 1504 432.8 1519 c 128
 448.8 1534 467.8 1541 490.8 1541 c 128
 513.8 1541 532.8 1534 549.8 1519 c 128
EndSplineSet
Colour: ffffff
EndChar

StartChar: multiply
Encoding: 151 215 150
Width: 532
VWidth: 1655
GlyphClass: 2
Flags: HMW
LayerCount: 2
Fore
SplineSet
252.6 380 m 1
 70.5996 223 l 1
 15.5996 305 l 1
 186.6 453 l 1
 53.5996 607 l 1
 142.6 672 l 1
 274.6 520 l 1
 456.6 678 l 1
 509.6 595 l 1
 337.6 448 l 1
 473.6 291 l 1
 384.6 227 l 1
 252.6 380 l 1
EndSplineSet
Colour: ffffff
EndChar

StartChar: Oslash
Encoding: 152 216 151
Width: 1106
VWidth: 1655
GlyphClass: 2
Flags: HMW
LayerCount: 2
Fore
SplineSet
363 205 m 5
 417 148 479 119 550 120 c 0
 647 120 725 167 786 260 c 128
 847 353 877 474 877 623 c 128
 877 772 845 895 781 992 c 5
 645.479 730.513 520.562 471.382 363 205 c 5
226 651 m 0
 226 496 256 370 315 272 c 1
 728 1053 l 1
 671 1104 607 1130 538 1130 c 128
 469 1130 411 1108 364 1064 c 1
 271 975 225 838 226 651 c 0
834 1296 m 1
 976 1304 l 1
 909 1176 l 1
 965 1128 1009 1066 1039 989 c 128
 1069 912 1084 832 1084 748 c 2
 1084 744 l 1
 1082 596 1047 457 979 325 c 1
 902 179 803 78 685 21 c 0
 618 -12 550 -28 479 -28 c 128
 408 -28 344 -14 287 14 c 1
 237 -73 l 1
 94 -81 l 1
 186 84 l 1
 69.2803 211.753 18 327 18 521 c 128
 18 648 44 769 96 886 c 128
 148 1003 222 1098 317 1169 c 128
 412 1240 521 1275 641 1275 c 0
 699 1275 753 1264 804 1243 c 1
 834 1296 l 1
EndSplineSet
Colour: ffffff
EndChar

StartChar: Ugrave
Encoding: 153 217 152
Width: 1451
VWidth: 1655
GlyphClass: 2
Flags: HMW
LayerCount: 2
Fore
SplineSet
237.6 1087 m 1
 15.5996 1123 l 1
 37.5996 1199 l 1
 147.6 1219 243.6 1231 325.6 1237 c 128
 407.6 1243 477.6 1245 537.6 1245 c 128
 597.6 1245 635.6 1245 653.6 1243 c 1
 635.6 1166 l 1
 436.6 1138 l 1
 388.6 745 l 2
 388.6 743 388.6 735 386.6 721 c 128
 384.6 707 382.6 682 377.6 647 c 128
 372.6 612 371.6 585 369.6 566 c 128
 367.6 547 367.6 521 367.6 488 c 128
 367.6 455 368.6 428 371.6 405 c 0
 374.6 382 378.6 357 385.6 330 c 0
 400.6 274 431.6 227 479.6 188 c 1
 529.6 145 588.6 123 657.6 123 c 0
 787.6 123 881.6 179 938.6 290 c 1
 965.6 343 985.6 425 1001.6 534 c 2
 1075.6 1111 l 1
 850.6 1120 l 1
 868.6 1197 l 1
 1009.6 1228 1155.6 1243 1308.6 1243 c 0
 1319.6 1243 1359.6 1242 1428.6 1239 c 1
 1408.6 1163 l 1
 1201.6 1096 l 1
 1116.6 517 l 2
 1087.6 325 1036.6 191 961.6 114 c 0
 926.6 77 877.6 43 815.6 12 c 128
 753.6 -19 679.6 -34 594.6 -34 c 2
 586.6 -34 l 1
 458.6 -28 358.6 11 287.6 83 c 0
 206.6 164 166.6 277 165.6 425 c 0
 165.6 460 173.6 552 191.6 702 c 2
 237.6 1087 l 1
558.6 1655 m 1
 672.6 1693 l 1
 801.6 1365 l 1
 745.6 1332 l 1
 558.6 1655 l 1
EndSplineSet
Colour: ffffff
EndChar

StartChar: Uacute
Encoding: 154 218 153
Width: 1451
VWidth: 1655
GlyphClass: 2
Flags: HMW
LayerCount: 2
Fore
SplineSet
237.6 1087 m 1
 15.5996 1123 l 1
 37.5996 1199 l 1
 147.6 1219 243.6 1231 325.6 1237 c 128
 407.6 1243 477.6 1245 537.6 1245 c 128
 597.6 1245 635.6 1245 653.6 1243 c 1
 635.6 1166 l 1
 436.6 1138 l 1
 388.6 745 l 2
 388.6 743 388.6 735 386.6 721 c 128
 384.6 707 382.6 682 377.6 647 c 128
 372.6 612 371.6 585 369.6 566 c 128
 367.6 547 367.6 521 367.6 488 c 128
 367.6 455 368.6 428 371.6 405 c 0
 374.6 382 378.6 357 385.6 330 c 0
 400.6 274 431.6 227 479.6 188 c 1
 529.6 145 588.6 123 657.6 123 c 0
 787.6 123 881.6 179 938.6 290 c 1
 965.6 343 985.6 425 1001.6 534 c 2
 1075.6 1111 l 1
 850.6 1120 l 1
 868.6 1197 l 1
 1009.6 1228 1155.6 1243 1308.6 1243 c 0
 1319.6 1243 1359.6 1242 1428.6 1239 c 1
 1408.6 1163 l 1
 1201.6 1096 l 1
 1116.6 517 l 2
 1087.6 325 1036.6 191 961.6 114 c 0
 926.6 77 877.6 43 815.6 12 c 128
 753.6 -19 679.6 -34 594.6 -34 c 2
 586.6 -34 l 1
 458.6 -28 358.6 11 287.6 83 c 0
 206.6 164 166.6 277 165.6 425 c 0
 165.6 460 173.6 552 191.6 702 c 2
 237.6 1087 l 1
980.6 1661 m 1
 799.6 1351 l 1
 750.6 1382 l 1
 869.6 1701 l 1
 980.6 1661 l 1
EndSplineSet
Colour: ffffff
EndChar

StartChar: Ucircumflex
Encoding: 155 219 154
Width: 1451
VWidth: 1655
GlyphClass: 2
Flags: HMW
LayerCount: 2
Fore
SplineSet
237.6 1087 m 1
 15.5996 1123 l 1
 37.5996 1199 l 1
 147.6 1219 243.6 1231 325.6 1237 c 128
 407.6 1243 477.6 1245 537.6 1245 c 128
 597.6 1245 635.6 1245 653.6 1243 c 1
 635.6 1166 l 1
 436.6 1138 l 1
 388.6 745 l 2
 388.6 743 388.6 735 386.6 721 c 128
 384.6 707 382.6 682 377.6 647 c 128
 372.6 612 371.6 585 369.6 566 c 128
 367.6 547 367.6 521 367.6 488 c 128
 367.6 455 368.6 428 371.6 405 c 0
 374.6 382 378.6 357 385.6 330 c 0
 400.6 274 431.6 227 479.6 188 c 1
 529.6 145 588.6 123 657.6 123 c 0
 787.6 123 881.6 179 938.6 290 c 1
 965.6 343 985.6 425 1001.6 534 c 2
 1075.6 1111 l 1
 850.6 1120 l 1
 868.6 1197 l 1
 1009.6 1228 1155.6 1243 1308.6 1243 c 0
 1319.6 1243 1359.6 1242 1428.6 1239 c 1
 1408.6 1163 l 1
 1201.6 1096 l 1
 1116.6 517 l 2
 1087.6 325 1036.6 191 961.6 114 c 0
 926.6 77 877.6 43 815.6 12 c 128
 753.6 -19 679.6 -34 594.6 -34 c 2
 586.6 -34 l 1
 458.6 -28 358.6 11 287.6 83 c 0
 206.6 164 166.6 277 165.6 425 c 0
 165.6 460 173.6 552 191.6 702 c 2
 237.6 1087 l 1
780.6 1577 m 1
 955.6 1396 l 1
 907.6 1361 l 1
 746.6 1468 l 1
 736.6 1468 l 1
 599.6 1359 l 1
 562.6 1388 l 1
 727.6 1564 l 1
 780.6 1577 l 1
EndSplineSet
Colour: ffffff
EndChar

StartChar: Udieresis
Encoding: 156 220 155
Width: 1451
VWidth: 1655
GlyphClass: 2
Flags: HMW
LayerCount: 2
Fore
SplineSet
237.6 1087 m 1
 15.5996 1123 l 1
 37.5996 1199 l 1
 147.6 1219 243.6 1231 325.6 1237 c 128
 407.6 1243 477.6 1245 537.6 1245 c 128
 597.6 1245 635.6 1245 653.6 1243 c 1
 635.6 1166 l 1
 436.6 1138 l 1
 388.6 745 l 2
 388.6 743 388.6 735 386.6 721 c 128
 384.6 707 382.6 682 377.6 647 c 128
 372.6 612 371.6 585 369.6 566 c 128
 367.6 547 367.6 521 367.6 488 c 128
 367.6 455 368.6 428 371.6 405 c 0
 374.6 382 378.6 357 385.6 330 c 0
 400.6 274 431.6 227 479.6 188 c 1
 529.6 145 588.6 123 657.6 123 c 0
 787.6 123 881.6 179 938.6 290 c 1
 965.6 343 985.6 425 1001.6 534 c 2
 1075.6 1111 l 1
 850.6 1120 l 1
 868.6 1197 l 1
 1009.6 1228 1155.6 1243 1308.6 1243 c 0
 1319.6 1243 1359.6 1242 1428.6 1239 c 1
 1408.6 1163 l 1
 1201.6 1096 l 1
 1116.6 517 l 2
 1087.6 325 1036.6 191 961.6 114 c 0
 926.6 77 877.6 43 815.6 12 c 128
 753.6 -19 679.6 -34 594.6 -34 c 2
 586.6 -34 l 1
 458.6 -28 358.6 11 287.6 83 c 0
 206.6 164 166.6 277 165.6 425 c 0
 165.6 460 173.6 552 191.6 702 c 2
 237.6 1087 l 1
949.6 1519 m 128
 966.6 1504 974.6 1486 974.6 1464 c 128
 974.6 1442 966.6 1424 949.6 1408 c 128
 932.6 1392 912.6 1385 889.6 1385 c 128
 866.6 1385 848.6 1392 831.6 1408 c 128
 814.6 1424 806.6 1443 806.6 1465 c 128
 806.6 1488 814.6 1504 831.6 1519 c 128
 848.6 1534 866.6 1541 889.6 1541 c 128
 912.6 1541 932.6 1534 949.6 1519 c 128
686.6 1519 m 128
 703.6 1504 711.6 1486 711.6 1464 c 128
 711.6 1442 703.6 1423 686.6 1408 c 128
 669.6 1393 649.6 1385 626.6 1385 c 128
 603.6 1385 584.6 1392 568.6 1408 c 128
 552.6 1424 544.6 1443 544.6 1465 c 128
 544.6 1488 552.6 1504 568.6 1519 c 128
 584.6 1534 603.6 1541 626.6 1541 c 128
 649.6 1541 669.6 1534 686.6 1519 c 128
EndSplineSet
Colour: ffffff
EndChar

StartChar: Yacute
Encoding: 157 221 156
Width: 1103
VWidth: 1655
GlyphClass: 2
Flags: HMW
LayerCount: 2
Fore
SplineSet
615.6 680 m 1
 586.6 583 564.6 476 550.6 359 c 2
 521.6 106 l 1
 734.6 81 l 1
 713.6 0 l 1
 87.5996 0 l 1
 106.6 83 l 1
 327.6 129 l 1
 366.6 423 l 2
 373.6 470 376.6 519 376.6 569 c 0
 376.6 688 354.6 796 309.6 893 c 1
 248.6 1019 151.6 1092 15.5996 1111 c 1
 25.5996 1160 46.5996 1197 80.5996 1221 c 128
 114.6 1245 154.6 1259 198.6 1262 c 0
 200.6 1262 202.6 1262 204.6 1264 c 1
 209.6 1264 l 2
 316.6 1264 398.6 1204 453.6 1086 c 0
 500.6 985 523.6 857 521.6 702 c 2
 521.6 664 l 1
 537.6 664 l 1
 560.6 763 591.6 855 629.6 940 c 128
 667.6 1025 703.6 1088 736.6 1132 c 128
 769.6 1176 803.6 1206 840.6 1224 c 128
 877.6 1242 909.6 1250 938.6 1250 c 2
 948.6 1250 l 1
 952.6 1248 954.6 1248 958.6 1249 c 0
 995.6 1245 1025.6 1231 1047.6 1205 c 128
 1069.6 1179 1080.6 1150 1080.6 1120 c 0
 1080.6 1107 1079.6 1097 1076.6 1087 c 1
 1037.6 1085 993.6 1078 943.6 1063 c 128
 893.6 1048 847.6 1026 806.6 995 c 1
 759.6 957 722.6 915 695.6 869 c 128
 668.6 823 642.6 760 615.6 680 c 1
815.6 1661 m 1
 635.6 1351 l 1
 585.6 1382 l 1
 705.6 1701 l 1
 815.6 1661 l 1
EndSplineSet
Colour: ffffff
EndChar

StartChar: Thorn
Encoding: 158 222 157
Width: 1164
VWidth: 1655
GlyphClass: 2
Flags: HMW
LayerCount: 2
Fore
SplineSet
645.6 0 m 1
 15.5996 0 l 1
 32.5996 78 l 1
 254.6 130 l 1
 380.6 1099 l 1
 154.6 1131 l 1
 171.6 1205 l 1
 356.6 1239 511.6 1256 636.6 1255 c 0
 681.6 1255 735.6 1253 798.6 1249 c 1
 779.6 1171 l 1
 575.6 1150 l 1
 563.6 1039 l 1
 626.6 1045 674.6 1047 707.6 1047 c 0
 848.6 1047 956.6 1017 1030.6 957 c 128
 1104.6 897 1141.6 809 1141.6 696 c 0
 1141.6 581 1089.6 480 984.6 393 c 1
 876.6 304 723.6 250 525.6 232 c 1
 518.6 315 l 1
 677.6 333 793.6 379 866.6 453 c 0
 920.6 508 948.6 579 947.6 665 c 128
 946.6 751 915.6 824 855.6 885 c 128
 795.6 946 714.6 977 612.6 977 c 0
 592.6 977 574.6 975 554.6 971 c 1
 452.6 108 l 1
 670.6 80 l 1
 645.6 0 l 1
EndSplineSet
Colour: ffffff
EndChar

StartChar: germandbls
Encoding: 159 223 158
Width: 1286
VWidth: 1655
GlyphClass: 2
Flags: HMW
LayerCount: 2
Fore
SplineSet
763.6 233 m 1
 800.6 125 854.6 66 926.6 57 c 1
 934.6 57 l 1
 936.6 55 941.6 55 950.6 56 c 128
 959.6 57 974.6 60 996.6 70 c 128
 1018.6 80 1035.6 92 1047.6 106 c 1
 1058.6 123 1063.6 140 1063.6 158 c 2
 1063.6 165 l 1
 1061.6 167 1061.6 173 1059.6 185 c 0
 1038.42 338.532 760.6 407.263 760.6 575 c 128
 760.6 772.84 1038.6 856.53 1038.6 1058 c 0
 1038.6 1159.93 983.88 1224.91 912.6 1222 c 1
 795.103 1222 694.95 1169.15 654.6 1074 c 0
 629.6 1023 614.6 949 607.6 851 c 1
 602.6 806 l 1
 581.6 468 567.6 251 559.6 155 c 128
 551.6 59 539.6 -21 522.6 -84 c 128
 505.6 -147 478.6 -200 443.6 -242 c 0
 396.6 -301 337.6 -342 266.6 -365 c 1
 229.6 -375 194.6 -378 163.6 -379 c 128
 132.6 -380 103.6 -373 78.5996 -359 c 0
 36.5996 -334 15.5996 -297 15.5996 -248 c 0
 15.5996 -201 33.5996 -163 70.5996 -132 c 1
 134.6 -196 200.6 -228 267.6 -228 c 0
 289.6 -228 307.6 -224 323.6 -217 c 128
 339.6 -210 348.6 -200 354.6 -185 c 128
 399.956 -71.6113 383.026 -3.03027 405.6 313 c 2
 438.6 775 l 1
 327.6 766 l 1
 342.6 871 l 1
 447.6 855 l 1
 453.6 882 458.6 907 464.6 931 c 0
 485.6 1007 516.6 1070 558.6 1119 c 128
 653.812 1242.64 811.235 1299 1011.6 1299 c 128
 1098.12 1299 1203.6 1236 1203.6 1110 c 0
 1203.6 879.253 884.6 778 884.6 656 c 128
 884.6 629 893.6 601 913.6 573 c 1
 942.6 538 967.6 512 989.6 494 c 128
 1011.6 476 1035.6 456 1061.6 435 c 128
 1087.6 414 1104.6 399 1115.6 389 c 0
 1146.6 362 1168.6 335 1183.6 306 c 128
 1198.6 277 1205.6 252 1207.6 230 c 1
 1207.6 218 l 2
 1207.6 179 1192.6 139 1161.6 98 c 1
 1129.6 59 1086.6 27 1032.6 2 c 128
 978.6 -23 926.6 -35 877.6 -35 c 0
 782.6 -36 716.6 -13 677.6 34 c 0
 658.6 56 649.6 83 649.6 116 c 128
 649.6 149 666.6 179 701.6 207 c 1
 720.6 221 740.6 229 763.6 233 c 1
EndSplineSet
Colour: ffffff
EndChar

StartChar: agrave
Encoding: 160 224 159
Width: 865
VWidth: 1655
GlyphClass: 2
Flags: HMW
LayerCount: 2
Fore
SplineSet
594.6 918 m 1
 713.6 881 l 1
 641.6 491 l 1
 611.6 253 l 1
 606.6 214 604.6 186 604.6 168 c 0
 604.6 133 619.6 116 648.6 116 c 0
 666.6 116 690.6 133 720.6 166 c 128
 750.6 199 778.6 236 801.6 275 c 1
 842.6 240 l 1
 805.6 147 765.6 79 721.6 35 c 128
 677.6 -9 620.6 -31 550.6 -31 c 0
 517.6 -31 491.6 -18 473.6 6 c 128
 455.6 30 447.6 66 447.6 113 c 0
 447.6 161 459.6 219 483.6 287 c 1
 470.6 287 l 1
 435.6 203 389.6 131 332.6 70 c 128
 275.6 9 219.6 -21 164.6 -21 c 128
 109.6 -21 70.5996 0 48.5996 41 c 128
 26.5996 82 15.5996 143 15.5996 225 c 128
 15.5996 307 34.5996 401 72.5996 505 c 128
 110.6 609 161.6 701 225.6 779 c 128
 289.6 857 353.6 895 416.6 895 c 128
 479.6 895 527.6 870 560.6 820 c 1
 569.6 820 l 1
 583.6 909 l 1
 594.6 918 l 1
221.6 595 m 0
 187.6 490 170.6 398 170.6 317 c 128
 170.6 236 174.6 186 182.6 165 c 128
 190.6 144 207.6 134 234.6 134 c 0
 282.6 134 337.6 185 400.6 286 c 1
 463.6 387 507.6 512 534.6 660 c 1
 524.6 688 505.6 713 475.6 736 c 128
 445.6 759 415.6 770 383.6 770 c 128
 351.6 770 321.6 754 291.6 722 c 128
 261.6 690 238.6 648 221.6 595 c 0
293.6 1303 m 1
 405.6 1339 l 1
 534.6 1013 l 1
 478.6 978 l 1
 293.6 1303 l 1
EndSplineSet
Colour: ffffff
EndChar

StartChar: aacute
Encoding: 161 225 160
Width: 865
VWidth: 1655
GlyphClass: 2
Flags: HMW
LayerCount: 2
Fore
SplineSet
594.6 918 m 1
 713.6 881 l 1
 641.6 491 l 1
 611.6 253 l 1
 606.6 214 604.6 186 604.6 168 c 0
 604.6 133 619.6 116 648.6 116 c 0
 666.6 116 690.6 133 720.6 166 c 128
 750.6 199 778.6 236 801.6 275 c 1
 842.6 240 l 1
 805.6 147 765.6 79 721.6 35 c 128
 677.6 -9 620.6 -31 550.6 -31 c 0
 517.6 -31 491.6 -18 473.6 6 c 128
 455.6 30 447.6 66 447.6 113 c 0
 447.6 161 459.6 219 483.6 287 c 1
 470.6 287 l 1
 435.6 203 389.6 131 332.6 70 c 128
 275.6 9 219.6 -21 164.6 -21 c 128
 109.6 -21 70.5996 0 48.5996 41 c 128
 26.5996 82 15.5996 143 15.5996 225 c 128
 15.5996 307 34.5996 401 72.5996 505 c 128
 110.6 609 161.6 701 225.6 779 c 128
 289.6 857 353.6 895 416.6 895 c 128
 479.6 895 527.6 870 560.6 820 c 1
 569.6 820 l 1
 583.6 909 l 1
 594.6 918 l 1
221.6 595 m 0
 187.6 490 170.6 398 170.6 317 c 128
 170.6 236 174.6 186 182.6 165 c 128
 190.6 144 207.6 134 234.6 134 c 0
 282.6 134 337.6 185 400.6 286 c 1
 463.6 387 507.6 512 534.6 660 c 1
 524.6 688 505.6 713 475.6 736 c 128
 445.6 759 415.6 770 383.6 770 c 128
 351.6 770 321.6 754 291.6 722 c 128
 261.6 690 238.6 648 221.6 595 c 0
713.6 1309 m 1
 532.6 998 l 1
 483.6 1029 l 1
 602.6 1347 l 1
 713.6 1309 l 1
EndSplineSet
Colour: ffffff
EndChar

StartChar: acircumflex
Encoding: 162 226 161
Width: 865
VWidth: 1655
GlyphClass: 2
Flags: HMW
LayerCount: 2
Fore
SplineSet
594.6 918 m 1
 713.6 881 l 1
 641.6 491 l 1
 611.6 253 l 1
 606.6 214 604.6 186 604.6 168 c 0
 604.6 133 619.6 116 648.6 116 c 0
 666.6 116 690.6 133 720.6 166 c 128
 750.6 199 778.6 236 801.6 275 c 1
 842.6 240 l 1
 805.6 147 765.6 79 721.6 35 c 128
 677.6 -9 620.6 -31 550.6 -31 c 0
 517.6 -31 491.6 -18 473.6 6 c 128
 455.6 30 447.6 66 447.6 113 c 0
 447.6 161 459.6 219 483.6 287 c 1
 470.6 287 l 1
 435.6 203 389.6 131 332.6 70 c 128
 275.6 9 219.6 -21 164.6 -21 c 128
 109.6 -21 70.5996 0 48.5996 41 c 128
 26.5996 82 15.5996 143 15.5996 225 c 128
 15.5996 307 34.5996 401 72.5996 505 c 128
 110.6 609 161.6 701 225.6 779 c 128
 289.6 857 353.6 895 416.6 895 c 128
 479.6 895 527.6 870 560.6 820 c 1
 569.6 820 l 1
 583.6 909 l 1
 594.6 918 l 1
221.6 595 m 0
 187.6 490 170.6 398 170.6 317 c 128
 170.6 236 174.6 186 182.6 165 c 128
 190.6 144 207.6 134 234.6 134 c 0
 282.6 134 337.6 185 400.6 286 c 1
 463.6 387 507.6 512 534.6 660 c 1
 524.6 688 505.6 713 475.6 736 c 128
 445.6 759 415.6 770 383.6 770 c 128
 351.6 770 321.6 754 291.6 722 c 128
 261.6 690 238.6 648 221.6 595 c 0
514.6 1224 m 1
 688.6 1043 l 1
 639.6 1008 l 1
 479.6 1115 l 1
 470.6 1115 l 1
 332.6 1006 l 1
 295.6 1036 l 1
 460.6 1212 l 1
 514.6 1224 l 1
EndSplineSet
Colour: ffffff
EndChar

StartChar: atilde
Encoding: 163 227 162
Width: 865
VWidth: 1655
GlyphClass: 2
Flags: HMW
LayerCount: 2
Fore
SplineSet
594.6 918 m 1
 713.6 881 l 1
 641.6 491 l 1
 611.6 253 l 1
 606.6 214 604.6 186 604.6 168 c 0
 604.6 133 619.6 116 648.6 116 c 0
 666.6 116 690.6 133 720.6 166 c 128
 750.6 199 778.6 236 801.6 275 c 1
 842.6 240 l 1
 805.6 147 765.6 79 721.6 35 c 128
 677.6 -9 620.6 -31 550.6 -31 c 0
 517.6 -31 491.6 -18 473.6 6 c 128
 455.6 30 447.6 66 447.6 113 c 0
 447.6 161 459.6 219 483.6 287 c 1
 470.6 287 l 1
 435.6 203 389.6 131 332.6 70 c 128
 275.6 9 219.6 -21 164.6 -21 c 128
 109.6 -21 70.5996 0 48.5996 41 c 128
 26.5996 82 15.5996 143 15.5996 225 c 128
 15.5996 307 34.5996 401 72.5996 505 c 128
 110.6 609 161.6 701 225.6 779 c 128
 289.6 857 353.6 895 416.6 895 c 128
 479.6 895 527.6 870 560.6 820 c 1
 569.6 820 l 1
 583.6 909 l 1
 594.6 918 l 1
221.6 595 m 0
 187.6 490 170.6 398 170.6 317 c 128
 170.6 236 174.6 186 182.6 165 c 128
 190.6 144 207.6 134 234.6 134 c 0
 282.6 134 337.6 185 400.6 286 c 1
 463.6 387 507.6 512 534.6 660 c 1
 524.6 688 505.6 713 475.6 736 c 128
 445.6 759 415.6 770 383.6 770 c 128
 351.6 770 321.6 754 291.6 722 c 128
 261.6 690 238.6 648 221.6 595 c 0
360.6 1066 m 2
 343.6 1066 324.6 1050 302.6 1019 c 1
 265.6 1027 l 1
 267.6 1034 270.6 1044 274.6 1058 c 128
 278.6 1072 285.6 1089 298.6 1110 c 0
 323.6 1149 351.6 1169 384.6 1168 c 2
 390.6 1168 l 1
 392.6 1166 394.6 1166 397.6 1166 c 2
 615.6 1137 l 1
 618.6 1137 l 2
 632.6 1137 651.6 1151 674.6 1178 c 1
 721.6 1176 l 1
 690.6 1082 647.6 1035 592.6 1036 c 2
 581.6 1036 l 1
 362.6 1066 l 1
 360.6 1066 l 2
EndSplineSet
Colour: ffffff
EndChar

StartChar: adieresis
Encoding: 164 228 163
Width: 865
VWidth: 1655
GlyphClass: 2
Flags: HMW
LayerCount: 2
Fore
SplineSet
594.6 918 m 1
 713.6 881 l 1
 641.6 491 l 1
 611.6 253 l 1
 606.6 214 604.6 186 604.6 168 c 0
 604.6 133 619.6 116 648.6 116 c 0
 666.6 116 690.6 133 720.6 166 c 128
 750.6 199 778.6 236 801.6 275 c 1
 842.6 240 l 1
 805.6 147 765.6 79 721.6 35 c 128
 677.6 -9 620.6 -31 550.6 -31 c 0
 517.6 -31 491.6 -18 473.6 6 c 128
 455.6 30 447.6 66 447.6 113 c 0
 447.6 161 459.6 219 483.6 287 c 1
 470.6 287 l 1
 435.6 203 389.6 131 332.6 70 c 128
 275.6 9 219.6 -21 164.6 -21 c 128
 109.6 -21 70.5996 0 48.5996 41 c 128
 26.5996 82 15.5996 143 15.5996 225 c 128
 15.5996 307 34.5996 401 72.5996 505 c 128
 110.6 609 161.6 701 225.6 779 c 128
 289.6 857 353.6 895 416.6 895 c 128
 479.6 895 527.6 870 560.6 820 c 1
 569.6 820 l 1
 583.6 909 l 1
 594.6 918 l 1
221.6 595 m 0
 187.6 490 170.6 398 170.6 317 c 128
 170.6 236 174.6 186 182.6 165 c 128
 190.6 144 207.6 134 234.6 134 c 0
 282.6 134 337.6 185 400.6 286 c 1
 463.6 387 507.6 512 534.6 660 c 1
 524.6 688 505.6 713 475.6 736 c 128
 445.6 759 415.6 770 383.6 770 c 128
 351.6 770 321.6 754 291.6 722 c 128
 261.6 690 238.6 648 221.6 595 c 0
683.6 1165 m 128
 700.6 1150 708.6 1132 708.6 1110 c 128
 708.6 1088 700.6 1071 683.6 1055 c 128
 666.6 1039 645.6 1032 622.6 1032 c 128
 599.6 1032 581.6 1039 564.6 1055 c 128
 547.6 1071 539.6 1089 539.6 1111 c 128
 539.6 1133 547.6 1151 564.6 1166 c 128
 581.6 1181 599.6 1187 622.6 1187 c 128
 645.6 1187 666.6 1180 683.6 1165 c 128
419.6 1165 m 128
 436.6 1150 444.6 1132 444.6 1110 c 128
 444.6 1088 436.6 1070 419.6 1055 c 128
 402.6 1040 382.6 1032 359.6 1032 c 128
 336.6 1032 317.6 1039 301.6 1055 c 128
 285.6 1071 277.6 1089 277.6 1111 c 128
 277.6 1133 285.6 1151 301.6 1166 c 128
 317.6 1181 336.6 1187 359.6 1187 c 128
 382.6 1187 402.6 1180 419.6 1165 c 128
EndSplineSet
Colour: ffffff
EndChar

StartChar: aring
Encoding: 165 229 164
Width: 865
VWidth: 1655
GlyphClass: 2
Flags: HMW
LayerCount: 2
Fore
SplineSet
594.6 918 m 1
 713.6 881 l 1
 641.6 491 l 1
 611.6 253 l 1
 606.6 214 604.6 186 604.6 168 c 0
 604.6 133 619.6 116 648.6 116 c 0
 666.6 116 690.6 133 720.6 166 c 128
 750.6 199 778.6 236 801.6 275 c 1
 842.6 240 l 1
 805.6 147 765.6 79 721.6 35 c 128
 677.6 -9 620.6 -31 550.6 -31 c 0
 517.6 -31 491.6 -18 473.6 6 c 128
 455.6 30 447.6 66 447.6 113 c 0
 447.6 161 459.6 219 483.6 287 c 1
 470.6 287 l 1
 435.6 203 389.6 131 332.6 70 c 128
 275.6 9 219.6 -21 164.6 -21 c 128
 109.6 -21 70.5996 0 48.5996 41 c 128
 26.5996 82 15.5996 143 15.5996 225 c 128
 15.5996 307 34.5996 401 72.5996 505 c 128
 110.6 609 161.6 701 225.6 779 c 128
 289.6 857 353.6 895 416.6 895 c 128
 479.6 895 527.6 870 560.6 820 c 1
 569.6 820 l 1
 583.6 909 l 1
 594.6 918 l 1
221.6 595 m 0
 187.6 490 170.6 398 170.6 317 c 128
 170.6 236 174.6 186 182.6 165 c 128
 190.6 144 207.6 134 234.6 134 c 0
 282.6 134 337.6 185 400.6 286 c 1
 463.6 387 507.6 512 534.6 660 c 1
 524.6 688 505.6 713 475.6 736 c 128
 445.6 759 415.6 770 383.6 770 c 128
 351.6 770 321.6 754 291.6 722 c 128
 261.6 690 238.6 648 221.6 595 c 0
427.6 1262 m 128
 412.6 1241 404.6 1215 404.6 1182 c 128
 404.6 1149 413.6 1120 430.6 1095 c 128
 447.6 1070 469.6 1058 498.6 1058 c 0
 554.6 1058 582.6 1095 581.6 1170 c 0
 581.6 1205 573.6 1234 555.6 1258 c 128
 537.6 1282 516.6 1294 489.6 1294 c 128
 462.6 1294 442.6 1283 427.6 1262 c 128
609.6 1296 m 128
 637.6 1267 651.6 1229 651.6 1182 c 128
 651.6 1135 635.6 1096 604.6 1062 c 128
 573.6 1028 533.6 1011 487.6 1011 c 128
 441.6 1011 404.6 1026 376.6 1056 c 128
 348.6 1086 334.6 1124 334.6 1171 c 128
 334.6 1218 350.6 1258 382.6 1291 c 128
 414.6 1324 453.6 1340 499.6 1340 c 128
 545.6 1340 581.6 1325 609.6 1296 c 128
EndSplineSet
Colour: ffffff
EndChar

StartChar: ae
Encoding: 166 230 165
Width: 1049
VWidth: 1655
GlyphClass: 2
Flags: HMW
LayerCount: 2
Fore
SplineSet
860.6 897 m 0
 912.6 897 953.6 881 982.6 850 c 128
 1011.6 819 1026.6 775 1026.6 718 c 128
 1026.6 661 1003.6 604 957.6 544 c 128
 911.6 484 856.6 434 790.6 393 c 128
 724.6 352 661.6 323 600.6 305 c 1
 601.6 235 614.6 184 640.6 152 c 128
 666.6 120 702.6 104 749.6 104 c 0
 836.6 104 909.6 151 969.6 246 c 1
 1005.6 214 l 1
 983.6 148 943.6 91 884.6 42 c 128
 825.6 -7 759.6 -31 688.6 -31 c 128
 617.6 -31 560.6 -8 517.6 39 c 128
 474.6 86 450.6 151 444.6 235 c 1
 402.6 159 356.6 97 307.6 50 c 128
 258.6 3 208.6 -21 159.6 -21 c 0
 63.5996 -21 15.5996 59 15.5996 218 c 0
 15.5996 305 34.5996 400 72.5996 505 c 128
 110.6 610 163.6 701 227.6 779 c 128
 291.6 857 357.6 895 426.6 895 c 0
 461.6 895 494.6 879 523.6 847 c 128
 552.6 815 572.6 775 584.6 726 c 1
 667.6 840 759.6 897 860.6 897 c 0
233.6 628 m 128
 215.6 587 200.6 537 188.6 479 c 128
 176.6 421 170.6 360 170.6 294 c 128
 170.6 228 174.6 186 182.6 165 c 128
 190.6 144 207.6 134 233.6 134 c 0
 281.6 134 337.6 185 400.6 286 c 1
 463.6 387 507.6 512 534.6 660 c 1
 524.6 688 505.6 713 475.6 736 c 128
 445.6 759 417.6 770 388.6 770 c 128
 359.6 770 329.6 757 301.6 730 c 128
 273.6 703 251.6 669 233.6 628 c 128
801.6 512 m 128
 850.6 571 874.6 632 874.6 696 c 128
 874.6 760 848.6 791 795.6 791 c 0
 685.6 791 620.6 653 602.6 377 c 1
 685.6 408 752.6 453 801.6 512 c 128
EndSplineSet
Colour: ffffff
EndChar

StartChar: ccedilla
Encoding: 167 231 166
Width: 626
VWidth: 1655
GlyphClass: 2
Flags: HMW
LayerCount: 2
Fore
SplineSet
298.8 -75 m 1
 357.8 -126 386.8 -174 385.8 -221 c 0
 385.8 -290 320.8 -343 189.8 -381 c 1
 170.8 -323 l 1
 226.8 -303 254.8 -276 254.8 -242 c 0
 254.8 -215 230.8 -179 182.8 -134 c 1
 256.8 -31 l 1
 113.8 0 16.7998 68.4365 16.7998 322 c 128
 16.7998 410.227 28.7998 485.587 52.7998 549 c 128
 76.7998 618 108.8 677 146.8 727 c 128
 184.8 777 228.8 817 277.8 847 c 128
 326.8 877 378.8 893 430.8 893 c 128
 482.8 893 524.8 878 556.8 847 c 128
 588.8 816 603.8 778 603.8 732 c 128
 603.8 686 592.8 653 570.8 632 c 128
 548.8 611 513.8 598 464.8 592 c 1
 464.8 602 461.8 625 454.8 663 c 0
 441.8 732 421.8 774 394.8 790 c 0
 384.8 795 374.8 797 362.8 796 c 0
 302.8 796 256.8 760 225.8 687 c 128
 194.8 614 178.8 521 178.8 411 c 128
 178.8 301 191.8 221 219.8 172 c 128
 247.8 123 294.8 98 361.8 98 c 2
 363.8 98 l 2
 395.8 98 426.8 110 458.8 133 c 128
 490.8 156 517.8 188 538.8 227 c 1
 574.8 195 l 1
 561.8 146 531.8 101 485.8 59 c 128
 439.8 17 388.8 -11 331.8 -24 c 1
 298.8 -75 l 1
EndSplineSet
Colour: ffffff
EndChar

StartChar: egrave
Encoding: 168 232 167
Width: 622
VWidth: 1655
GlyphClass: 2
Flags: HMW
LayerCount: 2
Fore
SplineSet
555.6 849 m 128
 585.6 817 599.6 777 599.6 726 c 0
 599.6 630 550.6 547 451.6 477 c 1
 368.6 418 275.6 373 174.6 341 c 1
 178.6 183 232.6 104 337.6 104 c 0
 375.6 104 412.6 118 448.6 144 c 128
 484.6 170 515.6 204 543.6 246 c 1
 580.6 214 l 1
 557.6 147 515.6 89 457.6 41 c 128
 399.6 -7 332.6 -31 256.6 -31 c 128
 180.6 -31 122.6 -2 79.5996 56 c 128
 36.5996 114 15.5996 193 15.5996 293 c 128
 15.5996 393 34.5996 488 73.5996 580 c 128
 112.6 672 164.6 749 229.6 808 c 128
 294.6 867 361.6 897 432.6 897 c 0
 484.6 897 525.6 881 555.6 849 c 128
447.6 698 m 0
 447.6 760 420.6 791 367.6 790 c 0
 255.6 790 191.6 664 175.6 414 c 1
 356.6 481 447.6 576 447.6 698 c 0
248.6 1315 m 1
 361.6 1351 l 1
 491.6 1024 l 1
 434.6 990 l 1
 248.6 1315 l 1
EndSplineSet
Colour: ffffff
EndChar

StartChar: eacute
Encoding: 169 233 168
Width: 706
VWidth: 1655
GlyphClass: 2
Flags: HMW
LayerCount: 2
Fore
SplineSet
555.6 849 m 128
 585.6 817 599.6 777 599.6 726 c 0
 599.6 630 550.6 547 451.6 477 c 1
 368.6 418 275.6 373 174.6 341 c 1
 178.6 183 232.6 104 337.6 104 c 0
 375.6 104 412.6 118 448.6 144 c 128
 484.6 170 515.6 204 543.6 246 c 1
 580.6 214 l 1
 557.6 147 515.6 89 457.6 41 c 128
 399.6 -7 332.6 -31 256.6 -31 c 128
 180.6 -31 122.6 -2 79.5996 56 c 128
 36.5996 114 15.5996 193 15.5996 293 c 128
 15.5996 393 34.5996 488 73.5996 580 c 128
 112.6 672 164.6 749 229.6 808 c 128
 294.6 867 361.6 897 432.6 897 c 0
 484.6 897 525.6 881 555.6 849 c 128
447.6 698 m 0
 447.6 760 420.6 791 367.6 790 c 0
 255.6 790 191.6 664 175.6 414 c 1
 356.6 481 447.6 576 447.6 698 c 0
569.6 1320 m 5
 390.6 1010 l 5
 339.6 1041 l 5
 458.6 1359 l 5
 569.6 1320 l 5
EndSplineSet
Colour: ffffff
EndChar

StartChar: ecircumflex
Encoding: 170 234 169
Width: 675
VWidth: 1655
GlyphClass: 2
Flags: HMW
LayerCount: 2
Fore
SplineSet
555.6 849 m 128
 585.6 817 599.6 777 599.6 726 c 0
 599.6 630 550.6 547 451.6 477 c 1
 368.6 418 275.6 373 174.6 341 c 1
 178.6 183 232.6 104 337.6 104 c 0
 375.6 104 412.6 118 448.6 144 c 128
 484.6 170 515.6 204 543.6 246 c 1
 580.6 214 l 1
 557.6 147 515.6 89 457.6 41 c 128
 399.6 -7 332.6 -31 256.6 -31 c 128
 180.6 -31 122.6 -2 79.5996 56 c 128
 36.5996 114 15.5996 193 15.5996 293 c 128
 15.5996 393 34.5996 488 73.5996 580 c 128
 112.6 672 164.6 749 229.6 808 c 128
 294.6 867 361.6 897 432.6 897 c 0
 484.6 897 525.6 881 555.6 849 c 128
447.6 698 m 0
 447.6 760 420.6 791 367.6 790 c 0
 255.6 790 191.6 664 175.6 414 c 1
 356.6 481 447.6 576 447.6 698 c 0
430.6 1236 m 1
 604.6 1055 l 1
 556.6 1019 l 1
 396.6 1127 l 1
 386.6 1127 l 1
 249.6 1018 l 1
 211.6 1047 l 1
 376.6 1224 l 1
 430.6 1236 l 1
EndSplineSet
Colour: ffffff
EndChar

StartChar: edieresis
Encoding: 171 235 170
Width: 687
VWidth: 1655
GlyphClass: 2
Flags: HMW
LayerCount: 2
Fore
SplineSet
555.6 849 m 128
 585.6 817 599.6 777 599.6 726 c 0
 599.6 630 550.6 547 451.6 477 c 1
 368.6 418 275.6 373 174.6 341 c 1
 178.6 183 232.6 104 337.6 104 c 0
 375.6 104 412.6 118 448.6 144 c 128
 484.6 170 515.6 204 543.6 246 c 1
 580.6 214 l 1
 557.6 147 515.6 89 457.6 41 c 128
 399.6 -7 332.6 -31 256.6 -31 c 128
 180.6 -31 122.6 -2 79.5996 56 c 128
 36.5996 114 15.5996 193 15.5996 293 c 128
 15.5996 393 34.5996 488 73.5996 580 c 128
 112.6 672 164.6 749 229.6 808 c 128
 294.6 867 361.6 897 432.6 897 c 0
 484.6 897 525.6 881 555.6 849 c 128
447.6 698 m 0
 447.6 760 420.6 791 367.6 790 c 0
 255.6 790 191.6 664 175.6 414 c 1
 356.6 481 447.6 576 447.6 698 c 0
638.6 1177 m 128
 655.6 1162 664.6 1144 664.6 1122 c 128
 664.6 1100 655.6 1082 638.6 1066 c 128
 621.6 1050 602.6 1043 579.6 1043 c 128
 556.6 1043 536.6 1050 520.6 1066 c 128
 504.6 1082 496.6 1100 496.6 1122 c 128
 496.6 1145 504.6 1163 520.6 1178 c 128
 536.6 1193 556.6 1199 579.6 1199 c 128
 602.6 1199 621.6 1192 638.6 1177 c 128
375.6 1177 m 128
 392.6 1162 400.6 1143 400.6 1121 c 128
 400.6 1099 392.6 1081 375.6 1066 c 128
 358.6 1051 340.6 1043 317.6 1043 c 128
 294.6 1043 274.6 1050 258.6 1066 c 128
 242.6 1082 234.6 1100 234.6 1122 c 128
 234.6 1145 242.6 1163 258.6 1178 c 128
 274.6 1193 294.6 1199 317.6 1199 c 128
 340.6 1199 358.6 1192 375.6 1177 c 128
EndSplineSet
Colour: ffffff
EndChar

StartChar: igrave
Encoding: 172 236 171
Width: 609
VWidth: 1655
GlyphClass: 2
Flags: HMW
LayerCount: 2
Fore
SplineSet
355.6 254 m 1
 351.6 225 350.6 201 350.6 181 c 0
 350.6 142 361.6 123 384.6 123 c 128
 407.6 123 434.6 134 466.6 157 c 128
 498.6 180 524.6 209 544.6 246 c 1
 586.6 217 l 1
 526.6 57 430.6 -23 298.6 -23 c 0
 257.6 -23 227.6 -10 210.6 15 c 128
 193.6 40 185.6 71 185.6 108 c 128
 185.6 145 189.6 208 198.6 296 c 1
 234.6 611 l 2
 236.6 634 237.6 656 237.6 676 c 0
 237.6 728 225.6 754 201.6 754 c 128
 177.6 754 132.6 702 63.5996 599 c 1
 15.5996 631 l 1
 44.5996 707 87.5996 772 143.6 826 c 128
 199.6 880 254.6 906 309.6 906 c 0
 371.6 906 402.6 859 400.6 766 c 0
 400.6 758 395.6 692 383.6 569 c 1
 355.6 254 l 1
100.6 1331 m 1
 212.6 1367 l 1
 341.6 1041 l 1
 286.6 1006 l 1
 100.6 1331 l 1
EndSplineSet
Colour: ffffff
EndChar

StartChar: iacute
Encoding: 173 237 172
Width: 609
VWidth: 1655
GlyphClass: 2
Flags: HMW
LayerCount: 2
Fore
SplineSet
355.6 254 m 1
 351.6 225 350.6 201 350.6 181 c 0
 350.6 142 361.6 123 384.6 123 c 128
 407.6 123 434.6 134 466.6 157 c 128
 498.6 180 524.6 209 544.6 246 c 1
 586.6 217 l 1
 526.6 57 430.6 -23 298.6 -23 c 0
 257.6 -23 227.6 -10 210.6 15 c 128
 193.6 40 185.6 71 185.6 108 c 128
 185.6 145 189.6 208 198.6 296 c 1
 234.6 611 l 2
 236.6 634 237.6 656 237.6 676 c 0
 237.6 728 225.6 754 201.6 754 c 128
 177.6 754 132.6 702 63.5996 599 c 1
 15.5996 631 l 1
 44.5996 707 87.5996 772 143.6 826 c 128
 199.6 880 254.6 906 309.6 906 c 0
 371.6 906 402.6 859 400.6 766 c 0
 400.6 758 395.6 692 383.6 569 c 1
 355.6 254 l 1
521.6 1336 m 1
 339.6 1026 l 1
 291.6 1057 l 1
 409.6 1375 l 1
 521.6 1336 l 1
EndSplineSet
Colour: ffffff
EndChar

StartChar: icircumflex
Encoding: 174 238 173
Width: 609
VWidth: 1655
GlyphClass: 2
Flags: HMW
LayerCount: 2
Fore
SplineSet
355.6 254 m 1
 351.6 225 350.6 201 350.6 181 c 0
 350.6 142 361.6 123 384.6 123 c 128
 407.6 123 434.6 134 466.6 157 c 128
 498.6 180 524.6 209 544.6 246 c 1
 586.6 217 l 1
 526.6 57 430.6 -23 298.6 -23 c 0
 257.6 -23 227.6 -10 210.6 15 c 128
 193.6 40 185.6 71 185.6 108 c 128
 185.6 145 189.6 208 198.6 296 c 1
 234.6 611 l 2
 236.6 634 237.6 656 237.6 676 c 0
 237.6 728 225.6 754 201.6 754 c 128
 177.6 754 132.6 702 63.5996 599 c 1
 15.5996 631 l 1
 44.5996 707 87.5996 772 143.6 826 c 128
 199.6 880 254.6 906 309.6 906 c 0
 371.6 906 402.6 859 400.6 766 c 0
 400.6 758 395.6 692 383.6 569 c 1
 355.6 254 l 1
320.6 1252 m 1
 496.6 1071 l 1
 447.6 1036 l 1
 287.6 1142 l 1
 277.6 1142 l 1
 139.6 1034 l 1
 103.6 1064 l 1
 268.6 1239 l 1
 320.6 1252 l 1
EndSplineSet
Colour: ffffff
EndChar

StartChar: idieresis
Encoding: 175 239 174
Width: 609
VWidth: 1655
GlyphClass: 2
Flags: HMW
LayerCount: 2
Fore
SplineSet
355.6 254 m 1
 351.6 225 350.6 201 350.6 181 c 0
 350.6 142 361.6 123 384.6 123 c 128
 407.6 123 434.6 134 466.6 157 c 128
 498.6 180 524.6 209 544.6 246 c 1
 586.6 217 l 1
 526.6 57 430.6 -23 298.6 -23 c 0
 257.6 -23 227.6 -10 210.6 15 c 128
 193.6 40 185.6 71 185.6 108 c 128
 185.6 145 189.6 208 198.6 296 c 1
 234.6 611 l 2
 236.6 634 237.6 656 237.6 676 c 0
 237.6 728 225.6 754 201.6 754 c 128
 177.6 754 132.6 702 63.5996 599 c 1
 15.5996 631 l 1
 44.5996 707 87.5996 772 143.6 826 c 128
 199.6 880 254.6 906 309.6 906 c 0
 371.6 906 402.6 859 400.6 766 c 0
 400.6 758 395.6 692 383.6 569 c 1
 355.6 254 l 1
490.6 1193 m 128
 508.6 1178 516.6 1160 516.6 1138 c 128
 516.6 1116 508.6 1099 490.6 1083 c 128
 472.6 1067 453.6 1060 430.6 1060 c 128
 407.6 1060 387.6 1067 370.6 1083 c 128
 353.6 1099 346.6 1117 346.6 1139 c 128
 346.6 1161 353.6 1179 370.6 1194 c 128
 387.6 1209 407.6 1215 430.6 1215 c 128
 453.6 1215 472.6 1208 490.6 1193 c 128
226.6 1193 m 128
 243.6 1178 251.6 1160 251.6 1138 c 128
 251.6 1116 243.6 1098 226.6 1083 c 128
 209.6 1068 190.6 1060 167.6 1060 c 128
 144.6 1060 124.6 1067 108.6 1083 c 128
 92.5996 1099 85.5996 1117 85.5996 1139 c 128
 85.5996 1161 92.5996 1179 108.6 1194 c 128
 124.6 1209 144.6 1215 167.6 1215 c 128
 190.6 1215 209.6 1208 226.6 1193 c 128
EndSplineSet
Colour: ffffff
EndChar

StartChar: eth
Encoding: 176 240 175
Width: 788
VWidth: 1655
GlyphClass: 2
Flags: HMW
LayerCount: 2
Fore
SplineSet
642.6 1085 m 1
 723.6 951 763.6 792 764.6 608 c 0
 764.6 389 711.6 221 605.6 105 c 0
 525.6 18 433.6 -26 329.6 -26 c 0
 260.6 -26 202.6 -9 155.6 24 c 0
 62.5996 89 16.5996 198 15.5996 353 c 0
 15.5996 382 16.5996 411 20.5996 442 c 1
 37.5996 577 85.5996 683 166.6 762 c 128
 247.6 841 341.6 881 449.6 881 c 0
 480.6 881 509.6 873 535.6 858 c 128
 561.6 843 577.6 821 584.6 791 c 1
 590.6 791 l 1
 578.6 853 551.6 939 508.6 1048 c 1
 301.6 1008 l 1
 320.6 1085 l 1
 480.6 1117 l 1
 457.6 1164 421.6 1218 372.6 1277 c 1
 480.6 1277 l 1
 531.6 1234 572.6 1190 604.6 1145 c 1
 745.6 1176 l 1
 726.6 1101 l 1
 642.6 1085 l 1
421.6 790 m 2
 355.6 790 304.6 766 267.6 717 c 128
 230.6 668 205.6 592 191.6 489 c 0
 186.6 457 184.6 420 186.6 377 c 0
 186.6 280 201.6 205 232.6 151 c 128
 263.6 97 309.6 70 370.6 70 c 0
 488.6 70 561.6 185 589.6 416 c 0
 593.6 445 594.6 474 594.6 502 c 0
 594.6 587 579.6 656 548.6 708 c 128
 517.6 760 477.6 787 428.6 790 c 1
 421.6 790 l 2
EndSplineSet
Colour: ffffff
EndChar

StartChar: ntilde
Encoding: 177 241 176
Width: 1024
VWidth: 1655
GlyphClass: 2
Flags: HMW
LayerCount: 2
Fore
SplineSet
356.6 344 m 1
 352.6 207 339.6 112 313.6 56 c 128
 287.6 0 245.6 -28 186.6 -28 c 0
 184.6 -28 170.6 -27 144.6 -24 c 1
 130.6 3 l 1
 212.6 388 l 1
 234.6 620 l 2
 236.6 648 237.6 673 237.6 696 c 0
 237.6 745 225.6 769 200.6 768 c 0
 187.6 768 167.6 751 138.6 718 c 128
 109.6 685 84.5996 650 63.5996 613 c 1
 15.5996 651 l 1
 42.5996 724 84.5996 786 140.6 840 c 128
 196.6 894 254.6 921 315.6 921 c 0
 367.6 921 393.6 887 392.6 818 c 0
 392.6 788 388.6 753 379.6 713 c 0
 369.6 672 364.6 644 361.6 627 c 0
 353.6 592 350.6 574 351.6 573 c 1
 362.6 567 l 1
 392.6 658 437.6 737 496.6 801 c 128
 555.6 865 611.6 897 664.6 897 c 128
 717.6 897 757.6 883 783.6 856 c 128
 809.6 829 822.6 794 822.6 750 c 128
 822.6 706 819.6 662 813.6 615 c 1
 769.6 253 l 2
 764.6 218 762.6 195 762.6 181 c 0
 762.6 141 774.6 121 797.6 121 c 128
 820.6 121 848.6 133 880.6 156 c 128
 912.6 179 938.6 209 958.6 246 c 1
 1001.6 216 l 1
 941.6 56 840.6 -24 697.6 -24 c 0
 632.6 -24 599.6 18 599.6 101 c 0
 599.6 112 606.6 177 620.6 295 c 2
 643.6 488 l 2
 653.6 571 657.6 625 658.6 649 c 0
 658.6 698 639.6 722 602.6 721 c 0
 497.6 721 415.6 595 356.6 344 c 1
829.6 1203 m 1
 798.6 1109 755.6 1062 702.6 1064 c 2
 690.6 1064 l 1
 472.6 1094 l 1
 468.6 1094 l 2
 448.6 1094 432.6 1082 418.6 1058 c 1
 409.6 1047 l 1
 372.6 1055 l 1
 374.6 1062 377.6 1072 381.6 1086 c 128
 385.6 1100 393.6 1116 407.6 1136 c 0
 432.6 1175 460.6 1195 493.6 1196 c 2
 499.6 1196 l 1
 501.6 1194 502.6 1194 506.6 1194 c 2
 725.6 1164 l 1
 727.6 1164 l 2
 745.6 1164 762.6 1178 782.6 1205 c 1
 829.6 1203 l 1
EndSplineSet
Colour: ffffff
EndChar

StartChar: ograve
Encoding: 178 242 177
Width: 700
VWidth: 1655
GlyphClass: 2
Flags: HMW
LayerCount: 2
Fore
SplineSet
86.5996 79 m 128
 38.5996 149 15.5996 236 15.5996 340 c 128
 15.5996 444 33.5996 537 68.5996 620 c 128
 103.6 703 150.6 770 211.6 821 c 128
 272.6 872 339.6 897 412.6 897 c 128
 485.6 897 548.6 863 599.6 795 c 128
 650.6 727 676.6 644 676.6 546 c 128
 676.6 448 661.6 358 630.6 274 c 128
 599.6 190 553.6 119 492.6 61 c 128
 431.6 3 360.6 -26 279.6 -26 c 128
 198.6 -26 134.6 9 86.5996 79 c 128
237.6 733 m 0
 183.6 672 156.6 581 156.6 460 c 0
 156.6 325 187.6 221 248.6 146 c 0
 278.6 109 311.6 89 348.6 90 c 128
 385.6 91 418.6 107 447.6 139 c 0
 503.6 204 531.6 300 531.6 424 c 0
 531.6 558 501.6 659 442.6 730 c 0
 412.6 765 378.6 783 340.6 784 c 128
 302.6 785 268.6 767 237.6 733 c 0
206.6 1298 m 1
 318.6 1336 l 1
 449.6 1008 l 1
 392.6 973 l 1
 206.6 1298 l 1
EndSplineSet
Colour: ffffff
EndChar

StartChar: oacute
Encoding: 179 243 178
Width: 700
VWidth: 1655
GlyphClass: 2
Flags: HMW
LayerCount: 2
Fore
SplineSet
86.5996 79 m 128
 38.5996 149 15.5996 236 15.5996 340 c 128
 15.5996 444 33.5996 537 68.5996 620 c 128
 103.6 703 150.6 770 211.6 821 c 128
 272.6 872 339.6 897 412.6 897 c 128
 485.6 897 548.6 863 599.6 795 c 128
 650.6 727 676.6 644 676.6 546 c 128
 676.6 448 661.6 358 630.6 274 c 128
 599.6 190 553.6 119 492.6 61 c 128
 431.6 3 360.6 -26 279.6 -26 c 128
 198.6 -26 134.6 9 86.5996 79 c 128
237.6 733 m 0
 183.6 672 156.6 581 156.6 460 c 0
 156.6 325 187.6 221 248.6 146 c 0
 278.6 109 311.6 89 348.6 90 c 128
 385.6 91 418.6 107 447.6 139 c 0
 503.6 204 531.6 300 531.6 424 c 0
 531.6 558 501.6 659 442.6 730 c 0
 412.6 765 378.6 783 340.6 784 c 128
 302.6 785 268.6 767 237.6 733 c 0
627.6 1304 m 1
 447.6 994 l 1
 397.6 1024 l 1
 517.6 1342 l 1
 627.6 1304 l 1
EndSplineSet
Colour: ffffff
EndChar

StartChar: ocircumflex
Encoding: 180 244 179
Width: 701
VWidth: 1655
GlyphClass: 2
Flags: HMW
LayerCount: 2
Fore
SplineSet
87.7998 79 m 128
 39.7998 149 16.7998 236 16.7998 340 c 128
 16.7998 444 34.7998 537 69.7998 620 c 128
 104.8 703 151.8 770 212.8 821 c 128
 273.8 872 340.8 897 413.8 897 c 128
 486.8 897 549.8 863 600.8 795 c 128
 651.8 727 677.8 644 677.8 546 c 128
 677.8 448 662.8 358 631.8 274 c 128
 600.8 190 554.8 119 493.8 61 c 128
 432.8 3 361.8 -26 280.8 -26 c 128
 199.8 -26 135.8 9 87.7998 79 c 128
238.8 733 m 0
 184.8 672 157.8 581 157.8 460 c 0
 157.8 325 188.8 221 249.8 146 c 0
 279.8 109 312.8 89 349.8 90 c 128
 386.8 91 419.8 107 448.8 139 c 0
 504.8 204 532.8 300 532.8 424 c 0
 532.8 558 502.8 659 443.8 730 c 0
 413.8 765 379.8 783 341.8 784 c 128
 303.8 785 269.8 767 238.8 733 c 0
429.8 1220 m 1
 603.8 1039 l 1
 554.8 1003 l 1
 394.8 1111 l 1
 385.8 1111 l 1
 248.8 1001 l 1
 210.8 1031 l 1
 375.8 1207 l 1
 429.8 1220 l 1
EndSplineSet
Colour: ffffff
EndChar

StartChar: otilde
Encoding: 181 245 180
Width: 701
VWidth: 1655
GlyphClass: 2
Flags: HMW
LayerCount: 2
Fore
SplineSet
87.7998 79 m 128
 39.7998 149 16.7998 236 16.7998 340 c 128
 16.7998 444 34.7998 537 69.7998 620 c 128
 104.8 703 151.8 770 212.8 821 c 128
 273.8 872 340.8 897 413.8 897 c 128
 486.8 897 549.8 863 600.8 795 c 128
 651.8 727 677.8 644 677.8 546 c 128
 677.8 448 662.8 358 631.8 274 c 128
 600.8 190 554.8 119 493.8 61 c 128
 432.8 3 361.8 -26 280.8 -26 c 128
 199.8 -26 135.8 9 87.7998 79 c 128
238.8 733 m 0
 184.8 672 157.8 581 157.8 460 c 0
 157.8 325 188.8 221 249.8 146 c 0
 279.8 109 312.8 89 349.8 90 c 128
 386.8 91 419.8 107 448.8 139 c 0
 504.8 204 532.8 300 532.8 424 c 0
 532.8 558 502.8 659 443.8 730 c 0
 413.8 765 379.8 783 341.8 784 c 128
 303.8 785 269.8 767 238.8 733 c 0
636.8 1171 m 1
 605.8 1077 562.8 1030 508.8 1031 c 2
 497.8 1031 l 1
 278.8 1062 l 1
 275.8 1062 l 2
 255.8 1062 239.8 1050 225.8 1026 c 1
 217.8 1015 l 1
 179.8 1022 l 1
 181.8 1029 184.8 1039 188.8 1053 c 128
 192.8 1067 200.8 1084 213.8 1105 c 0
 238.8 1144 266.8 1164 299.8 1163 c 2
 306.8 1163 l 1
 308.8 1161 309.8 1161 313.8 1161 c 2
 530.8 1132 l 1
 533.8 1132 l 2
 551.8 1132 569.8 1146 589.8 1173 c 1
 636.8 1171 l 1
EndSplineSet
Colour: ffffff
EndChar

StartChar: odieresis
Encoding: 182 246 181
Width: 701
VWidth: 1655
GlyphClass: 2
Flags: HMW
LayerCount: 2
Fore
SplineSet
87.7998 79 m 128
 39.7998 149 16.7998 236 16.7998 340 c 128
 16.7998 444 34.7998 537 69.7998 620 c 128
 104.8 703 151.8 770 212.8 821 c 128
 273.8 872 340.8 897 413.8 897 c 128
 486.8 897 549.8 863 600.8 795 c 128
 651.8 727 677.8 644 677.8 546 c 128
 677.8 448 662.8 358 631.8 274 c 128
 600.8 190 554.8 119 493.8 61 c 128
 432.8 3 361.8 -26 280.8 -26 c 128
 199.8 -26 135.8 9 87.7998 79 c 128
238.8 733 m 0
 184.8 672 157.8 581 157.8 460 c 0
 157.8 325 188.8 221 249.8 146 c 0
 279.8 109 312.8 89 349.8 90 c 128
 386.8 91 419.8 107 448.8 139 c 0
 504.8 204 532.8 300 532.8 424 c 0
 532.8 558 502.8 659 443.8 730 c 0
 413.8 765 379.8 783 341.8 784 c 128
 303.8 785 269.8 767 238.8 733 c 0
597.8 1160 m 128
 615.8 1145 623.8 1127 623.8 1105 c 128
 623.8 1083 615.8 1066 597.8 1050 c 128
 579.8 1034 560.8 1027 537.8 1027 c 128
 514.8 1027 495.8 1034 478.8 1050 c 128
 461.8 1066 454.8 1084 454.8 1106 c 128
 454.8 1128 461.8 1146 478.8 1161 c 128
 495.8 1176 514.8 1182 537.8 1182 c 128
 560.8 1182 579.8 1175 597.8 1160 c 128
334.8 1160 m 128
 351.8 1145 359.8 1127 359.8 1105 c 128
 359.8 1083 351.8 1065 334.8 1050 c 128
 317.8 1035 299.8 1027 276.8 1027 c 128
 253.8 1027 233.8 1034 216.8 1050 c 128
 199.8 1066 192.8 1084 192.8 1106 c 128
 192.8 1128 199.8 1146 216.8 1161 c 128
 233.8 1176 253.8 1182 276.8 1182 c 128
 299.8 1182 317.8 1175 334.8 1160 c 128
EndSplineSet
Colour: ffffff
EndChar

StartChar: divide
Encoding: 183 247 182
Width: 861
VWidth: 1655
GlyphClass: 2
Flags: HMW
LayerCount: 2
Fore
SplineSet
583.6 790 m 0
 583.6 782 583.6 777 581.6 773 c 1
 575.6 740 560.6 711 533.6 688 c 128
 506.6 665 477.6 653 446.6 653 c 128
 415.6 653 390.6 662 372.6 682 c 128
 354.6 702 346.6 720 346.6 740 c 128
 346.6 760 346.6 771 347.6 775 c 1
 351.6 806 366.6 832 392.6 853 c 128
 418.6 874 447.6 885 478.6 885 c 132
 509.6 885 534.6 876 554.6 857 c 128
 574.6 838 583.6 817 583.6 790 c 0
495.6 238 m 0
 495.6 230 495.6 225 494.6 221 c 1
 488.6 188 472.6 160 445.6 137 c 128
 418.6 114 388.6 103 358.6 103 c 128
 328.6 103 304.6 112 285.6 131 c 128
 266.6 150 257.6 168 257.6 188 c 128
 257.6 208 257.6 219 259.6 223 c 1
 263.6 254 278.6 280 305.6 301 c 128
 332.6 322 360.6 332 391.6 332 c 128
 422.6 332 446.6 323 466.6 305 c 128
 486.6 287 495.6 265 495.6 238 c 0
42.5996 548 m 1
 838.6 548 l 1
 810.6 446 l 1
 15.5996 446 l 1
 42.5996 548 l 1
EndSplineSet
Colour: ffffff
EndChar

StartChar: oslash
Encoding: 184 248 183
Width: 716
VWidth: 1655
GlyphClass: 2
Flags: HMW
LayerCount: 2
Fore
SplineSet
250.6 163 m 1
 284.6 114 320.6 89 360.6 90 c 128
 400.6 91 434.6 107 463.6 139 c 0
 519.6 204 547.6 300 547.6 424 c 0
 547.6 503 534.6 576 507.6 644 c 1
 250.6 163 l 1
253.6 733 m 0
 199.6 672 172.6 581 172.6 460 c 0
 172.6 377 185.6 301 212.6 233 c 1
 469.6 716 l 1
 438.6 761 402.6 784 361.6 784 c 128
 320.6 784 284.6 767 253.6 733 c 0
552.6 915 m 1
 681.6 923 l 1
 613.6 794 l 1
 665.6 727 691.6 645 692.6 547 c 128
 693.6 449 677.6 358 646.6 274 c 128
 615.6 190 569.6 119 508.6 61 c 128
 447.6 3 377.6 -26 298.6 -26 c 0
 259.6 -26 221.6 -17 186.6 2 c 1
 144.6 -77 l 1
 15.5996 -84 l 1
 104.6 80 l 1
 55.5996 149 31.5996 235 31.5996 339 c 128
 31.5996 443 49.5996 537 84.5996 620 c 128
 119.6 703 166.6 770 227.6 821 c 128
 288.6 872 353.6 897 423.6 897 c 0
 455.6 897 490.6 888 528.6 869 c 1
 552.6 915 l 1
EndSplineSet
Colour: ffffff
EndChar

StartChar: ugrave
Encoding: 185 249 184
Width: 997
VWidth: 1655
GlyphClass: 2
Flags: HMW
LayerCount: 2
Fore
SplineSet
664.6 817 m 1
 687.6 872 726.6 900 783.6 900 c 0
 797.6 900 810.6 899 825.6 895 c 1
 841.6 867 l 1
 771.6 484 l 1
 754.6 284 l 2
 749.6 233 746.6 199 747.6 178 c 128
 748.6 157 750.6 143 756.6 135 c 128
 762.6 127 773.6 123 789.6 123 c 128
 805.6 123 828.6 139 859.6 170 c 128
 890.6 201 915.6 234 935.6 270 c 1
 974.6 242 l 1
 922.6 64 825.6 -25 681.6 -24 c 0
 622.6 -24 593.6 17 592.6 98 c 0
 592.6 139 601.6 194 620.6 263 c 1
 609.6 265 l 1
 576.6 174 534.6 102 485.6 51 c 128
 436.6 0 384.6 -26 331.6 -26 c 128
 278.6 -26 237.6 -12 211.6 16 c 128
 185.6 44 172.6 77 172.6 118 c 128
 172.6 159 175.6 205 181.6 256 c 1
 234.6 602 l 1
 239.6 637 241.6 661 240.6 676 c 0
 240.6 717 229.6 737 206.6 738 c 0
 175.6 738 127.6 689 63.5996 592 c 1
 15.5996 623 l 1
 44.5996 699 87.5996 765 143.6 819 c 128
 199.6 873 254.6 900 309.6 900 c 0
 374.6 900 407.6 857 405.6 770 c 0
 405.6 743 397.6 673 379.6 561 c 2
 351.6 385 l 1
 341.6 328 337.6 281 337.6 242 c 128
 337.6 203 340.6 179 349.6 167 c 128
 358.6 155 372.6 150 392.6 150 c 0
 440.6 150 483.6 179 522.6 237 c 1
 561.6 296 596.6 393 627.6 527 c 1
 629.6 668 641.6 764 664.6 817 c 1
366.6 1331 m 1
 479.6 1367 l 1
 609.6 1041 l 1
 552.6 1006 l 1
 366.6 1331 l 1
EndSplineSet
Colour: ffffff
EndChar

StartChar: uacute
Encoding: 186 250 185
Width: 997
VWidth: 1655
GlyphClass: 2
Flags: HMW
LayerCount: 2
Fore
SplineSet
664.6 817 m 1
 687.6 872 726.6 900 783.6 900 c 0
 797.6 900 810.6 899 825.6 895 c 1
 841.6 867 l 1
 771.6 484 l 1
 754.6 284 l 2
 749.6 233 746.6 199 747.6 178 c 128
 748.6 157 750.6 143 756.6 135 c 128
 762.6 127 773.6 123 789.6 123 c 128
 805.6 123 828.6 139 859.6 170 c 128
 890.6 201 915.6 234 935.6 270 c 1
 974.6 242 l 1
 922.6 64 825.6 -25 681.6 -24 c 0
 622.6 -24 593.6 17 592.6 98 c 0
 592.6 139 601.6 194 620.6 263 c 1
 609.6 265 l 1
 576.6 174 534.6 102 485.6 51 c 128
 436.6 0 384.6 -26 331.6 -26 c 128
 278.6 -26 237.6 -12 211.6 16 c 128
 185.6 44 172.6 77 172.6 118 c 128
 172.6 159 175.6 205 181.6 256 c 1
 234.6 602 l 1
 239.6 637 241.6 661 240.6 676 c 0
 240.6 717 229.6 737 206.6 738 c 0
 175.6 738 127.6 689 63.5996 592 c 1
 15.5996 623 l 1
 44.5996 699 87.5996 765 143.6 819 c 128
 199.6 873 254.6 900 309.6 900 c 0
 374.6 900 407.6 857 405.6 770 c 0
 405.6 743 397.6 673 379.6 561 c 2
 351.6 385 l 1
 341.6 328 337.6 281 337.6 242 c 128
 337.6 203 340.6 179 349.6 167 c 128
 358.6 155 372.6 150 392.6 150 c 0
 440.6 150 483.6 179 522.6 237 c 1
 561.6 296 596.6 393 627.6 527 c 1
 629.6 668 641.6 764 664.6 817 c 1
787.6 1336 m 1
 607.6 1026 l 1
 557.6 1057 l 1
 677.6 1375 l 1
 787.6 1336 l 1
EndSplineSet
Colour: ffffff
EndChar

StartChar: ucircumflex
Encoding: 187 251 186
Width: 997
VWidth: 1655
GlyphClass: 2
Flags: HMW
LayerCount: 2
Fore
SplineSet
664.6 817 m 1
 687.6 872 726.6 900 783.6 900 c 0
 797.6 900 810.6 899 825.6 895 c 1
 841.6 867 l 1
 771.6 484 l 1
 754.6 284 l 2
 749.6 233 746.6 199 747.6 178 c 128
 748.6 157 750.6 143 756.6 135 c 128
 762.6 127 773.6 123 789.6 123 c 128
 805.6 123 828.6 139 859.6 170 c 128
 890.6 201 915.6 234 935.6 270 c 1
 974.6 242 l 1
 922.6 64 825.6 -25 681.6 -24 c 0
 622.6 -24 593.6 17 592.6 98 c 0
 592.6 139 601.6 194 620.6 263 c 1
 609.6 265 l 1
 576.6 174 534.6 102 485.6 51 c 128
 436.6 0 384.6 -26 331.6 -26 c 128
 278.6 -26 237.6 -12 211.6 16 c 128
 185.6 44 172.6 77 172.6 118 c 128
 172.6 159 175.6 205 181.6 256 c 1
 234.6 602 l 1
 239.6 637 241.6 661 240.6 676 c 0
 240.6 717 229.6 737 206.6 738 c 0
 175.6 738 127.6 689 63.5996 592 c 1
 15.5996 623 l 1
 44.5996 699 87.5996 765 143.6 819 c 128
 199.6 873 254.6 900 309.6 900 c 0
 374.6 900 407.6 857 405.6 770 c 0
 405.6 743 397.6 673 379.6 561 c 2
 351.6 385 l 1
 341.6 328 337.6 281 337.6 242 c 128
 337.6 203 340.6 179 349.6 167 c 128
 358.6 155 372.6 150 392.6 150 c 0
 440.6 150 483.6 179 522.6 237 c 1
 561.6 296 596.6 393 627.6 527 c 1
 629.6 668 641.6 764 664.6 817 c 1
588.6 1252 m 1
 762.6 1071 l 1
 714.6 1036 l 1
 553.6 1142 l 1
 544.6 1142 l 1
 407.6 1034 l 1
 369.6 1064 l 1
 534.6 1239 l 1
 588.6 1252 l 1
EndSplineSet
Colour: ffffff
EndChar

StartChar: udieresis
Encoding: 188 252 187
Width: 997
VWidth: 1655
GlyphClass: 2
Flags: HMW
LayerCount: 2
Fore
SplineSet
664.6 817 m 1
 687.6 872 726.6 900 783.6 900 c 0
 797.6 900 810.6 899 825.6 895 c 1
 841.6 867 l 1
 771.6 484 l 1
 754.6 284 l 2
 749.6 233 746.6 199 747.6 178 c 128
 748.6 157 750.6 143 756.6 135 c 128
 762.6 127 773.6 123 789.6 123 c 128
 805.6 123 828.6 139 859.6 170 c 128
 890.6 201 915.6 234 935.6 270 c 1
 974.6 242 l 1
 922.6 64 825.6 -25 681.6 -24 c 0
 622.6 -24 593.6 17 592.6 98 c 0
 592.6 139 601.6 194 620.6 263 c 1
 609.6 265 l 1
 576.6 174 534.6 102 485.6 51 c 128
 436.6 0 384.6 -26 331.6 -26 c 128
 278.6 -26 237.6 -12 211.6 16 c 128
 185.6 44 172.6 77 172.6 118 c 128
 172.6 159 175.6 205 181.6 256 c 1
 234.6 602 l 1
 239.6 637 241.6 661 240.6 676 c 0
 240.6 717 229.6 737 206.6 738 c 0
 175.6 738 127.6 689 63.5996 592 c 1
 15.5996 623 l 1
 44.5996 699 87.5996 765 143.6 819 c 128
 199.6 873 254.6 900 309.6 900 c 0
 374.6 900 407.6 857 405.6 770 c 0
 405.6 743 397.6 673 379.6 561 c 2
 351.6 385 l 1
 341.6 328 337.6 281 337.6 242 c 128
 337.6 203 340.6 179 349.6 167 c 128
 358.6 155 372.6 150 392.6 150 c 0
 440.6 150 483.6 179 522.6 237 c 1
 561.6 296 596.6 393 627.6 527 c 1
 629.6 668 641.6 764 664.6 817 c 1
756.6 1193 m 128
 774.6 1178 782.6 1160 782.6 1138 c 128
 782.6 1116 774.6 1099 756.6 1083 c 128
 738.6 1067 719.6 1060 696.6 1060 c 128
 673.6 1060 654.6 1067 638.6 1083 c 128
 622.6 1099 614.6 1117 614.6 1139 c 128
 614.6 1161 622.6 1179 638.6 1194 c 128
 654.6 1209 673.6 1215 696.6 1215 c 128
 719.6 1215 738.6 1208 756.6 1193 c 128
494.6 1193 m 128
 511.6 1178 519.6 1160 519.6 1138 c 128
 519.6 1116 511.6 1098 494.6 1083 c 128
 477.6 1068 458.6 1060 435.6 1060 c 128
 412.6 1060 392.6 1067 375.6 1083 c 128
 358.6 1099 351.6 1117 351.6 1139 c 128
 351.6 1161 358.6 1179 375.6 1194 c 128
 392.6 1209 412.6 1215 435.6 1215 c 128
 458.6 1215 477.6 1208 494.6 1193 c 128
EndSplineSet
Colour: ffffff
EndChar

StartChar: yacute
Encoding: 189 253 188
Width: 862
VWidth: 1655
GlyphClass: 2
Flags: HMW
LayerCount: 2
Fore
SplineSet
64.5996 592 m 1
 15.5996 629 l 1
 40.5996 700 77.5996 764 129.6 819 c 128
 181.6 874 232.6 902 280.6 902 c 128
 328.6 902 364.6 885 389.6 852 c 128
 414.6 819 431.6 766 441.6 693 c 2
 502.6 205 l 1
 507.6 162 l 1
 516.6 162 l 1
 592.6 276 638.6 354 653.6 395 c 128
 668.6 436 676.6 467 679.6 490 c 128
 682.6 513 683.6 545 683.6 585 c 128
 683.6 625 669.6 671 642.6 723 c 128
 615.6 775 583.6 817 548.6 848 c 1
 561.6 864 579.6 877 603.6 889 c 128
 627.6 901 651.6 906 674.6 906 c 0
 719.6 906 757.6 886 790.6 846 c 128
 823.6 806 839.6 760 839.6 707 c 0
 839.6 616 814.6 524 765.6 429 c 128
 716.6 334 630.6 206 506.6 46 c 1
 493.6 -73 453.6 -174 387.6 -257 c 128
 321.6 -340 244.6 -381 157.6 -381 c 0
 119.6 -381 87.5996 -370 59.5996 -349 c 128
 31.5996 -328 17.5996 -302 17.5996 -270 c 2
 17.5996 -265 l 1
 20.5996 -236 25.5996 -213 34.5996 -195 c 128
 43.5996 -177 59.5996 -160 82.5996 -141 c 1
 133.6 -189 184.6 -213 233.6 -212 c 128
 282.6 -211 318.6 -198 341.6 -170 c 128
 364.6 -142 376.6 -93 376.6 -24 c 0
 376.6 13 373.6 57 366.6 109 c 2
 302.6 610 l 2
 296.6 652 286.6 685 268.6 710 c 128
 250.6 735 231.6 748 210.6 748 c 128
 189.6 748 167.6 733 140.6 703 c 128
 113.6 673 87.5996 635 64.5996 592 c 1
736.6 1336 m 1
 557.6 1026 l 1
 507.6 1057 l 1
 627.6 1375 l 1
 736.6 1336 l 1
EndSplineSet
Colour: ffffff
EndChar

StartChar: thorn
Encoding: 190 254 189
Width: 920
VWidth: 1655
GlyphClass: 2
Flags: HMW
LayerCount: 2
Back
SplineSet
164 -251 m 1
 309 887 l 1
 345 1145 l 1
 206 1171 l 1
 217 1246 l 1
 505 1269 l 1
 522 1248 l 1
 464 839 l 1
 396 560 l 1
 408 558 l 1
 445 652 488 730 539 791 c 128
 590 852 643 882 699 882 c 128
 755 882 801 852 838 790 c 128
 875 728 894 646 894 545 c 128
 894 444 879 355 850 278 c 128
 821 201 780 142 729 103 c 0
 632 27 522 -11 401 -13 c 1
 391 61 l 1
 433 66 466 71 491 79 c 128
 516 87 544 99 576 119 c 0
 608 139 633 164 653 195 c 0
 699 268 722 378 722 527 c 0
 722 596 715 645 702 676 c 128
 689 707 668 722 637 722 c 0
 586 722 533 673 480 574 c 1
 426 473 390 341 371 179 c 1
 308 -270 l 1
 490 -291 l 1
 473 -362 l 1
 13 -362 l 1
 32 -293 l 1
 164 -251 l 1
EndSplineSet
Fore
SplineSet
166.6 -251 m 1
 311.6 887 l 1
 351.6 1175 l 1
 212.6 1201 l 1
 223.6 1276 l 1
 511.6 1299 l 1
 528.6 1278 l 1
 466.6 839 l 1
 398.6 560 l 1
 410.6 558 l 1
 447.6 652 490.6 730 541.6 791 c 128
 592.6 852 645.6 882 701.6 882 c 128
 757.6 882 803.6 852 840.6 790 c 128
 877.6 728 896.6 646 896.6 545 c 128
 896.6 444 881.6 355 852.6 278 c 128
 823.6 201 782.6 142 731.6 103 c 0
 634.6 27 524.6 -11 403.6 -13 c 1
 393.6 61 l 1
 435.6 66 468.6 71 493.6 79 c 128
 518.6 87 546.6 99 578.6 119 c 0
 610.6 139 635.6 164 655.6 195 c 0
 701.6 268 724.6 378 724.6 527 c 0
 724.6 596 717.6 645 704.6 676 c 128
 691.6 707 670.6 722 639.6 722 c 0
 588.6 722 535.6 673 482.6 574 c 1
 428.6 473 392.6 341 373.6 179 c 1
 310.6 -270 l 1
 492.6 -291 l 1
 475.6 -362 l 1
 15.5996 -362 l 1
 34.5996 -293 l 1
 166.6 -251 l 1
EndSplineSet
Colour: ffffff
EndChar

StartChar: ydieresis
Encoding: 191 255 190
Width: 862
VWidth: 1655
GlyphClass: 2
Flags: HMW
LayerCount: 2
Fore
SplineSet
64.5996 592 m 1
 15.5996 629 l 1
 40.5996 700 77.5996 764 129.6 819 c 128
 181.6 874 232.6 902 280.6 902 c 128
 328.6 902 364.6 885 389.6 852 c 128
 414.6 819 431.6 766 441.6 693 c 2
 502.6 205 l 1
 507.6 162 l 1
 516.6 162 l 1
 592.6 276 638.6 354 653.6 395 c 128
 668.6 436 676.6 467 679.6 490 c 128
 682.6 513 683.6 545 683.6 585 c 128
 683.6 625 669.6 671 642.6 723 c 128
 615.6 775 583.6 817 548.6 848 c 1
 561.6 864 579.6 877 603.6 889 c 128
 627.6 901 651.6 906 674.6 906 c 0
 719.6 906 757.6 886 790.6 846 c 128
 823.6 806 839.6 760 839.6 707 c 0
 839.6 616 814.6 524 765.6 429 c 128
 716.6 334 630.6 206 506.6 46 c 1
 493.6 -73 453.6 -174 387.6 -257 c 128
 321.6 -340 244.6 -381 157.6 -381 c 0
 119.6 -381 87.5996 -370 59.5996 -349 c 128
 31.5996 -328 17.5996 -302 17.5996 -270 c 2
 17.5996 -265 l 1
 20.5996 -236 25.5996 -213 34.5996 -195 c 128
 43.5996 -177 59.5996 -160 82.5996 -141 c 1
 133.6 -189 184.6 -213 233.6 -212 c 128
 282.6 -211 318.6 -198 341.6 -170 c 128
 364.6 -142 376.6 -93 376.6 -24 c 0
 376.6 13 373.6 57 366.6 109 c 2
 302.6 610 l 2
 296.6 652 286.6 685 268.6 710 c 128
 250.6 735 231.6 748 210.6 748 c 128
 189.6 748 167.6 733 140.6 703 c 128
 113.6 673 87.5996 635 64.5996 592 c 1
707.6 1193 m 128
 724.6 1178 731.6 1160 731.6 1138 c 128
 731.6 1116 724.6 1099 707.6 1083 c 128
 690.6 1067 670.6 1060 647.6 1060 c 128
 624.6 1060 604.6 1067 588.6 1083 c 128
 572.6 1099 564.6 1117 564.6 1139 c 128
 564.6 1161 572.6 1179 588.6 1194 c 128
 604.6 1209 624.6 1215 647.6 1215 c 128
 670.6 1215 690.6 1208 707.6 1193 c 128
444.6 1193 m 128
 461.6 1178 468.6 1160 468.6 1138 c 128
 468.6 1116 461.6 1098 444.6 1083 c 128
 427.6 1068 407.6 1060 384.6 1060 c 128
 361.6 1060 342.6 1067 326.6 1083 c 128
 310.6 1099 302.6 1117 302.6 1139 c 128
 302.6 1161 310.6 1179 326.6 1194 c 128
 342.6 1209 361.6 1215 384.6 1215 c 128
 407.6 1215 427.6 1208 444.6 1193 c 128
EndSplineSet
Colour: ffffff
EndChar

StartChar: circumflex
Encoding: 192 710 191
Width: 490
VWidth: 1655
GlyphClass: 2
Flags: HMW
LayerCount: 2
Fore
SplineSet
266 1548 m 1
 442 1367 l 1
 393 1332 l 1
 233 1438 l 1
 223 1438 l 1
 85 1331 l 1
 48 1359 l 1
 214 1536 l 1
 266 1548 l 1
EndSplineSet
Colour: ffffff
EndChar

StartChar: dotaccent
Encoding: 193 729 192
Width: 332
VWidth: 1655
GlyphClass: 2
Flags: HMW
LayerCount: 2
Fore
SplineSet
249 1527 m 128
 272 1506 284 1480 284 1448 c 128
 284 1416 272 1387 249 1364 c 128
 226 1341 198 1329 165 1329 c 128
 132 1329 105 1341 82 1364 c 128
 59 1387 48 1415 48 1448 c 128
 48 1481 60 1507 83 1528 c 128
 106 1549 133 1559 165 1559 c 128
 197 1559 226 1548 249 1527 c 128
EndSplineSet
Colour: ffffff
EndChar

StartChar: ring
Encoding: 194 730 193
Width: 414
VWidth: 1655
GlyphClass: 2
Flags: HMW
LayerCount: 2
Fore
SplineSet
141 1586 m 128
 125 1565 118 1538 118 1505 c 128
 118 1472 126 1444 144 1419 c 128
 162 1394 184 1382 212 1382 c 0
 268 1382 296 1419 296 1494 c 0
 296 1529 287 1558 269 1582 c 128
 251 1606 230 1617 204 1617 c 128
 178 1617 157 1607 141 1586 c 128
324 1620 m 128
 352 1590 366 1551 366 1505 c 128
 366 1459 351 1419 319 1386 c 128
 287 1353 248 1336 202 1336 c 128
 156 1336 118 1350 90 1379 c 128
 62 1408 48 1446 48 1493 c 128
 48 1540 64 1580 97 1614 c 128
 130 1648 169 1665 214 1665 c 128
 259 1665 296 1650 324 1620 c 128
EndSplineSet
Colour: ffffff
EndChar

StartChar: tilde
Encoding: 195 732 194
Width: 555
VWidth: 1655
GlyphClass: 2
Flags: HMW
LayerCount: 2
Fore
SplineSet
145.2 1389 m 2
 128.2 1389 109.2 1373 86.2002 1342 c 1
 49.2002 1351 l 1
 51.2002 1358 54.2002 1367 58.2002 1381 c 128
 62.2002 1395 70.2002 1412 83.2002 1432 c 0
 108.2 1471 136.2 1491 169.2 1492 c 2
 176.2 1492 l 1
 178.2 1490 180.2 1490 182.2 1490 c 2
 400.2 1461 l 1
 404.2 1461 l 2
 418.2 1461 436.2 1474 458.2 1501 c 1
 506.2 1500 l 1
 475.2 1406 432.2 1359 378.2 1359 c 2
 367.2 1359 l 1
 148.2 1389 l 1
 145.2 1389 l 2
EndSplineSet
Colour: ffffff
EndChar

StartChar: Germandbls
Encoding: 196 7838 195
Width: 1382
VWidth: 1655
GlyphClass: 2
Flags: HMW
LayerCount: 2
Fore
SplineSet
790.6 369 m 1
 770.6 317 759.6 271 760.6 232 c 128
 761.6 193 766.6 164 777.6 144 c 1
 786.6 122 802.6 103 825.6 86 c 0
 861.6 60 899.6 47 939.6 47 c 128
 979.6 47 1013.6 57 1044.6 78 c 0
 1096.6 113 1122.6 160 1122.6 220 c 0
 1122.6 268 1111.6 308 1088.6 341 c 128
 1065.6 374 1015.6 428 938.6 502 c 128
 861.6 576 806.6 631 775.6 667 c 128
 744.6 703 721.6 738 706.6 770 c 128
 691.6 802 683.6 839 683.6 882 c 2
 683.6 893 l 1
 685.6 939 697.6 981 719.6 1020 c 1
 757.6 1090 815.6 1142 892.6 1176 c 1
 892.6 1184 l 1
 878.6 1184 l 2
 792.6 1184 721.6 1160 664.6 1113 c 128
 607.6 1066 568.6 1005 547.6 931 c 1
 538.6 902 533.6 871 529.6 838 c 1
 425.6 -2 l 1
 15.5996 -2 l 1
 38.5996 80 l 1
 256.6 134 l 1
 337.6 771 l 1
 349.6 844 358.6 896 367.6 926 c 128
 376.6 956 391.6 988 413.6 1022 c 0
 492.6 1146 637.6 1221 846.6 1246 c 1
 877.6 1251 921.6 1253 978.6 1252 c 128
 1035.6 1251 1089.6 1245 1140.6 1230 c 128
 1191.6 1215 1235.6 1194 1273.6 1163 c 1
 1308.6 1132 1330.6 1100 1342.6 1068 c 128
 1354.6 1036 1359.6 1010 1359.6 992 c 0
 1359.6 923 1338.6 873 1295.6 841 c 0
 1266.6 819 1236.6 808 1206.6 809 c 128
 1176.6 810 1147.6 816 1120.6 830 c 1
 1146.6 902 1159.6 958 1159.6 999 c 128
 1159.6 1040 1156.6 1069 1149.6 1086 c 128
 1142.6 1103 1130.6 1119 1110.6 1136 c 128
 1090.6 1153 1072.6 1162 1054.6 1164 c 1
 1050.6 1166 1045.6 1166 1036.6 1166 c 0
 997.6 1166 963.6 1150 932.6 1117 c 1
 901.6 1086 882.6 1045 874.6 994 c 1
 870.6 978 869.6 963 869.6 948 c 128
 869.6 933 871.6 912 876.6 886 c 128
 881.6 860 888.6 839 899.6 821 c 0
 915.6 795 958.6 749 1029.6 683 c 128
 1100.6 617 1143.6 576 1159.6 561 c 0
 1202.6 520 1237.6 477 1264.6 432 c 0
 1298.6 377 1315.6 319 1315.6 258 c 128
 1315.6 197 1292.6 140 1245.6 88 c 1
 1216.6 54 1180.6 26 1137.6 3 c 0
 1061.6 -36 980.6 -55 894.6 -56 c 0
 846.6 -56 795.6 -49 741.6 -33 c 1
 658.6 -6 598.6 39 562.6 101 c 1
 546.6 130 537.6 150 535.6 162 c 128
 533.6 174 532.6 184 532.6 195 c 0
 532.6 246 549.6 288 583.6 320 c 1
 619.6 359 667.6 378 726.6 378 c 0
 747.6 379 769.6 376 790.6 369 c 1
EndSplineSet
Colour: ffffff
EndChar

StartChar: endash
Encoding: 197 8211 196
Width: 673
VWidth: 1655
GlyphClass: 2
Flags: HMW
LayerCount: 2
Fore
SplineSet
45.7998 504 m 1
 643.8 510 l 1
 627.8 408 l 1
 28.7998 401 l 1
 45.7998 504 l 1
EndSplineSet
Colour: ffffff
EndChar

StartChar: emdash
Encoding: 198 8212 197
Width: 1171
VWidth: 1655
GlyphClass: 2
Flags: HMW
LayerCount: 2
Fore
SplineSet
45.7998 504 m 1
 1141.8 510 l 1
 1125.8 408 l 1
 28.7998 401 l 1
 45.7998 504 l 1
EndSplineSet
Colour: ffffff
EndChar

StartChar: quoteleft
Encoding: 199 8216 198
Width: 380
VWidth: 1655
GlyphClass: 2
Flags: HMW
LayerCount: 2
Fore
SplineSet
167.2 801 m 2
 152.2 801 l 1
 100.2 807 63.2002 840 40.2002 900 c 0
 30.2002 924 26.2002 948 25.2002 971 c 0
 25.2002 1072 75.2002 1160 175.2 1236 c 1
 219.2 1272 268.2 1304 323.2 1331 c 1
 356.2 1278 l 1
 297.2 1247 255.2 1214 230.2 1176 c 128
 205.2 1138 193.2 1101 193.2 1066 c 0
 193.2 1064 195.2 1053 199.2 1031 c 128
 203.2 1009 213.2 987 233.2 964 c 128
 253.2 941 276.2 924 301.2 911 c 1
 291.2 875 274.2 848 247.2 829 c 128
 220.2 810 194.2 801 167.2 801 c 2
EndSplineSet
Colour: ffffff
EndChar

StartChar: quoteright
Encoding: 200 8217 199
Width: 378
VWidth: 1655
GlyphClass: 2
Flags: HMW
LayerCount: 2
Fore
SplineSet
215 1324 m 2
 228 1324 l 1
 280 1317 318 1284 341 1224 c 0
 351 1200 355 1177 355 1154 c 0
 356 1053 306 965 207 888 c 1
 163 852 113 821 57 794 c 1
 24 846 l 1
 83 877 124 911 150 949 c 128
 176 987 189 1023 189 1058 c 0
 189 1060 187 1071 183 1093 c 128
 179 1115 167 1138 147 1160 c 128
 127 1182 105 1199 80 1213 c 1
 90 1249 107 1277 134 1296 c 128
 161 1315 188 1324 215 1324 c 2
EndSplineSet
Colour: ffffff
EndChar

StartChar: quotesinglbase
Encoding: 201 8218 200
Width: 386
VWidth: 1655
GlyphClass: 2
Flags: HMW
LayerCount: 2
Fore
SplineSet
218.6 228 m 2
 231.6 228 l 1
 283.6 221 320.6 188 342.6 127 c 0
 352.6 101 355.6 77 356.6 54 c 128
 357.6 31 356.6 13 353.6 0 c 0
 339.6 -75 291.6 -144 208.6 -209 c 1
 164.6 -245 114.6 -276 59.5996 -303 c 1
 27.5996 -251 l 1
 86.5996 -220 128.6 -186 153.6 -149 c 128
 178.6 -112 190.6 -75 190.6 -38 c 0
 190.6 -29 188.6 -17 184.6 0 c 128
 180.6 17 167.6 38 145.6 63 c 128
 123.6 88 103.6 105 82.5996 116 c 1
 92.5996 152 110.6 179 137.6 199 c 128
 164.6 219 191.6 228 218.6 228 c 2
EndSplineSet
Colour: ffffff
EndChar

StartChar: quotedblleft
Encoding: 202 8220 201
Width: 714
VWidth: 1655
GlyphClass: 2
Flags: HMW
LayerCount: 2
Fore
SplineSet
501.2 801 m 2
 487.2 801 l 1
 435.2 807 398.2 840 376.2 900 c 0
 366.2 924 362.2 948 361.2 971 c 0
 361.2 1072 410.2 1160 509.2 1236 c 1
 553.2 1272 603.2 1304 658.2 1331 c 1
 690.2 1278 l 1
 631.2 1247 590.2 1214 565.2 1176 c 128
 540.2 1138 527.2 1101 527.2 1066 c 0
 527.2 1064 529.2 1053 534.2 1031 c 128
 539.2 1009 550.2 987 570.2 964 c 128
 590.2 941 611.2 924 636.2 911 c 1
 626.2 875 609.2 848 582.2 829 c 128
 555.2 810 528.2 801 501.2 801 c 2
167.2 801 m 2
 152.2 801 l 1
 100.2 807 63.2002 840 40.2002 900 c 0
 30.2002 924 26.2002 948 25.2002 971 c 0
 25.2002 1072 75.2002 1160 175.2 1236 c 1
 219.2 1272 268.2 1304 323.2 1331 c 1
 356.2 1278 l 1
 297.2 1247 255.2 1214 230.2 1176 c 128
 205.2 1138 193.2 1101 193.2 1066 c 0
 193.2 1064 195.2 1053 199.2 1031 c 128
 203.2 1009 213.2 987 233.2 964 c 128
 253.2 941 276.2 924 301.2 911 c 1
 291.2 875 274.2 848 247.2 829 c 128
 220.2 810 194.2 801 167.2 801 c 2
EndSplineSet
Colour: ffffff
EndChar

